<?xml version="1.0" encoding="utf-8"?><svg xmlns="http://www.w3.org/2000/svg" xmlns:xlink="http://www.w3.org/1999/xlink"><symbol viewBox="0 0 512 512" id="icon__tab-icon_rent" xmlns="http://www.w3.org/2000/svg"><path d="M156.6 298.1c0-18.4-15-33.3-33.3-33.3h-21.8c-5.5 0-10 4.5-10 10v82.4c0 5.5 4.5 10 10 10s10-4.5 10-10v-25.7h5l17.8 30.7c1.9 3.2 5.2 5 8.7 5 1.7 0 3.4-.4 5-1.3 4.8-2.8 6.4-8.9 3.7-13.7l-13.9-24c11-5.4 18.8-16.8 18.8-30.1zm-45.2-13.3h11.8c7.4 0 13.3 6 13.3 13.3 0 7.4-6 13.3-13.3 13.3h-11.8v-26.6zm116 0c5.5 0 10-4.5 10-10s-4.5-10-10-10h-45.2c-5.5 0-10 4.5-10 10v82.4c0 5.5 4.5 10 10 10h45.2c5.5 0 10-4.5 10-10s-4.5-10-10-10h-35.2V326h17.6c5.5 0 10-4.5 10-10s-4.5-10-10-10h-17.6v-21.2h35.2zm82.1-10v49.5l-36.9-55.1c-2.4-3.7-7-5.3-11.2-4-4.2 1.3-7.1 5.2-7.1 9.6v82.4c0 5.5 4.5 10 10 10s10-4.5 10-10v-49.5l36.9 55.1c1.9 2.8 5 4.4 8.3 4.4 1 0 1.9-.1 2.9-.4 4.2-1.3 7.1-5.2 7.1-9.6v-82.4c0-5.5-4.5-10-10-10s-10 4.5-10 10zm111.1 0c0-5.5-4.5-10-10-10h-55.2c-5.5 0-10 4.5-10 10s4.5 10 10 10h15.9v72.4c0 5.5 4.5 10 10 10s10-4.5 10-10v-72.4h19.3c5.5 0 10-4.5 10-10z"/><path d="M482 146h-17.5L290.4 54.6C287.4 38.4 273.1 26 256 26s-31.4 12.4-34.4 28.6L47.5 146H30c-16.5 0-30 13.5-30 30v280c0 16.5 13.5 30 30 30h452c16.5 0 30-13.5 30-30V176c0-16.5-13.5-30-30-30zM256 46c8.3 0 15 6.7 15 15s-6.7 15-15 15-15-6.7-15-15 6.7-15 15-15zm236 410c0 5.5-4.5 10-10 10H30c-5.5 0-10-4.5-10-10V176c0-5.5 4.5-10 10-10h60c5.5 0 10-4.5 10-10 0-5.3-4.2-9.7-9.5-10l133.8-70.2C229.9 87.7 242 96 256 96s26.1-8.3 31.7-20.2L421.4 146H170c-5.5 0-10 4.5-10 10s4.5 10 10 10h312c5.5 0 10 4.5 10 10v280z"/><path d="M462 186H50c-5.5 0-10 4.5-10 10v240c0 5.5 4.5 10 10 10h292c5.5 0 10-4.5 10-10s-4.5-10-10-10H60V206h392v220h-30c-5.5 0-10 4.5-10 10s4.5 10 10 10h40c5.5 0 10-4.5 10-10V196c0-5.5-4.5-10-10-10zm-332-20c5.5 0 10-4.5 10-10s-4.5-10-10-10-10 4.5-10 10 4.5 10 10 10z"/><path d="M382 426c-5.5 0-10 4.5-10 10s4.5 10 10 10 10-4.5 10-10-4.5-10-10-10z"/></symbol><symbol viewBox="0 0 512 512" id="icon__tab-icon_sale" xmlns="http://www.w3.org/2000/svg"><path d="M50 452c-5.5 0-10 4.5-10 10s4.5 10 10 10 10-4.5 10-10-4.5-10-10-10zM502 0h-80c-5.5 0-10 4.5-10 10v10.4l-13.3-.1h-.1c-5.5 0-10 4.4-10 9.9s4.4 10 9.9 10.1l13.5.1v103.8c-26.2 16.5-49.8 7-74.8-3.1-16.4-6.6-33.4-13.5-50.4-11.3-5.4.7-19.8 2.8-35.1 5-14.5 2.1-29.5 4.3-34.6 4.9-2.6.3-5.2-.4-7.4-2.1-2.2-1.7-3.6-4.1-3.9-6.8-.2-1.8-.8-6.5 11.7-12.3 26.5-12.3 54.8-22.8 77.6-28.9 5.3-1.4 8.5-6.9 7.1-12.2-1.4-5.3-6.9-8.5-12.2-7.1-23.8 6.3-53.3 17.3-80.8 30.1-9.6 4.4-15.5 9.6-18.9 14.8L90 142.6c-10.5 2.7-16-1.5-17.5-6.4-1.5-4.7.3-10.9 7.9-13.8 7.8-3 26.6-11.2 50.3-21.7 31.4-13.8 70.5-31 101.7-43.7 37-15 48.3-17.3 86.3-17.2 5.5 0 10-4.5 10-10s-4.4-10-10-10c-40.5-.1-54.5 2.7-93.8 18.6-31.4 12.8-70.7 30-102.2 43.9-22.6 9.9-42.1 18.5-49.4 21.3h-.1c-18.7 7.3-24 25-19.6 38.6 4.3 13.4 19.2 25.3 41.5 19.6h.2l91.5-25c1.6 6.5 5.4 12.3 10.8 16.5 6.3 4.9 14.2 7.1 22.1 6.1 5.3-.7 19.8-2.8 35-5 14.5-2.1 29.5-4.3 34.7-4.9 11.8-1.5 25.7 4.1 40.4 10 15.6 6.3 33.4 13.4 52.6 13.4 9.5 0 19.5-1.8 29.6-6.3v3.2c0 5.5 4.5 10 10 10h80c5.5 0 10-4.5 10-10V10c0-5.5-4.5-10-10-10zm-10 160h-60V20h60v140z"/><path d="M462 60c5.5 0 10-4.5 10-10s-4.5-10-10-10-10 4.5-10 10 4.5 10 10 10zM186 326c23.7 0 44.7-11.9 57.4-30h36.9c2.7 0 5.2-1.1 7.1-2.9l17.1-17.1h11.7l17.1 17.1c1.9 1.9 4.4 2.9 7.1 2.9H356c2.7 0 5.2-1.1 7.1-2.9l30-30c1.9-1.9 2.9-4.4 2.9-7.1v-30c0-5.5-4.5-10-10-10H243.4c-12.7-18.1-33.7-30-57.4-30-38.6 0-70 31.4-70 70s31.4 70 70 70zm190-90v15.9L351.9 276h-7.4l-17.1-17.1c-1.9-1.9-4.4-2.9-7.1-2.9h-20c-2.7 0-5.2 1.1-7.1 2.9l-17 17.1h-23.1c1.9-6.3 2.9-13.1 2.9-20s-1-13.7-2.9-20H376zm-190-30c27.6 0 50 22.4 50 50s-22.4 50-50 50-50-22.4-50-50 22.4-50 50-50z"/><path d="M166 266c5.5 0 10-4.5 10-10s-4.5-10-10-10-10 4.5-10 10 4.5 10 10 10zM358.6 40.1c5.5 0 10-4.5 10-10s-4.5-10-10-10-10 4.5-10 10 4.5 10 10 10zm58.4 310h-.2l-91.5 25c-1.6-6.5-5.4-12.3-10.8-16.5-6.3-4.9-14.2-7.1-22.1-6.1-5.3.7-19.8 2.8-35 5-14.5 2.1-29.5 4.3-34.7 4.9-11.8 1.5-25.7-4.1-40.4-10-23.3-9.4-51.6-20.8-82.2-7.2V342c0-5.5-4.5-10-10-10H10c-5.5 0-10 4.5-10 10v160c0 5.5 4.5 10 10 10h80c5.5 0 10-4.5 10-10v-10.4l13.3.1h.1c5.5 0 10-4.4 10-9.9s-4.4-10-9.9-10.1l-13.5-.1V367.8c26.2-16.5 49.8-7 74.8 3 16.4 6.6 33.4 13.5 50.4 11.3 5.4-.7 19.8-2.8 35.1-5 14.5-2.1 29.5-4.3 34.6-4.9 2.6-.3 5.2.4 7.4 2.1 2.2 1.7 3.6 4.1 3.9 6.8.2 1.8.8 6.5-11.7 12.3-26.5 12.3-54.8 22.8-77.6 28.9-5.3 1.4-8.5 6.9-7.1 12.2 1.4 5.3 6.9 8.5 12.2 7.1 23.8-6.3 53.3-17.3 80.8-30.1 9.6-4.4 15.5-9.6 18.9-14.8L422 369.4c10.5-2.7 16 1.5 17.5 6.4 1.5 4.7-.3 10.9-7.9 13.8-7.8 3-26.6 11.2-50.3 21.7-31.4 13.8-70.5 31-101.7 43.7-37 15-48.4 17.3-86.3 17.2-5.5 0-10 4.5-10 10s4.4 10 10 10h2.4c38.6 0 52.9-3 91.4-18.6 31.4-12.8 70.7-30 102.2-43.9 22.6-9.9 42.1-18.5 49.4-21.3h.1c18.7-7.3 24-25 19.6-38.6-4.2-13.5-19-25.4-41.4-19.7zM20 492V352h60v140H20z"/><path d="M153.4 471.9c-5.5 0-10 4.5-10 10s4.5 10 10 10 10-4.5 10-10-4.5-10-10-10z"/></symbol></svg>