<?xml version="1.0" encoding="utf-8"?><svg xmlns="http://www.w3.org/2000/svg" xmlns:xlink="http://www.w3.org/1999/xlink"><symbol viewBox="0 0 96.1 96.1" id="facebook__icon" xmlns="http://www.w3.org/2000/svg"><path d="M72.1 0H59.6c-14 0-23.1 9.3-23.1 23.7v10.9H24c-1.1 0-2 .9-2 2v15.8c0 1.1.9 2 2 2h12.5v39.9c0 1.1.9 2 2 2h16.4c1.1 0 2-.9 2-2v-40h14.7c1.1 0 2-.9 2-2V36.5c0-.5-.2-1-.6-1.4s-.9-.6-1.4-.6H56.8v-9.2c0-4.4 1.1-6.7 6.8-6.7H72c1.1 0 2-.9 2-2V2c0-1.1-.8-2-1.9-2z"/></symbol><symbol viewBox="0 0 132.6 240.8" id="icon__arrow" xmlns="http://www.w3.org/2000/svg"><path d="M3.5 129l108.3 108.3c4.8 4.7 12.5 4.7 17.2 0 4.8-4.7 4.8-12.4 0-17.2l-99.7-99.7L129 20.7c4.8-4.7 4.8-12.4 0-17.2-4.8-4.7-12.5-4.7-17.2 0L3.5 111.8c-4.7 4.7-4.7 12.5 0 17.2z"/></symbol><symbol viewBox="0 0 429.6 451.8" id="icon__double-arrow" xmlns="http://www.w3.org/2000/svg"><path class="cst0" d="M248.3 248.3L54 442.6c-12.4 12.4-32.4 12.4-44.8 0-12.4-12.4-12.4-32.4 0-44.7L181.1 226 9.3 54C-3.1 41.7-3.1 21.6 9.3 9.3 21.6-3.1 41.7-3.1 54 9.3l194.3 194.3c6.2 6.2 9.3 14.3 9.3 22.4 0 8-3.1 16.1-9.3 22.3z"/><path class="cst0" d="M420.3 248.3L226 442.6c-12.4 12.4-32.4 12.4-44.8 0-12.4-12.4-12.4-32.4 0-44.7L353.1 226 181.3 54c-12.4-12.4-12.4-32.4 0-44.7 12.4-12.4 32.4-12.4 44.8 0l194.3 194.3c6.2 6.2 9.3 14.3 9.3 22.4-.1 8-3.2 16.1-9.4 22.3z"/></symbol><symbol viewBox="0 0 481 481" id="icon__file-search" xmlns="http://www.w3.org/2000/svg"><path class="dcls-1" d="M255.37 165.12a127.69 127.69 0 00-180.51-8.79c-2.39 2.4-5.59 4.79-8 8l-3.19 5.59 4 4.79.8.8c47.13 51.91 127.79 55.11 179.71 8 2.39-2.4 5.59-4.79 8-8l4-5.59zm-110.22 4.79a16 16 0 1116 16 16 16 0 01-16-16zm5.59-30.35A32.35 32.35 0 00130 179.49a31.77 31.77 0 0020.77 20.77 112.92 112.92 0 01-67.09-30.35c19.14-17.57 42.32-27.91 67.06-30.35zm20.76 60.7a32.36 32.36 0 0020.77-39.94 31.71 31.71 0 00-20.77-20.76 112.89 112.89 0 0167.09 30.35c-19.16 17.57-42.33 27.95-67.09 30.35z"/><path class="dcls-1" d="M161.12 34.13A135.78 135.78 0 10296.9 169.91 135.66 135.66 0 00161.12 34.13zm0 255.58a119.8 119.8 0 11119.81-119.8 119.64 119.64 0 01-119.81 119.8zm271.56 55.91V82.05a39.55 39.55 0 00-39.94-39.93h-87.85v16h87.85a23.54 23.54 0 0124 24v263.5zM33.33 321.66v79.87a39.55 39.55 0 0039.94 39.94h279.54v-16H73.27a23.53 23.53 0 01-24-24v-79.81z"/><path class="dcls-1" d="M344.82 122h55.91v16h-55.91zm0 39.92h55.91v16h-55.91zm0 39.94h55.91v16h-55.91zm0 39.93h55.91v16h-55.91zM65.28 353.61h215.65v16H65.28zm0 31.95h247.59v16H65.28z"/><path class="dcls-1" d="M379.16 336.84a23 23 0 00-16.77-7.19h-5.59L299.3 265C352 188.28 333.64 83.65 257 30.14S74.86-3.41 22.15 72.47s-34.35 181.3 42.33 234.81A167.81 167.81 0 00265 300.89L320.86 364v6.39c0 6.39 2.4 12.78 7.19 16.77l83.06 83.07a36.15 36.15 0 0051.12-51.12zM9.37 169.91a151.75 151.75 0 11151.75 151.75A151.69 151.69 0 019.37 169.91zm267.56 121.4a171.12 171.12 0 0012-12.78l52.71 59.11-12.77 12zm159.74 174.12c-5.59 0-10.38-2.4-14.38-5.6l-83.06-83.06a7.23 7.23 0 01-2.39-5.59v-6.39L356 345.62h6.39A7.24 7.24 0 01368 348l83.07 83.06a20.26 20.26 0 010 28.75c-4.02 3.19-9.61 5.62-14.4 5.62z"/></symbol><symbol viewBox="0 0 512 512" id="icon__hands-heart" xmlns="http://www.w3.org/2000/svg"><path class="ecls-1" d="M138.57 484.85a10 10 0 102.93 7.07 10 10 0 00-2.93-7.07zm-88.9-117.74a10 10 0 00-14.13-.54l-.09.08A10 10 0 0049 381.32l.09-.08a10 10 0 00.58-14.13zm427.72-16.2a42.47 42.47 0 00-55-15.19l-101.25 50.76a10 10 0 009 17.88l101.24-50.76a22.56 22.56 0 0120.92 40l-136.16 74.29a115 115 0 01-55 14h-88.68a10 10 0 100 20h88.72a135.22 135.22 0 0064.55-16.46l136.15-74.32a42.57 42.57 0 0015.51-60.22z"/><path class="ecls-1" d="M282.35 387.71l-41.79-33.11a123.57 123.57 0 00-76.42-26.6H92.5a10 10 0 00-10-10H10a10 10 0 000 20h62.5v154H10a10 10 0 000 20h72.5a10 10 0 0010-10V348h71.64a103.44 103.44 0 0164 22.28l41.79 33.11a17.47 17.47 0 01-20.51 28.24L196 396.17a10 10 0 00-11 16.66l53.39 35.46a37.47 37.47 0 0044-60.58zM502 174h-62.5V20H502a10 10 0 000-20h-72.5a10 10 0 00-10 10v154h-71.64a103.44 103.44 0 01-64-22.28l-41.79-33.11a17.47 17.47 0 0120.51-28.24L316 115.83a10 10 0 0011-16.66l-53.36-35.46a37.47 37.47 0 00-44 60.58l41.79 33.11a123.57 123.57 0 0076.43 26.6h71.64a10 10 0 0010 10H502a10 10 0 000-20z"/><path class="ecls-1" d="M391.07 13a10 10 0 102.93 7.08 10.08 10.08 0 00-2.93-7.08zM341 10.09h-90.18a135.19 135.19 0 00-64.55 16.46L50.12 100.86a42.56 42.56 0 0039.46 75.42l101.28-50.76a10 10 0 00-9-17.88L80.62 158.4a22.56 22.56 0 01-20.92-40l136.16-74.29a115 115 0 0155-14H341a10 10 0 000-20zM481.47 126.9a10 10 0 00-14.12-.62l-.09.08a10 10 0 1013.51 14.74l.08-.08a10 10 0 00.62-14.12zM283.69 198a47.64 47.64 0 00-27.69 9 47.62 47.62 0 00-27.69-9c-26.53 0-48.11 22-48.11 49.1 0 15.8 11.89 33.74 36.36 54.86a321.5 321.5 0 0034.09 25.49 10 10 0 0010.7 0 321.5 321.5 0 0034.09-25.49c24.47-21.12 36.37-39.06 36.37-54.86 0-27.1-21.59-49.1-48.12-49.1zM256 307c-24.78-16.67-55.81-44.06-55.81-59.95 0-16.05 12.62-29.1 28.12-29.1a27.43 27.43 0 0120.34 9 10 10 0 0014.7 0 27.44 27.44 0 0120.34-9c15.51 0 28.12 13 28.12 29.1 0 15.87-31.04 43.28-55.81 59.95z"/></symbol><symbol viewBox="0 0 512 419.48" id="icon__handshake" xmlns="http://www.w3.org/2000/svg"><path class="fcls-1" d="M467.76 41.84a10 10 0 102.92 7.07 10.05 10.05 0 00-2.92-7.07z"/><path class="fcls-1" d="M460.69 55.91a7.11 7.11 0 01-5-2.06 7 7 0 119.92 0 7.1 7.1 0 01-4.92 2.06zM238.07 277.36a10 10 0 102.92 7.07 10.05 10.05 0 00-2.92-7.07z"/><path class="fcls-1" d="M231 291.44a7 7 0 01-7-7 7 7 0 117 7z"/><path class="fcls-1" d="M292.2 419.48a34.46 34.46 0 01-24.53-10.16l-21-21-16.1 16.1a34.68 34.68 0 01-49 0 34.81 34.81 0 01-10.11-25.93l.13-3.25-3.25.13h-1.4a34.65 34.65 0 01-34.69-34.67v-1.4l.13-3.25-3.25.14h-1.38a34.65 34.65 0 01-34.69-34.67v-1.4l.12-3.24-3.24.12h-1.39A34.6 34.6 0 0154 265l-.12-1.59-1.39-.79a7 7 0 01-1.49-1.01l-3.77-3.77A151 151 0 01254.08 37.89l2 1.76 2-1.76A150.51 150.51 0 01357.78.12 151.78 151.78 0 01431.22 19a7 7 0 11-6.79 12.25 136.63 136.63 0 00-66.13-17 138.28 138.28 0 00-97.19 40l-68.86 68.85A26 26 0 00229 159.83l30.16-30.16a6.92 6.92 0 014.95-2h39.4a51.67 51.67 0 0036.78-15.24L360 92.67a7 7 0 019.9 9.9l-19.71 19.71a66.2 66.2 0 01-17.58 12.6l-3.76 1.85 105.7 105.72a34.39 34.39 0 017.85 12.12l1.65 4.33 10.86-10.9A137.32 137.32 0 00477.2 83.46 7 7 0 01483.28 73a7 7 0 016.1 3.54 151.38 151.38 0 01-24.58 181.4l-19.39 19.4a7.11 7.11 0 01-1.89 1.34l-1 .5-.43 1.05A34.66 34.66 0 01410 301.66h-1.4l-3.25-.13.13 3.25a34.65 34.65 0 01-34.63 36.07h-1.41l-3.24-.13.13 3.25A34.62 34.62 0 01331.7 380c-.58 0-1.16 0-1.74-.05l-3.3-.16.16 3.31a34.66 34.66 0 01-34.62 36.43zM223.28 328a34.71 34.71 0 0132.42 47l-.69 1.82 22.57 22.56a20.68 20.68 0 0029.25-29.25l-55.7-55.7a7 7 0 019.9-9.9l12.21 12.21.43.22a6.92 6.92 0 011.79 1.29l41.62 41.63a20.69 20.69 0 0029.26-29.26l-80.79-80.78a7 7 0 019.91-9.9l80.78 80.78a20.68 20.68 0 0029.25-29.25l-80.78-80.78a7 7 0 019.9-9.9l80.78 80.78a20.69 20.69 0 0029.26-29.25L313.21 140.91l-1.45.18a67.69 67.69 0 01-8.27.53H267l-28.11 28.11a40 40 0 01-56.54-56.53l63.74-63.74-2.43-2.11A137 137 0 0054.21 244.91l2.7 2.86 2-3.36a34.87 34.87 0 015.11-6.51l17.28-17.24a34.66 34.66 0 0159.16 25.92l-.13 3.24 3.24-.13h1.41a34.65 34.65 0 0134.63 36.07l-.13 3.25 3.25-.13h1.4A34.46 34.46 0 01208.66 299a34.83 34.83 0 0110.11 25.92l-.13 3.24 3.24-.13c.47-.03.93-.03 1.4-.03zm0 14a20.52 20.52 0 00-14.62 6l-17.24 17.24a20.68 20.68 0 1029.25 29.25l17.24-17.24A20.69 20.69 0 00223.28 342zm-39.15-39.16a20.58 20.58 0 00-14.63 6.06l-17.23 17.24a20.68 20.68 0 0029.25 29.25l17.23-17.23a20.69 20.69 0 00-14.62-35.32zM145 263.66a20.54 20.54 0 00-14.63 6.06L113.11 287a20.69 20.69 0 0029.26 29.25L159.6 299a20.69 20.69 0 00-14.6-35.34zm-39.16-39.15a20.54 20.54 0 00-14.63 6.06L74 247.8a20.69 20.69 0 0029.25 29.26l17.24-17.24a20.69 20.69 0 00-14.63-35.31z"/></symbol><symbol viewBox="0 0 279.9 245" id="icon__heart" xmlns="http://www.w3.org/2000/svg"><path d="M255.4 24.4C213.9-17 172.8 1.1 139.9 30.6 107 1.1 66.3-17.4 24.5 24.4c-32.6 32.6-32.7 84.9 0 117.2 115.1 103.6 115 103.4 115 103.4s.2.3 115.8-103.3c32.8-32.4 32.6-84.7.1-117.3z"/></symbol><symbol viewBox="0 0 496 352" id="icon__tab-icon_commercial" xmlns="http://www.w3.org/2000/svg"><path d="M480 304V80H352V0H144v80H16v224H0v48h496v-48zM384 96h80v208h-16v-64h-48v64h-16v-32h-32V96h16m64 160v48h-16v-48zM160 16h176v224h-56v-80h-64v80h-56zm104 160v64h-32v-64zm-104 80h176v16H160zm208 32v16H128v-16zM32 96h112v176h-16v-.2h-16V304H96v-64H48v64H32zm48 160v48H64v-48zm400 80H16v-16h464z"/><path d="M176 64h56v16h-56zm88 0h56v16h-56zm-88 32h56v16h-56zm88 0h56v16h-56zm-88 32h56v16h-56zm88 0h56v16h-56z"/></symbol><symbol viewBox="0 0 512 512" id="icon__tab-icon_rent" xmlns="http://www.w3.org/2000/svg"><path d="M156.6 298.1c0-18.4-15-33.3-33.3-33.3h-21.8c-5.5 0-10 4.5-10 10v82.4c0 5.5 4.5 10 10 10s10-4.5 10-10v-25.7h5l17.8 30.7c1.9 3.2 5.2 5 8.7 5 1.7 0 3.4-.4 5-1.3 4.8-2.8 6.4-8.9 3.7-13.7l-13.9-24c11-5.4 18.8-16.8 18.8-30.1zm-45.2-13.3h11.8c7.4 0 13.3 6 13.3 13.3 0 7.4-6 13.3-13.3 13.3h-11.8v-26.6zm116 0c5.5 0 10-4.5 10-10s-4.5-10-10-10h-45.2c-5.5 0-10 4.5-10 10v82.4c0 5.5 4.5 10 10 10h45.2c5.5 0 10-4.5 10-10s-4.5-10-10-10h-35.2V326h17.6c5.5 0 10-4.5 10-10s-4.5-10-10-10h-17.6v-21.2h35.2zm82.1-10v49.5l-36.9-55.1c-2.4-3.7-7-5.3-11.2-4-4.2 1.3-7.1 5.2-7.1 9.6v82.4c0 5.5 4.5 10 10 10s10-4.5 10-10v-49.5l36.9 55.1c1.9 2.8 5 4.4 8.3 4.4 1 0 1.9-.1 2.9-.4 4.2-1.3 7.1-5.2 7.1-9.6v-82.4c0-5.5-4.5-10-10-10s-10 4.5-10 10zm111.1 0c0-5.5-4.5-10-10-10h-55.2c-5.5 0-10 4.5-10 10s4.5 10 10 10h15.9v72.4c0 5.5 4.5 10 10 10s10-4.5 10-10v-72.4h19.3c5.5 0 10-4.5 10-10z"/><path d="M482 146h-17.5L290.4 54.6C287.4 38.4 273.1 26 256 26s-31.4 12.4-34.4 28.6L47.5 146H30c-16.5 0-30 13.5-30 30v280c0 16.5 13.5 30 30 30h452c16.5 0 30-13.5 30-30V176c0-16.5-13.5-30-30-30zM256 46c8.3 0 15 6.7 15 15s-6.7 15-15 15-15-6.7-15-15 6.7-15 15-15zm236 410c0 5.5-4.5 10-10 10H30c-5.5 0-10-4.5-10-10V176c0-5.5 4.5-10 10-10h60c5.5 0 10-4.5 10-10 0-5.3-4.2-9.7-9.5-10l133.8-70.2C229.9 87.7 242 96 256 96s26.1-8.3 31.7-20.2L421.4 146H170c-5.5 0-10 4.5-10 10s4.5 10 10 10h312c5.5 0 10 4.5 10 10v280z"/><path d="M462 186H50c-5.5 0-10 4.5-10 10v240c0 5.5 4.5 10 10 10h292c5.5 0 10-4.5 10-10s-4.5-10-10-10H60V206h392v220h-30c-5.5 0-10 4.5-10 10s4.5 10 10 10h40c5.5 0 10-4.5 10-10V196c0-5.5-4.5-10-10-10zm-332-20c5.5 0 10-4.5 10-10s-4.5-10-10-10-10 4.5-10 10 4.5 10 10 10z"/><path d="M382 426c-5.5 0-10 4.5-10 10s4.5 10 10 10 10-4.5 10-10-4.5-10-10-10z"/></symbol><symbol viewBox="0 0 512 512" id="icon__tab-icon_sale" xmlns="http://www.w3.org/2000/svg"><path d="M50 452c-5.5 0-10 4.5-10 10s4.5 10 10 10 10-4.5 10-10-4.5-10-10-10zM502 0h-80c-5.5 0-10 4.5-10 10v10.4l-13.3-.1h-.1c-5.5 0-10 4.4-10 9.9s4.4 10 9.9 10.1l13.5.1v103.8c-26.2 16.5-49.8 7-74.8-3.1-16.4-6.6-33.4-13.5-50.4-11.3-5.4.7-19.8 2.8-35.1 5-14.5 2.1-29.5 4.3-34.6 4.9-2.6.3-5.2-.4-7.4-2.1-2.2-1.7-3.6-4.1-3.9-6.8-.2-1.8-.8-6.5 11.7-12.3 26.5-12.3 54.8-22.8 77.6-28.9 5.3-1.4 8.5-6.9 7.1-12.2-1.4-5.3-6.9-8.5-12.2-7.1-23.8 6.3-53.3 17.3-80.8 30.1-9.6 4.4-15.5 9.6-18.9 14.8L90 142.6c-10.5 2.7-16-1.5-17.5-6.4-1.5-4.7.3-10.9 7.9-13.8 7.8-3 26.6-11.2 50.3-21.7 31.4-13.8 70.5-31 101.7-43.7 37-15 48.3-17.3 86.3-17.2 5.5 0 10-4.5 10-10s-4.4-10-10-10c-40.5-.1-54.5 2.7-93.8 18.6-31.4 12.8-70.7 30-102.2 43.9-22.6 9.9-42.1 18.5-49.4 21.3h-.1c-18.7 7.3-24 25-19.6 38.6 4.3 13.4 19.2 25.3 41.5 19.6h.2l91.5-25c1.6 6.5 5.4 12.3 10.8 16.5 6.3 4.9 14.2 7.1 22.1 6.1 5.3-.7 19.8-2.8 35-5 14.5-2.1 29.5-4.3 34.7-4.9 11.8-1.5 25.7 4.1 40.4 10 15.6 6.3 33.4 13.4 52.6 13.4 9.5 0 19.5-1.8 29.6-6.3v3.2c0 5.5 4.5 10 10 10h80c5.5 0 10-4.5 10-10V10c0-5.5-4.5-10-10-10zm-10 160h-60V20h60v140z"/><path d="M462 60c5.5 0 10-4.5 10-10s-4.5-10-10-10-10 4.5-10 10 4.5 10 10 10zM186 326c23.7 0 44.7-11.9 57.4-30h36.9c2.7 0 5.2-1.1 7.1-2.9l17.1-17.1h11.7l17.1 17.1c1.9 1.9 4.4 2.9 7.1 2.9H356c2.7 0 5.2-1.1 7.1-2.9l30-30c1.9-1.9 2.9-4.4 2.9-7.1v-30c0-5.5-4.5-10-10-10H243.4c-12.7-18.1-33.7-30-57.4-30-38.6 0-70 31.4-70 70s31.4 70 70 70zm190-90v15.9L351.9 276h-7.4l-17.1-17.1c-1.9-1.9-4.4-2.9-7.1-2.9h-20c-2.7 0-5.2 1.1-7.1 2.9l-17 17.1h-23.1c1.9-6.3 2.9-13.1 2.9-20s-1-13.7-2.9-20H376zm-190-30c27.6 0 50 22.4 50 50s-22.4 50-50 50-50-22.4-50-50 22.4-50 50-50z"/><path d="M166 266c5.5 0 10-4.5 10-10s-4.5-10-10-10-10 4.5-10 10 4.5 10 10 10zM358.6 40.1c5.5 0 10-4.5 10-10s-4.5-10-10-10-10 4.5-10 10 4.5 10 10 10zm58.4 310h-.2l-91.5 25c-1.6-6.5-5.4-12.3-10.8-16.5-6.3-4.9-14.2-7.1-22.1-6.1-5.3.7-19.8 2.8-35 5-14.5 2.1-29.5 4.3-34.7 4.9-11.8 1.5-25.7-4.1-40.4-10-23.3-9.4-51.6-20.8-82.2-7.2V342c0-5.5-4.5-10-10-10H10c-5.5 0-10 4.5-10 10v160c0 5.5 4.5 10 10 10h80c5.5 0 10-4.5 10-10v-10.4l13.3.1h.1c5.5 0 10-4.4 10-9.9s-4.4-10-9.9-10.1l-13.5-.1V367.8c26.2-16.5 49.8-7 74.8 3 16.4 6.6 33.4 13.5 50.4 11.3 5.4-.7 19.8-2.8 35.1-5 14.5-2.1 29.5-4.3 34.6-4.9 2.6-.3 5.2.4 7.4 2.1 2.2 1.7 3.6 4.1 3.9 6.8.2 1.8.8 6.5-11.7 12.3-26.5 12.3-54.8 22.8-77.6 28.9-5.3 1.4-8.5 6.9-7.1 12.2 1.4 5.3 6.9 8.5 12.2 7.1 23.8-6.3 53.3-17.3 80.8-30.1 9.6-4.4 15.5-9.6 18.9-14.8L422 369.4c10.5-2.7 16 1.5 17.5 6.4 1.5 4.7-.3 10.9-7.9 13.8-7.8 3-26.6 11.2-50.3 21.7-31.4 13.8-70.5 31-101.7 43.7-37 15-48.4 17.3-86.3 17.2-5.5 0-10 4.5-10 10s4.4 10 10 10h2.4c38.6 0 52.9-3 91.4-18.6 31.4-12.8 70.7-30 102.2-43.9 22.6-9.9 42.1-18.5 49.4-21.3h.1c18.7-7.3 24-25 19.6-38.6-4.2-13.5-19-25.4-41.4-19.7zM20 492V352h60v140H20z"/><path d="M153.4 471.9c-5.5 0-10 4.5-10 10s4.5 10 10 10 10-4.5 10-10-4.5-10-10-10z"/></symbol><symbol viewBox="0 0 189.5 189.5" id="icon__telegram" xmlns="http://www.w3.org/2000/svg"><path d="M152.5 179.5c-1.5 0-2.9-.4-4.2-1.3l-47.6-32.3-25.6 18.4c-2 1.4-4.6 1.8-6.9 1-2.3-.8-4.1-2.8-4.7-5.1l-12.8-48.6L4.8 93.9C1.9 92.8 0 90.1 0 87c0-3.1 1.9-5.9 4.7-7L179 10.6c.8-.3 1.6-.5 2.5-.6h.9c1.7.1 3.5.8 4.8 2.1l.4.4c1.1 1.3 1.7 2.8 1.8 4.4v1.2c0 .3-.1.6-.1.9l-29.4 154.4c-.5 2.5-2.2 4.6-4.5 5.5-.9.4-1.9.6-2.9.6zm-47.6-48.9l42.4 28.8 22.9-120.1-82.7 79.6 17.2 11.6s.1 0 .2.1zm-35.4-6.4l5.7 21.5 12.2-8.8-16-10.9c-.7-.5-1.4-1.1-1.9-1.8zM28.1 86.8l31.5 12c2.3.9 4 2.8 4.6 5.1l4 15.1c.2-1.7 1-3.4 2.3-4.6l78.8-75.8L28.1 86.8z"/></symbol><symbol viewBox="0 0 512 512" id="icon__user-analytics" xmlns="http://www.w3.org/2000/svg"><path class="lcls-1" d="M120 8v82.36a55.93 55.93 0 00-50.43 97.71A88.15 88.15 0 008 272v56a32 32 0 0032 32h8v112a31.86 31.86 0 0056 20.94A31.86 31.86 0 00160 472V274.12a40.11 40.11 0 011.3-10.12H504V8zM64 144a40 40 0 1140 40 40 40 0 01-40-40zm47.72 117l-7.72 7.69-7.72-7.69 5.08-61h5.28zM144 274.12V472a16 16 0 01-32 0V328H96v144a16 16 0 01-32 0V256H48v88h-8a16 16 0 01-16-16v-56a72 72 0 0161.23-71.1L79.71 267 104 291.31 128.28 267l-5.59-67h23.72a55.92 55.92 0 0029.35-8.31l87.92-54.11A10.72 10.72 0 01280 146.7v3.12a10.71 10.71 0 01-4.89 9L169.58 227.1a55.78 55.78 0 00-25.58 47zM232 136a80.09 80.09 0 0172-79.59v82.9l58.59 58.59a79.85 79.85 0 01-108.32-6.55l29.53-19.1a26.63 26.63 0 0012.2-22.43v-3.12a26.71 26.71 0 00-40.7-22.7l-23.2 14.27c0-.74-.1-1.49-.1-2.23zm141.9 50.59L331.31 144h60.28a79.56 79.56 0 01-17.69 42.59zM320 128V56.41A80.12 80.12 0 01391.59 128zm168 120H169.76a40.06 40.06 0 018.5-7.47l62.46-40.42A95.86 95.86 0 10216 136a96.76 96.76 0 00.79 11.66l-49.41 30.4a39.92 39.92 0 01-21 5.94h-3.3A55.86 55.86 0 00136 98.11V24h352z"/><path class="lcls-1" d="M447.8 382a56 56 0 10-63.6 0 88.38 88.38 0 00-48.2 45.55A88.35 88.35 0 00287.8 382a56 56 0 10-63.6 0 88.07 88.07 0 00-56.2 82v40h336v-40a88.07 88.07 0 00-56.2-82zM376 336a40 40 0 1140 40 40 40 0 01-40-40zm-160 0a40 40 0 1140 40 40 40 0 01-40-40zm112 152h-24v-64h-16v64h-64v-64h-16v64h-24v-24a72 72 0 01144 0zm160 0h-24v-64h-16v64h-64v-64h-16v64h-24v-24a72 72 0 01144 0zM424 40h48v16h-48zm0 32h48v16h-48zm0 32h48v16h-48zm0 32h48v16h-48z"/></symbol><symbol viewBox="0 0 479.55 480" id="icon__user-shield" xmlns="http://www.w3.org/2000/svg"><path class="mcls-1" d="M336 176a72.07 72.07 0 0072-72V72a72 72 0 00-144 0v32a72.07 72.07 0 0072 72zM280 72a56 56 0 01112 0v32a56 56 0 01-112 0zm128 120H304v16h2.58l13.28 33.18L304 415.27a8 8 0 002.31 6.4l24 24a8 8 0 0011.31 0l24-24a8 8 0 002.32-6.4l-15.8-174.09L365.42 208H408a56.07 56.07 0 0156 56v200h-40V264h-16v200H264v-32h-16v32h-48v16h272a8 8 0 008-8V264a72.07 72.07 0 00-72-72zm-59.82 16l-9.6 24h-5.16l-9.6-24zM336 428.69L320.3 413l15-165h1.4l15 165z"/><path class="mcls-1" d="M98.6 454.58l41.34 24.32a8 8 0 008.12 0l41.34-24.32a200.82 200.82 0 0098.6-172.4V192a8 8 0 00-8-8 209.35 209.35 0 01-124.8-41.6l-6.4-4.8a8 8 0 00-9.6 0l-6.4 4.8A209.28 209.28 0 018 184a8 8 0 00-8 8v90.18a200.82 200.82 0 0098.6 172.4zM16 199.85a225.45 225.45 0 00126.4-44.65l1.6-1.2 1.6 1.19A225.45 225.45 0 00272 199.85v82.33a184.75 184.75 0 01-90.7 158.62L144 462.72l-37.3-21.92A184.75 184.75 0 0116 282.18z"/><path class="mcls-1" d="M114.82 427l25.12 14.79a8.07 8.07 0 008.12 0L173.18 427A168.67 168.67 0 00256 282.18v-60.29a8 8 0 00-7-7.93 242.63 242.63 0 01-100.66-37.29 8 8 0 00-8.76 0A242.91 242.91 0 0139 214a8 8 0 00-7 7.93v60.29A168.65 168.65 0 00114.82 427zM48 228.8a259 259 0 0096-36 259 259 0 0096 36v53.38a152.57 152.57 0 01-74.94 131L144 425.6l-21.07-12.4A152.56 152.56 0 0148 282.18z"/><path class="mcls-1" d="M136 216h16v16h-16zm-72 24h16v16H64zm0 56h16v16H64zm144-56h16v16h-16zm0 56h16v16h-16zM88 344h16v16H88zm96 0h16v16h-16zm-48 40h16v16h-16z"/></symbol><symbol viewBox="0 0 227 227" id="icon__viber" xmlns="http://www.w3.org/2000/svg"><path class="nst0" d="M199.6 25.4c-18-17.6-47-26.1-86.3-25.4-39.6.8-66 7.8-83.3 21.9-16.6 13.7-24.4 33.7-24.4 63v29.9c0 34.6 18.5 72.6 54 78.4 4.1.7 7.9-2.1 8.6-6.2.7-4.1-2.1-7.9-6.2-8.6-26.9-4.4-41.4-36-41.4-63.6V84.9c0-42 15.6-68.3 93-69.9 35.1-.7 60.5 6.4 75.4 21.1 11.7 11.4 17.3 27.4 17.3 48.8v29.9c0 45.3-20.3 65.2-72.4 71.1H97c-2 0-3.9.8-5.3 2.2l-26 26c-2.9 2.9-2.9 7.7 0 10.6 1.5 1.5 3.4 2.2 5.3 2.2s3.8-.7 5.3-2.2l23.8-23.8h35.1c29.8-3.3 50.3-11.1 64.3-24.4 14.7-14 21.9-34.2 21.9-61.6v-30c0-25.3-7.4-45.3-21.8-59.5z"/><path class="nst0" d="M118.2 49c12.1 0 23.4 4.7 32 13.3 8.5 8.5 13.3 19.9 13.3 32 0 4.1 3.4 7.5 7.5 7.5s7.5-3.4 7.5-7.5c0-16.1-6.3-31.2-17.6-42.6C149.4 40.3 134.3 34 118.2 34c-4.1 0-7.5 3.4-7.5 7.5s3.3 7.5 7.5 7.5z"/><path class="nst0" d="M118.2 75.4c10.4 0 18.9 8.5 18.9 18.9 0 4.1 3.4 7.5 7.5 7.5s7.5-3.4 7.5-7.5c0-18.7-15.2-33.9-33.9-33.9-4.1 0-7.5 3.4-7.5 7.5s3.3 7.5 7.5 7.5zM84.5 88.2c-3.4 2.3-4.3 7-2 10.4s7 4.3 10.4 2c2.7-1.8 9-6.1 8.5-14.8-.3-5.2-4.9-12.5-8.8-17.8-5.6-7.7-10.5-12.3-14.4-13.8-3.7-1.4-7.5-1.4-11.4-.1-8 2.7-13.9 7.6-16.9 14.2-2.9 6.4-2.9 13.7.2 21.2 7.2 17.7 17.3 33.2 30.1 46.1 12.8 12.7 28.3 22.8 46 30 3.8 1.6 7.6 2.3 11.3 2.3 3.5 0 6.8-.7 10-2.1 6.6-3 11.5-8.9 14.2-16.9 1.3-3.9 1.3-7.7-.1-11.3-1.4-3.9-6.1-8.8-13.8-14.4-5.3-3.8-12.6-8.5-17.8-8.8-8.6-.4-12.9 5.9-14.7 8.5-2.3 3.4-1.5 8.1 2 10.4 3.4 2.3 8.1 1.5 10.4-2 .8-1.2 1.3-1.7 1.5-2 4.2 1.3 16.2 10.2 18.4 13.5.1.2.1.5-.1 1.1-.9 2.8-2.8 6.5-6.2 8.1-3.2 1.5-6.8.6-9.3-.4-15.8-6.5-29.7-15.5-41.1-26.7C79.7 113.6 70.7 99.8 64.2 84c-1-2.5-1.9-6.1-.4-9.3 1.6-3.4 5.2-5.3 8-6.2.6-.2.9-.2 1.2-.1 3.4 2.2 12.2 14.2 13.5 18.4-.2.1-.8.6-2 1.4z"/></symbol><symbol viewBox="0 0 220.3 220.3" id="icon__whatsApp" xmlns="http://www.w3.org/2000/svg"><path class="ost0" d="M110.1 0C50.6 0 2.2 48.4 2.2 107.9c0 23.3 9.5 44.2 13.5 52.1 1.9 3.7 6.4 5.1 10.1 3.2 3.7-1.9 5.1-6.4 3.2-10.1-3.6-6.9-11.9-25.2-11.9-45.3 0-51.2 41.7-92.9 92.9-92.9 51.3 0 93 41.7 93 92.9 0 51.3-41.7 92.9-93 92.9-20 0-36-6.9-41.9-9.9-1.8-.9-3.8-1-5.7-.4l-47.2 15.1c-3.9 1.3-6.1 5.5-4.9 9.4 1 3.2 4 5.2 7.1 5.2.8 0 1.5-.1 2.3-.4l44.4-14.2c9.3 4.3 25.6 10.2 45.8 10.2 59.5 0 108-48.4 108-107.9C218.1 48.4 169.7 0 110.1 0z"/><path class="ost0" d="M88.8 89.5c-3.3 2.5-3.9 7.2-1.4 10.5s7.2 3.9 10.5 1.4c2.3-1.8 8.4-6.5 7.5-14.8-.6-5-5.4-11.8-9.4-16.7-5.8-7.1-10.8-11.3-14.6-12.5-3.6-1.1-7.4-.9-11.1.5-7.6 3.1-13 8.1-15.6 14.6-2.5 6.3-2 13.4 1.3 20.5 7.8 16.5 18.3 30.8 31.1 42.4.1 0 .1.1.2.1 13 11.5 28.4 20.3 45.7 26.3 3.3 1.1 6.5 1.7 9.6 1.7 3.9 0 7.6-.9 10.9-2.7 6.2-3.3 10.6-9.2 12.8-17.1 1.1-3.8.8-7.6-.7-11-1.6-3.7-6.4-8.2-14.1-13.2-5.3-3.4-12.6-7.5-17.6-7.5-8.4 0-12.4 6.6-13.9 9.1-2.1 3.5-1 8.2 2.5 10.3 3.5 2.1 8.2 1 10.3-2.5.6-1 1-1.5 1.2-1.8 4.2 1.2 15.6 8.6 17.9 11.8 0 .2 0 .4-.1.9-.7 2.7-2.3 6.2-5.3 7.8-2.9 1.5-6.3.9-8.7.1-15.4-5.3-29.1-13.1-40.5-23.3-11.4-10.3-20.7-23-27.7-37.8-1.1-2.3-2.1-5.6-.9-8.6 1.3-3.2 4.6-5.2 7.2-6.2.4-.2.7-.2.9-.2 3.4 2 12 12.4 13.7 16.5-.3.3-.7.7-1.7 1.4z"/></symbol><symbol viewBox="0 0 97.4 97.4" id="instagram__icon" xmlns="http://www.w3.org/2000/svg"><path d="M12.5 0h72.4c6.9 0 12.5 5.1 12.5 12.5v72.4c0 7.4-5.6 12.5-12.5 12.5H12.5C5.6 97.4 0 92.3 0 84.9V12.5C0 5.1 5.6 0 12.5 0zm58.4 10.8c-2.4 0-4.4 2-4.4 4.4v10.5c0 2.4 2 4.4 4.4 4.4h11c2.4 0 4.4-2 4.4-4.4V15.2c0-2.4-2-4.4-4.4-4.4h-11zm15.5 30.4h-8.6c.8 2.6 1.3 5.5 1.3 8.4 0 16.2-13.6 29.3-30.3 29.3-16.7 0-30.3-13.1-30.3-29.3 0-2.9.4-5.7 1.3-8.4h-8.9v41.1c0 2.1 1.7 3.9 3.9 3.9h67.8c2.1 0 3.9-1.7 3.9-3.9l-.1-41.1zM48.8 29.5c-10.8 0-19.6 8.5-19.6 19s8.8 19 19.6 19 19.6-8.5 19.6-19-8.8-19-19.6-19z"/></symbol><symbol viewBox="0 0 373.01 373.01" id="play__icon" xmlns="http://www.w3.org/2000/svg"><path d="M61.79 2.59a19.29 19.29 0 0119.31 0l230.11 167.2a19.29 19.29 0 010 33.43L81.1 370.43a19.31 19.31 0 01-29-16.73V19.31a19.31 19.31 0 019.69-16.72z" data-name="Layer 8"/></symbol><symbol viewBox="0 0 496 424" id="service-icon__building-size" xmlns="http://www.w3.org/2000/svg"><path class="rst0" d="M488 376c-4.4 0-8 3.6-8 8v8H72v-8c0-4.4-3.6-8-8-8s-8 3.6-8 8v32c0 4.4 3.6 8 8 8s8-3.6 8-8v-8h408v8c0 4.4 3.6 8 8 8s8-3.6 8-8v-32c0-4.4-3.6-8-8-8zM40 16c4.4 0 8-3.6 8-8s-3.6-8-8-8H8C3.6 0 0 3.6 0 8s3.6 8 8 8h8v336H8c-4.4 0-8 3.6-8 8s3.6 8 8 8h32c4.4 0 8-3.6 8-8s-3.6-8-8-8h-8V16h8zm448 152h-16V8c0-4.4-3.6-8-8-8H112c-4.4 0-8 3.6-8 8v40c0 4.4 3.6 8 8 8h24v72h-24c-4.4 0-8 3.6-8 8v32H64c-4.4 0-8 3.6-8 8v184c0 4.4 3.6 8 8 8h424c4.4 0 8-3.6 8-8V176c0-4.4-3.6-8-8-8zM152 56h264v72H152V56zm-32 88h304c4.4 0 8-3.6 8-8V48c0-4.4-3.6-8-8-8H120V16h336v152H120v-24zm24 200V240h64v104h-64zm336 8H224V232c0-4.4-3.6-8-8-8h-80c-4.4 0-8 3.6-8 8v120H72V184h408v168z"/><path class="rst0" d="M320 224h-56c-4.4 0-8 3.6-8 8v56c0 4.4 3.6 8 8 8h56c4.4 0 8-3.6 8-8v-56c0-4.4-3.6-8-8-8zm-8 56h-40v-40h40v40zm96-56h-56c-4.4 0-8 3.6-8 8v56c0 4.4 3.6 8 8 8h56c4.4 0 8-3.6 8-8v-56c0-4.4-3.6-8-8-8zm-8 56h-40v-40h40v40zM232 64h-64c-4.4 0-8 3.6-8 8s3.6 8 8 8h64c4.4 0 8-3.6 8-8s-3.6-8-8-8zm32 0h-8c-4.4 0-8 3.6-8 8s3.6 8 8 8h8c4.4 0 8-3.6 8-8s-3.6-8-8-8z"/></symbol><symbol viewBox="0 0 512 512" id="service-icon__partnership" xmlns="http://www.w3.org/2000/svg"><path class="sst0" d="M155.4 334.2c9.1 0 17.7-3.5 24.1-10 4.4-4.4 7.2-9.8 8.7-15.4l17.9 17.9c6.4 6.5 15 10 24.1 10 9.1 0 17.7-3.5 24.1-10 6.5-6.4 10-15 10-24.1 0-9.1-3.5-17.7-10-24.1L239 263c5.8-1.5 11.1-4.4 15.4-8.7 6.5-6.5 10-15 10-24.1 0-9.1-3.5-17.7-10-24.1L233 184.6c5.8-1.5 11.1-4.4 15.4-8.7 6.5-6.4 10-15 10-24.1s-3.6-17.7-10-24.1L187.9 67V8.5c0-4.7-3.8-8.5-8.5-8.5s-8.5 3.8-8.5 8.5v45.4c-12.4-4.8-27.4-2.4-37.1 7.3-10.6 10.6-12.6 26.4-6.3 39.2-6.6 1.2-12.9 4.2-17.8 9.1-10.5 10.5-12.6 26.2-6.5 38.9-6.6 1.3-12.8 4.5-17.7 9.4C75 168.3 72.9 184 79 196.7c-6.7 1.3-12.8 4.5-17.7 9.4-6.5 6.4-10 15-10 24.1 0 9.1 3.5 17.7 10 24.1l69.9 69.9c6.5 6.4 15 10 24.2 10zm-9.6-260.9c3.2-3.2 7.5-5 12.1-5s8.8 1.8 12.1 5l3.4 3.4 63 63c3.2 3.2 5 7.5 5 12.1s-1.8 8.8-5 12.1c-6.5 6.4-17.7 6.4-24.1 0l-66.4-66.4c-6.8-6.8-6.8-17.6-.1-24.2zm-24.1 48.2c3.2-3.2 7.5-5 12.1-5s8.8 1.8 12.1 5l96.5 96.5c3.2 3.2 5 7.5 5 12.1s-1.8 8.8-5 12.1c-6.4 6.4-17.7 6.4-24.1 0l-37.5-37.5-46.9-46.9-12.1-12c-6.8-6.8-6.8-17.6-.1-24.3zm-24.2 48.3c3.2-3.2 7.5-5 12.1-5 4.5 0 8.8 1.8 12 5l46.9 46.9 73.7 73.8c3.2 3.2 5 7.5 5 12.1s-1.8 8.8-5 12.1c-6.4 6.4-17.7 6.4-24.1 0L179.4 276l-35-35-47-47c-6.5-6.7-6.5-17.5.1-24.2zm-29.1 60.3c0-4.6 1.8-8.8 5-12.1 3.2-3.2 7.5-5 12.1-5s8.8 1.8 12.1 5l4.9 4.9 65 65c6.6 6.7 6.6 17.5 0 24.1-6.4 6.4-17.7 6.5-24.1 0l-69.9-69.9c-3.3-3.1-5.1-7.4-5.1-12zm358.1-16.8c0 4.7 3.8 8.5 8.5 8.5s8.5-3.8 8.5-8.5c0-61.7-25.7-98-41.1-119.7-4.5-6.3-10.1-14.2-10.1-16.8V8.5c0-4.7-3.8-8.5-8.5-8.5s-8.5 3.8-8.5 8.5v68.3c0 8 5.5 15.8 13.2 26.7 15.2 21.3 38 53.6 38 109.8zM179.3 477.9c-4.7 0-8.5 3.8-8.5 8.5v17.1c0 4.7 3.8 8.5 8.5 8.5s8.5-3.8 8.5-8.5v-17.1c.1-4.7-3.8-8.5-8.5-8.5z"/><path class="sst0" d="M405.7 223.3c-20.1-13.4-83.1-49.9-86.2-51.7-5.7-2.8-12-2.4-17.8 1.1-12.5 7.7-20.1 28.9-20.1 40.6 0 16.4 11.5 26.4 23.7 36.9 4.2 3.7 8.6 7.4 12.9 11.8l42.7 42.7c2.8 2.8 5.5 5.5 5.9 6.3.2.5.2 2.3.2 4.1-2 5.4-17.8 23.4-31.3 37l-94.1 85.6c-2.5 2.4-7.7 6.1-11.1 6.1h-76.8c-9.4 0-17.1-7.7-17.1-17.1s7.7-17.1 17.1-17.1h59.7c11.7 0 22-9.9 23.1-11l59.7-59.7c3.3-3.3 3.3-8.7 0-12.1-3.3-3.3-8.7-3.3-12.1 0l-59.7 59.7c-2.5 2.4-7.7 6.1-11.1 6.1H128c-9.4 0-17.1-7.7-17.1-17.1 0-9.4 7.7-17.1 17.1-17.1h68.3c4.7 0 8.5-3.8 8.5-8.5s-3.8-8.5-8.5-8.5h-93.9c-9.4 0-17.1-7.7-17.1-17.1 0-4.2 1.5-8.3 4.3-11.4 3.1-3.5 2.8-8.9-.7-12.1-3.5-3.1-8.9-2.8-12 .7-5.6 6.3-8.7 14.3-8.7 22.8 0 17.6 13.4 31.9 30.5 33.8-3.1 5.1-4.9 11-4.9 17.4 0 17.6 13.4 31.9 30.5 33.8-3.1 5.1-4.9 11-4.9 17.4 0 18.8 15.3 34.1 34.1 34.1h76.8c11.7 0 22-9.9 22.8-10.8l94.2-85.6c36.6-36.6 36.6-45.7 36.6-48.7 0-11.3-1.4-13.5-11-23.1L330.2 250c-4.8-4.8-9.6-9-13.8-12.6-11.7-10.1-17.8-15.8-17.8-24 0-10.8 9.2-26.5 12.8-26.8.6.4 65.2 37.8 84.9 50.9 22.1 14.7 47.4 37.9 47.4 86.8 0 36.6-28.8 86.3-47.9 119.1-13.6 23.5-20.2 35.1-20.2 43v17.1c0 4.7 3.8 8.5 8.5 8.5s8.5-3.8 8.5-8.5v-17c.4-4.3 9.7-20.4 17.9-34.5 21.2-36.5 50.2-86.5 50.2-127.7 0-57.7-31.4-85.3-55-101z"/></symbol><symbol viewBox="0 0 475 496" id="service-icon__workon" xmlns="http://www.w3.org/2000/svg"><path d="M130.24 227.85a7.66 7.66 0 11-7.66-7.66 7.66 7.66 0 017.66 7.66zm76.61 0a7.66 7.66 0 11-7.66-7.66 7.66 7.66 0 017.66 7.66zm-15.32 53.63h-15.32a15.33 15.33 0 11-30.65 0h-15.32a30.65 30.65 0 1061.29 0z"/><path d="M251.07 112.94a66 66 0 00-6.63-8 105.06 105.06 0 00-148.18.47l-8.17 8.17A55.45 55.45 0 0046 167.32v83.52a38.23 38.23 0 0033.79 37.85 84.52 84.52 0 0035.16 48v15.87l-78.24 26.1A53.53 53.53 0 000 429.53V496h321.77v-66.47a53.54 53.54 0 00-36.66-50.87l-78.26-26.09v-9.8h252.83A15.33 15.33 0 00475 327.45v-15.32a15.33 15.33 0 00-15.32-15.32V174.23h-61.29v-61.29h-15.33m15.33 183.87v-76.62h46v76.62zm-61.29 0h-30.65v-61.29h30.65zm-46-76.62v76.62h-51.79q1.55-4 2.7-8.12a38.23 38.23 0 0033.8-37.85v-46h91.93v-61.26h-98.5a103.7 103.7 0 00-7-15.32h120.82v168.55h-30.64v-76.62zm-46 9.08a22.84 22.84 0 01-.32 43.24c.16-2.1.32-4.21.32-6.35zm107.32-70.37v30.65h-30.65V158.9zm-46 30.65h-30.61v-9.75a105.15 105.15 0 00-2.1-20.9h32.74zm30.65-76.61h-15.3m-15.32 0h-15.32m153.22 76.61v15.32h-46v-15.32zm-168.54-76.61h-15.33m107.26 0h-15.32M61.29 250.84a23 23 0 0115.32-21.57v36.89c0 2.14.16 4.25.32 6.35a22.94 22.94 0 01-15.64-21.67zm15.32-71.09v33.56a38 38 0 00-15.32 7.07v-53.06a40.11 40.11 0 0132.15-39.22l2.27-.46 11.39-11.38a89.85 89.85 0 01153.38 63.54v40.59a38 38 0 00-15.32-7.08v-33.55l-9.51 2.36c-.3.07-30.41 7.43-74.76 7.43s-74.46-7.36-74.76-7.44zm15.33 86.41V199a385.32 385.32 0 0068.95 5.91 385.42 385.42 0 0069-5.91v67.2a68.95 68.95 0 01-137.9 0zm68.95 84.28a83.69 83.69 0 0030.64-5.86v10.34l-30.64 30.65-30.65-30.65v-10.34a83.78 83.78 0 0030.65 5.86zM152.05 450h17.67l5.11 30.65h-27.89zm20.06-15.32h-22.45l-8.13-12.2 19.36-16.13 19.36 16.13zm-51.6-67.85l29 29-30.9 25.75-16.21-48.68zm-105.19 62.7a38.26 38.26 0 0126.2-36.34l46.34-15.44 23.34 70 18.5-15.41 7.82 11.73-6.11 36.58H15.32zm291.13 0v51.15H190.36l-6.1-36.58 7.82-11.73 18.5 15.41 23.34-70 46.35 15.44a38.28 38.28 0 0126.18 36.31zm-87.07-56.63l-16.24 48.74-30.9-25.75 29-29zm240.3-45.45H218.55a84.68 84.68 0 0012.87-15.32h228.26zM308.92 56.28l-21.2 13.79a5.74 5.74 0 001.94 10.43l44 9.33a5.74 5.74 0 006.8-4.43l9.32-44a5.74 5.74 0 00-8.75-6L318.6 50a128.74 128.74 0 00-188.11-13.18 5.75 5.75 0 107.84 8.4 117.24 117.24 0 01170.59 11.06zm-3.32 15.86l15-9.73.15-.09 15-9.74-5.27 24.85z"/></symbol><symbol viewBox="0 0 209.6 150.2" id="title-figure" xmlns="http://www.w3.org/2000/svg"><path d="M0 91.6C0 53.2 36.4 0 109.1 0c79.5 0 129.5 81.7 82.1 109.1-45.9 26.6-86.3 43.3-124.3 40.8S0 132.4 0 91.6z"/></symbol><symbol viewBox="0 0 512 512" id="vk__icon" xmlns="http://www.w3.org/2000/svg"><path d="M250.5 400.8h30.6s9.2-1 14-6.1c4.4-4.7 4.2-13.4 4.2-13.4s-.6-41.1 18.5-47.1c18.8-6 42.9 39.7 68.5 57.2 19.3 13.3 34 10.4 34 10.4l68.4-1s35.8-2.2 18.8-30.3c-1.4-2.3-9.9-20.8-50.8-58.8-42.9-39.8-37.1-33.3 14.5-102.2 31.5-41.9 44-67.5 40.1-78.5-3.7-10.4-26.9-7.7-26.9-7.7l-76.9.4s-5.7-.8-10 1.8c-4.1 2.5-6.8 8.3-6.8 8.3s-12.2 32.4-28.4 60c-34.3 58.2-48 61.3-53.6 57.7-13-8.4-9.8-33.9-9.8-51.9 0-56.4 8.5-79.9-16.7-86-8.4-2-14.5-3.4-35.9-3.6-27.5-.3-50.7.1-63.9 6.5-8.8 4.3-15.5 13.9-11.4 14.4 5.1.7 16.6 3.1 22.7 11.4 7.9 10.7 7.6 34.8 7.6 34.8s4.5 66.4-10.6 74.7c-10.4 5.7-24.6-5.9-55.2-58.7-15.6-27-27.5-57-27.5-57s-2.3-5.6-6.3-8.5c-4.9-3.6-11.8-4.8-11.8-4.8l-73.2.4s-11 .3-15 5.1c-3.6 4.3-.3 13-.3 13s57.3 134 122.1 201.5c59.5 62.1 127 58 127 58z"/></symbol><symbol viewBox="0 0 511.6 511.6" id="youtube__icon" xmlns="http://www.w3.org/2000/svg"><path d="M511.3 213c-.2-10.3-1-23.3-2.4-39s-3.5-29.7-6.1-42.1c-3-13.9-9.7-25.6-19.8-35.1-10.2-9.5-22-15-35.5-16.6-42.3-4.8-106.1-7.1-191.6-7.1s-149.3 2.4-191.6 7.1c-13.5 1.5-25.3 7-35.4 16.6-10.1 9.5-16.7 21.2-19.7 35.1-2.9 12.4-5 26.4-6.4 42.1C1.4 189.7.6 202.7.4 213c-.3 10.3-.4 24.5-.4 42.8 0 18.3.1 32.6.3 42.8.2 10.3 1 23.3 2.4 39s3.5 29.7 6.1 42.1c3 13.9 9.7 25.6 19.8 35.1 10.2 9.5 22 15 35.5 16.6 42.3 4.8 106.1 7.1 191.6 7.1s149.3-2.4 191.6-7.1c13.5-1.5 25.3-7 35.4-16.6 10.1-9.5 16.7-21.2 19.7-35.1 2.9-12.4 5-26.4 6.4-42.1 1.4-15.7 2.2-28.7 2.4-39 .2-10.3.3-24.6.3-42.8.1-18.3 0-32.5-.2-42.8zm-154.4 58.2l-146.2 91.4c-2.7 1.9-5.9 2.9-9.7 2.9-2.9 0-5.8-.8-8.8-2.3-6.3-3.4-9.4-8.8-9.4-16V164.5c0-7.2 3.1-12.6 9.4-16 6.5-3.4 12.7-3.2 18.6.6L357 240.5c5.7 3.2 8.6 8.4 8.6 15.4-.2 7-3 12.1-8.7 15.3z"/></symbol></svg>