<?xml version="1.0" encoding="utf-8"?><svg xmlns="http://www.w3.org/2000/svg" xmlns:xlink="http://www.w3.org/1999/xlink"><symbol viewBox="0 0 96.1 96.1" id="facebook__icon" xmlns="http://www.w3.org/2000/svg"><path d="M72.1 0H59.6c-14 0-23.1 9.3-23.1 23.7v10.9H24c-1.1 0-2 .9-2 2v15.8c0 1.1.9 2 2 2h12.5v39.9c0 1.1.9 2 2 2h16.4c1.1 0 2-.9 2-2v-40h14.7c1.1 0 2-.9 2-2V36.5c0-.5-.2-1-.6-1.4s-.9-.6-1.4-.6H56.8v-9.2c0-4.4 1.1-6.7 6.8-6.7H72c1.1 0 2-.9 2-2V2c0-1.1-.8-2-1.9-2z"/></symbol><symbol viewBox="0 0 132.6 240.8" id="icon__arrow" xmlns="http://www.w3.org/2000/svg"><path d="M3.5 129l108.3 108.3c4.8 4.7 12.5 4.7 17.2 0 4.8-4.7 4.8-12.4 0-17.2l-99.7-99.7L129 20.7c4.8-4.7 4.8-12.4 0-17.2-4.8-4.7-12.5-4.7-17.2 0L3.5 111.8c-4.7 4.7-4.7 12.5 0 17.2z"/></symbol><symbol viewBox="0 0 279.9 245" id="icon__heart" xmlns="http://www.w3.org/2000/svg"><path d="M255.4 24.4C213.9-17 172.8 1.1 139.9 30.6 107 1.1 66.3-17.4 24.5 24.4c-32.6 32.6-32.7 84.9 0 117.2 115.1 103.6 115 103.4 115 103.4s.2.3 115.8-103.3c32.8-32.4 32.6-84.7.1-117.3z"/></symbol><symbol viewBox="0 0 512 512" id="icon__tab-icon_rent" xmlns="http://www.w3.org/2000/svg"><path d="M156.6 298.1c0-18.4-15-33.3-33.3-33.3h-21.8c-5.5 0-10 4.5-10 10v82.4c0 5.5 4.5 10 10 10s10-4.5 10-10v-25.7h5l17.8 30.7c1.9 3.2 5.2 5 8.7 5 1.7 0 3.4-.4 5-1.3 4.8-2.8 6.4-8.9 3.7-13.7l-13.9-24c11-5.4 18.8-16.8 18.8-30.1zm-45.2-13.3h11.8c7.4 0 13.3 6 13.3 13.3 0 7.4-6 13.3-13.3 13.3h-11.8v-26.6zm116 0c5.5 0 10-4.5 10-10s-4.5-10-10-10h-45.2c-5.5 0-10 4.5-10 10v82.4c0 5.5 4.5 10 10 10h45.2c5.5 0 10-4.5 10-10s-4.5-10-10-10h-35.2V326h17.6c5.5 0 10-4.5 10-10s-4.5-10-10-10h-17.6v-21.2h35.2zm82.1-10v49.5l-36.9-55.1c-2.4-3.7-7-5.3-11.2-4-4.2 1.3-7.1 5.2-7.1 9.6v82.4c0 5.5 4.5 10 10 10s10-4.5 10-10v-49.5l36.9 55.1c1.9 2.8 5 4.4 8.3 4.4 1 0 1.9-.1 2.9-.4 4.2-1.3 7.1-5.2 7.1-9.6v-82.4c0-5.5-4.5-10-10-10s-10 4.5-10 10zm111.1 0c0-5.5-4.5-10-10-10h-55.2c-5.5 0-10 4.5-10 10s4.5 10 10 10h15.9v72.4c0 5.5 4.5 10 10 10s10-4.5 10-10v-72.4h19.3c5.5 0 10-4.5 10-10z"/><path d="M482 146h-17.5L290.4 54.6C287.4 38.4 273.1 26 256 26s-31.4 12.4-34.4 28.6L47.5 146H30c-16.5 0-30 13.5-30 30v280c0 16.5 13.5 30 30 30h452c16.5 0 30-13.5 30-30V176c0-16.5-13.5-30-30-30zM256 46c8.3 0 15 6.7 15 15s-6.7 15-15 15-15-6.7-15-15 6.7-15 15-15zm236 410c0 5.5-4.5 10-10 10H30c-5.5 0-10-4.5-10-10V176c0-5.5 4.5-10 10-10h60c5.5 0 10-4.5 10-10 0-5.3-4.2-9.7-9.5-10l133.8-70.2C229.9 87.7 242 96 256 96s26.1-8.3 31.7-20.2L421.4 146H170c-5.5 0-10 4.5-10 10s4.5 10 10 10h312c5.5 0 10 4.5 10 10v280z"/><path d="M462 186H50c-5.5 0-10 4.5-10 10v240c0 5.5 4.5 10 10 10h292c5.5 0 10-4.5 10-10s-4.5-10-10-10H60V206h392v220h-30c-5.5 0-10 4.5-10 10s4.5 10 10 10h40c5.5 0 10-4.5 10-10V196c0-5.5-4.5-10-10-10zm-332-20c5.5 0 10-4.5 10-10s-4.5-10-10-10-10 4.5-10 10 4.5 10 10 10z"/><path d="M382 426c-5.5 0-10 4.5-10 10s4.5 10 10 10 10-4.5 10-10-4.5-10-10-10z"/></symbol><symbol viewBox="0 0 512 512" id="icon__tab-icon_sale" xmlns="http://www.w3.org/2000/svg"><path d="M50 452c-5.5 0-10 4.5-10 10s4.5 10 10 10 10-4.5 10-10-4.5-10-10-10zM502 0h-80c-5.5 0-10 4.5-10 10v10.4l-13.3-.1h-.1c-5.5 0-10 4.4-10 9.9s4.4 10 9.9 10.1l13.5.1v103.8c-26.2 16.5-49.8 7-74.8-3.1-16.4-6.6-33.4-13.5-50.4-11.3-5.4.7-19.8 2.8-35.1 5-14.5 2.1-29.5 4.3-34.6 4.9-2.6.3-5.2-.4-7.4-2.1-2.2-1.7-3.6-4.1-3.9-6.8-.2-1.8-.8-6.5 11.7-12.3 26.5-12.3 54.8-22.8 77.6-28.9 5.3-1.4 8.5-6.9 7.1-12.2-1.4-5.3-6.9-8.5-12.2-7.1-23.8 6.3-53.3 17.3-80.8 30.1-9.6 4.4-15.5 9.6-18.9 14.8L90 142.6c-10.5 2.7-16-1.5-17.5-6.4-1.5-4.7.3-10.9 7.9-13.8 7.8-3 26.6-11.2 50.3-21.7 31.4-13.8 70.5-31 101.7-43.7 37-15 48.3-17.3 86.3-17.2 5.5 0 10-4.5 10-10s-4.4-10-10-10c-40.5-.1-54.5 2.7-93.8 18.6-31.4 12.8-70.7 30-102.2 43.9-22.6 9.9-42.1 18.5-49.4 21.3h-.1c-18.7 7.3-24 25-19.6 38.6 4.3 13.4 19.2 25.3 41.5 19.6h.2l91.5-25c1.6 6.5 5.4 12.3 10.8 16.5 6.3 4.9 14.2 7.1 22.1 6.1 5.3-.7 19.8-2.8 35-5 14.5-2.1 29.5-4.3 34.7-4.9 11.8-1.5 25.7 4.1 40.4 10 15.6 6.3 33.4 13.4 52.6 13.4 9.5 0 19.5-1.8 29.6-6.3v3.2c0 5.5 4.5 10 10 10h80c5.5 0 10-4.5 10-10V10c0-5.5-4.5-10-10-10zm-10 160h-60V20h60v140z"/><path d="M462 60c5.5 0 10-4.5 10-10s-4.5-10-10-10-10 4.5-10 10 4.5 10 10 10zM186 326c23.7 0 44.7-11.9 57.4-30h36.9c2.7 0 5.2-1.1 7.1-2.9l17.1-17.1h11.7l17.1 17.1c1.9 1.9 4.4 2.9 7.1 2.9H356c2.7 0 5.2-1.1 7.1-2.9l30-30c1.9-1.9 2.9-4.4 2.9-7.1v-30c0-5.5-4.5-10-10-10H243.4c-12.7-18.1-33.7-30-57.4-30-38.6 0-70 31.4-70 70s31.4 70 70 70zm190-90v15.9L351.9 276h-7.4l-17.1-17.1c-1.9-1.9-4.4-2.9-7.1-2.9h-20c-2.7 0-5.2 1.1-7.1 2.9l-17 17.1h-23.1c1.9-6.3 2.9-13.1 2.9-20s-1-13.7-2.9-20H376zm-190-30c27.6 0 50 22.4 50 50s-22.4 50-50 50-50-22.4-50-50 22.4-50 50-50z"/><path d="M166 266c5.5 0 10-4.5 10-10s-4.5-10-10-10-10 4.5-10 10 4.5 10 10 10zM358.6 40.1c5.5 0 10-4.5 10-10s-4.5-10-10-10-10 4.5-10 10 4.5 10 10 10zm58.4 310h-.2l-91.5 25c-1.6-6.5-5.4-12.3-10.8-16.5-6.3-4.9-14.2-7.1-22.1-6.1-5.3.7-19.8 2.8-35 5-14.5 2.1-29.5 4.3-34.7 4.9-11.8 1.5-25.7-4.1-40.4-10-23.3-9.4-51.6-20.8-82.2-7.2V342c0-5.5-4.5-10-10-10H10c-5.5 0-10 4.5-10 10v160c0 5.5 4.5 10 10 10h80c5.5 0 10-4.5 10-10v-10.4l13.3.1h.1c5.5 0 10-4.4 10-9.9s-4.4-10-9.9-10.1l-13.5-.1V367.8c26.2-16.5 49.8-7 74.8 3 16.4 6.6 33.4 13.5 50.4 11.3 5.4-.7 19.8-2.8 35.1-5 14.5-2.1 29.5-4.3 34.6-4.9 2.6-.3 5.2.4 7.4 2.1 2.2 1.7 3.6 4.1 3.9 6.8.2 1.8.8 6.5-11.7 12.3-26.5 12.3-54.8 22.8-77.6 28.9-5.3 1.4-8.5 6.9-7.1 12.2 1.4 5.3 6.9 8.5 12.2 7.1 23.8-6.3 53.3-17.3 80.8-30.1 9.6-4.4 15.5-9.6 18.9-14.8L422 369.4c10.5-2.7 16 1.5 17.5 6.4 1.5 4.7-.3 10.9-7.9 13.8-7.8 3-26.6 11.2-50.3 21.7-31.4 13.8-70.5 31-101.7 43.7-37 15-48.4 17.3-86.3 17.2-5.5 0-10 4.5-10 10s4.4 10 10 10h2.4c38.6 0 52.9-3 91.4-18.6 31.4-12.8 70.7-30 102.2-43.9 22.6-9.9 42.1-18.5 49.4-21.3h.1c18.7-7.3 24-25 19.6-38.6-4.2-13.5-19-25.4-41.4-19.7zM20 492V352h60v140H20z"/><path d="M153.4 471.9c-5.5 0-10 4.5-10 10s4.5 10 10 10 10-4.5 10-10-4.5-10-10-10z"/></symbol><symbol viewBox="0 0 97.4 97.4" id="instagram__icon" xmlns="http://www.w3.org/2000/svg"><path d="M12.5 0h72.4c6.9 0 12.5 5.1 12.5 12.5v72.4c0 7.4-5.6 12.5-12.5 12.5H12.5C5.6 97.4 0 92.3 0 84.9V12.5C0 5.1 5.6 0 12.5 0zm58.4 10.8c-2.4 0-4.4 2-4.4 4.4v10.5c0 2.4 2 4.4 4.4 4.4h11c2.4 0 4.4-2 4.4-4.4V15.2c0-2.4-2-4.4-4.4-4.4h-11zm15.5 30.4h-8.6c.8 2.6 1.3 5.5 1.3 8.4 0 16.2-13.6 29.3-30.3 29.3-16.7 0-30.3-13.1-30.3-29.3 0-2.9.4-5.7 1.3-8.4h-8.9v41.1c0 2.1 1.7 3.9 3.9 3.9h67.8c2.1 0 3.9-1.7 3.9-3.9l-.1-41.1zM48.8 29.5c-10.8 0-19.6 8.5-19.6 19s8.8 19 19.6 19 19.6-8.5 19.6-19-8.8-19-19.6-19z"/></symbol><symbol viewBox="0 0 496 424" id="service-icon__building-size" xmlns="http://www.w3.org/2000/svg"><path class="gst0" d="M488 376c-4.4 0-8 3.6-8 8v8H72v-8c0-4.4-3.6-8-8-8s-8 3.6-8 8v32c0 4.4 3.6 8 8 8s8-3.6 8-8v-8h408v8c0 4.4 3.6 8 8 8s8-3.6 8-8v-32c0-4.4-3.6-8-8-8zM40 16c4.4 0 8-3.6 8-8s-3.6-8-8-8H8C3.6 0 0 3.6 0 8s3.6 8 8 8h8v336H8c-4.4 0-8 3.6-8 8s3.6 8 8 8h32c4.4 0 8-3.6 8-8s-3.6-8-8-8h-8V16h8zm448 152h-16V8c0-4.4-3.6-8-8-8H112c-4.4 0-8 3.6-8 8v40c0 4.4 3.6 8 8 8h24v72h-24c-4.4 0-8 3.6-8 8v32H64c-4.4 0-8 3.6-8 8v184c0 4.4 3.6 8 8 8h424c4.4 0 8-3.6 8-8V176c0-4.4-3.6-8-8-8zM152 56h264v72H152V56zm-32 88h304c4.4 0 8-3.6 8-8V48c0-4.4-3.6-8-8-8H120V16h336v152H120v-24zm24 200V240h64v104h-64zm336 8H224V232c0-4.4-3.6-8-8-8h-80c-4.4 0-8 3.6-8 8v120H72V184h408v168z"/><path class="gst0" d="M320 224h-56c-4.4 0-8 3.6-8 8v56c0 4.4 3.6 8 8 8h56c4.4 0 8-3.6 8-8v-56c0-4.4-3.6-8-8-8zm-8 56h-40v-40h40v40zm96-56h-56c-4.4 0-8 3.6-8 8v56c0 4.4 3.6 8 8 8h56c4.4 0 8-3.6 8-8v-56c0-4.4-3.6-8-8-8zm-8 56h-40v-40h40v40zM232 64h-64c-4.4 0-8 3.6-8 8s3.6 8 8 8h64c4.4 0 8-3.6 8-8s-3.6-8-8-8zm32 0h-8c-4.4 0-8 3.6-8 8s3.6 8 8 8h8c4.4 0 8-3.6 8-8s-3.6-8-8-8z"/></symbol><symbol viewBox="0 0 512 512" id="service-icon__partnership" xmlns="http://www.w3.org/2000/svg"><path class="hst0" d="M155.4 334.2c9.1 0 17.7-3.5 24.1-10 4.4-4.4 7.2-9.8 8.7-15.4l17.9 17.9c6.4 6.5 15 10 24.1 10 9.1 0 17.7-3.5 24.1-10 6.5-6.4 10-15 10-24.1 0-9.1-3.5-17.7-10-24.1L239 263c5.8-1.5 11.1-4.4 15.4-8.7 6.5-6.5 10-15 10-24.1 0-9.1-3.5-17.7-10-24.1L233 184.6c5.8-1.5 11.1-4.4 15.4-8.7 6.5-6.4 10-15 10-24.1s-3.6-17.7-10-24.1L187.9 67V8.5c0-4.7-3.8-8.5-8.5-8.5s-8.5 3.8-8.5 8.5v45.4c-12.4-4.8-27.4-2.4-37.1 7.3-10.6 10.6-12.6 26.4-6.3 39.2-6.6 1.2-12.9 4.2-17.8 9.1-10.5 10.5-12.6 26.2-6.5 38.9-6.6 1.3-12.8 4.5-17.7 9.4C75 168.3 72.9 184 79 196.7c-6.7 1.3-12.8 4.5-17.7 9.4-6.5 6.4-10 15-10 24.1 0 9.1 3.5 17.7 10 24.1l69.9 69.9c6.5 6.4 15 10 24.2 10zm-9.6-260.9c3.2-3.2 7.5-5 12.1-5s8.8 1.8 12.1 5l3.4 3.4 63 63c3.2 3.2 5 7.5 5 12.1s-1.8 8.8-5 12.1c-6.5 6.4-17.7 6.4-24.1 0l-66.4-66.4c-6.8-6.8-6.8-17.6-.1-24.2zm-24.1 48.2c3.2-3.2 7.5-5 12.1-5s8.8 1.8 12.1 5l96.5 96.5c3.2 3.2 5 7.5 5 12.1s-1.8 8.8-5 12.1c-6.4 6.4-17.7 6.4-24.1 0l-37.5-37.5-46.9-46.9-12.1-12c-6.8-6.8-6.8-17.6-.1-24.3zm-24.2 48.3c3.2-3.2 7.5-5 12.1-5 4.5 0 8.8 1.8 12 5l46.9 46.9 73.7 73.8c3.2 3.2 5 7.5 5 12.1s-1.8 8.8-5 12.1c-6.4 6.4-17.7 6.4-24.1 0L179.4 276l-35-35-47-47c-6.5-6.7-6.5-17.5.1-24.2zm-29.1 60.3c0-4.6 1.8-8.8 5-12.1 3.2-3.2 7.5-5 12.1-5s8.8 1.8 12.1 5l4.9 4.9 65 65c6.6 6.7 6.6 17.5 0 24.1-6.4 6.4-17.7 6.5-24.1 0l-69.9-69.9c-3.3-3.1-5.1-7.4-5.1-12zm358.1-16.8c0 4.7 3.8 8.5 8.5 8.5s8.5-3.8 8.5-8.5c0-61.7-25.7-98-41.1-119.7-4.5-6.3-10.1-14.2-10.1-16.8V8.5c0-4.7-3.8-8.5-8.5-8.5s-8.5 3.8-8.5 8.5v68.3c0 8 5.5 15.8 13.2 26.7 15.2 21.3 38 53.6 38 109.8zM179.3 477.9c-4.7 0-8.5 3.8-8.5 8.5v17.1c0 4.7 3.8 8.5 8.5 8.5s8.5-3.8 8.5-8.5v-17.1c.1-4.7-3.8-8.5-8.5-8.5z"/><path class="hst0" d="M405.7 223.3c-20.1-13.4-83.1-49.9-86.2-51.7-5.7-2.8-12-2.4-17.8 1.1-12.5 7.7-20.1 28.9-20.1 40.6 0 16.4 11.5 26.4 23.7 36.9 4.2 3.7 8.6 7.4 12.9 11.8l42.7 42.7c2.8 2.8 5.5 5.5 5.9 6.3.2.5.2 2.3.2 4.1-2 5.4-17.8 23.4-31.3 37l-94.1 85.6c-2.5 2.4-7.7 6.1-11.1 6.1h-76.8c-9.4 0-17.1-7.7-17.1-17.1s7.7-17.1 17.1-17.1h59.7c11.7 0 22-9.9 23.1-11l59.7-59.7c3.3-3.3 3.3-8.7 0-12.1-3.3-3.3-8.7-3.3-12.1 0l-59.7 59.7c-2.5 2.4-7.7 6.1-11.1 6.1H128c-9.4 0-17.1-7.7-17.1-17.1 0-9.4 7.7-17.1 17.1-17.1h68.3c4.7 0 8.5-3.8 8.5-8.5s-3.8-8.5-8.5-8.5h-93.9c-9.4 0-17.1-7.7-17.1-17.1 0-4.2 1.5-8.3 4.3-11.4 3.1-3.5 2.8-8.9-.7-12.1-3.5-3.1-8.9-2.8-12 .7-5.6 6.3-8.7 14.3-8.7 22.8 0 17.6 13.4 31.9 30.5 33.8-3.1 5.1-4.9 11-4.9 17.4 0 17.6 13.4 31.9 30.5 33.8-3.1 5.1-4.9 11-4.9 17.4 0 18.8 15.3 34.1 34.1 34.1h76.8c11.7 0 22-9.9 22.8-10.8l94.2-85.6c36.6-36.6 36.6-45.7 36.6-48.7 0-11.3-1.4-13.5-11-23.1L330.2 250c-4.8-4.8-9.6-9-13.8-12.6-11.7-10.1-17.8-15.8-17.8-24 0-10.8 9.2-26.5 12.8-26.8.6.4 65.2 37.8 84.9 50.9 22.1 14.7 47.4 37.9 47.4 86.8 0 36.6-28.8 86.3-47.9 119.1-13.6 23.5-20.2 35.1-20.2 43v17.1c0 4.7 3.8 8.5 8.5 8.5s8.5-3.8 8.5-8.5v-17c.4-4.3 9.7-20.4 17.9-34.5 21.2-36.5 50.2-86.5 50.2-127.7 0-57.7-31.4-85.3-55-101z"/></symbol><symbol viewBox="0 0 475 496" id="service-icon__workon" xmlns="http://www.w3.org/2000/svg"><path d="M130.24 227.85a7.66 7.66 0 11-7.66-7.66 7.66 7.66 0 017.66 7.66zm76.61 0a7.66 7.66 0 11-7.66-7.66 7.66 7.66 0 017.66 7.66zm-15.32 53.63h-15.32a15.33 15.33 0 11-30.65 0h-15.32a30.65 30.65 0 1061.29 0z"/><path d="M251.07 112.94a66 66 0 00-6.63-8 105.06 105.06 0 00-148.18.47l-8.17 8.17A55.45 55.45 0 0046 167.32v83.52a38.23 38.23 0 0033.79 37.85 84.52 84.52 0 0035.16 48v15.87l-78.24 26.1A53.53 53.53 0 000 429.53V496h321.77v-66.47a53.54 53.54 0 00-36.66-50.87l-78.26-26.09v-9.8h252.83A15.33 15.33 0 00475 327.45v-15.32a15.33 15.33 0 00-15.32-15.32V174.23h-61.29v-61.29h-15.33m15.33 183.87v-76.62h46v76.62zm-61.29 0h-30.65v-61.29h30.65zm-46-76.62v76.62h-51.79q1.55-4 2.7-8.12a38.23 38.23 0 0033.8-37.85v-46h91.93v-61.26h-98.5a103.7 103.7 0 00-7-15.32h120.82v168.55h-30.64v-76.62zm-46 9.08a22.84 22.84 0 01-.32 43.24c.16-2.1.32-4.21.32-6.35zm107.32-70.37v30.65h-30.65V158.9zm-46 30.65h-30.61v-9.75a105.15 105.15 0 00-2.1-20.9h32.74zm30.65-76.61h-15.3m-15.32 0h-15.32m153.22 76.61v15.32h-46v-15.32zm-168.54-76.61h-15.33m107.26 0h-15.32M61.29 250.84a23 23 0 0115.32-21.57v36.89c0 2.14.16 4.25.32 6.35a22.94 22.94 0 01-15.64-21.67zm15.32-71.09v33.56a38 38 0 00-15.32 7.07v-53.06a40.11 40.11 0 0132.15-39.22l2.27-.46 11.39-11.38a89.85 89.85 0 01153.38 63.54v40.59a38 38 0 00-15.32-7.08v-33.55l-9.51 2.36c-.3.07-30.41 7.43-74.76 7.43s-74.46-7.36-74.76-7.44zm15.33 86.41V199a385.32 385.32 0 0068.95 5.91 385.42 385.42 0 0069-5.91v67.2a68.95 68.95 0 01-137.9 0zm68.95 84.28a83.69 83.69 0 0030.64-5.86v10.34l-30.64 30.65-30.65-30.65v-10.34a83.78 83.78 0 0030.65 5.86zM152.05 450h17.67l5.11 30.65h-27.89zm20.06-15.32h-22.45l-8.13-12.2 19.36-16.13 19.36 16.13zm-51.6-67.85l29 29-30.9 25.75-16.21-48.68zm-105.19 62.7a38.26 38.26 0 0126.2-36.34l46.34-15.44 23.34 70 18.5-15.41 7.82 11.73-6.11 36.58H15.32zm291.13 0v51.15H190.36l-6.1-36.58 7.82-11.73 18.5 15.41 23.34-70 46.35 15.44a38.28 38.28 0 0126.18 36.31zm-87.07-56.63l-16.24 48.74-30.9-25.75 29-29zm240.3-45.45H218.55a84.68 84.68 0 0012.87-15.32h228.26zM308.92 56.28l-21.2 13.79a5.74 5.74 0 001.94 10.43l44 9.33a5.74 5.74 0 006.8-4.43l9.32-44a5.74 5.74 0 00-8.75-6L318.6 50a128.74 128.74 0 00-188.11-13.18 5.75 5.75 0 107.84 8.4 117.24 117.24 0 01170.59 11.06zm-3.32 15.86l15-9.73.15-.09 15-9.74-5.27 24.85z"/></symbol><symbol viewBox="0 0 209.6 150.2" id="title-figure" xmlns="http://www.w3.org/2000/svg"><path d="M0 91.6C0 53.2 36.4 0 109.1 0c79.5 0 129.5 81.7 82.1 109.1-45.9 26.6-86.3 43.3-124.3 40.8S0 132.4 0 91.6z"/></symbol><symbol viewBox="0 0 512 512" id="vk__icon" xmlns="http://www.w3.org/2000/svg"><path d="M250.5 400.8h30.6s9.2-1 14-6.1c4.4-4.7 4.2-13.4 4.2-13.4s-.6-41.1 18.5-47.1c18.8-6 42.9 39.7 68.5 57.2 19.3 13.3 34 10.4 34 10.4l68.4-1s35.8-2.2 18.8-30.3c-1.4-2.3-9.9-20.8-50.8-58.8-42.9-39.8-37.1-33.3 14.5-102.2 31.5-41.9 44-67.5 40.1-78.5-3.7-10.4-26.9-7.7-26.9-7.7l-76.9.4s-5.7-.8-10 1.8c-4.1 2.5-6.8 8.3-6.8 8.3s-12.2 32.4-28.4 60c-34.3 58.2-48 61.3-53.6 57.7-13-8.4-9.8-33.9-9.8-51.9 0-56.4 8.5-79.9-16.7-86-8.4-2-14.5-3.4-35.9-3.6-27.5-.3-50.7.1-63.9 6.5-8.8 4.3-15.5 13.9-11.4 14.4 5.1.7 16.6 3.1 22.7 11.4 7.9 10.7 7.6 34.8 7.6 34.8s4.5 66.4-10.6 74.7c-10.4 5.7-24.6-5.9-55.2-58.7-15.6-27-27.5-57-27.5-57s-2.3-5.6-6.3-8.5c-4.9-3.6-11.8-4.8-11.8-4.8l-73.2.4s-11 .3-15 5.1c-3.6 4.3-.3 13-.3 13s57.3 134 122.1 201.5c59.5 62.1 127 58 127 58z"/></symbol><symbol viewBox="0 0 511.6 511.6" id="youtube__icon" xmlns="http://www.w3.org/2000/svg"><path d="M511.3 213c-.2-10.3-1-23.3-2.4-39s-3.5-29.7-6.1-42.1c-3-13.9-9.7-25.6-19.8-35.1-10.2-9.5-22-15-35.5-16.6-42.3-4.8-106.1-7.1-191.6-7.1s-149.3 2.4-191.6 7.1c-13.5 1.5-25.3 7-35.4 16.6-10.1 9.5-16.7 21.2-19.7 35.1-2.9 12.4-5 26.4-6.4 42.1C1.4 189.7.6 202.7.4 213c-.3 10.3-.4 24.5-.4 42.8 0 18.3.1 32.6.3 42.8.2 10.3 1 23.3 2.4 39s3.5 29.7 6.1 42.1c3 13.9 9.7 25.6 19.8 35.1 10.2 9.5 22 15 35.5 16.6 42.3 4.8 106.1 7.1 191.6 7.1s149.3-2.4 191.6-7.1c13.5-1.5 25.3-7 35.4-16.6 10.1-9.5 16.7-21.2 19.7-35.1 2.9-12.4 5-26.4 6.4-42.1 1.4-15.7 2.2-28.7 2.4-39 .2-10.3.3-24.6.3-42.8.1-18.3 0-32.5-.2-42.8zm-154.4 58.2l-146.2 91.4c-2.7 1.9-5.9 2.9-9.7 2.9-2.9 0-5.8-.8-8.8-2.3-6.3-3.4-9.4-8.8-9.4-16V164.5c0-7.2 3.1-12.6 9.4-16 6.5-3.4 12.7-3.2 18.6.6L357 240.5c5.7 3.2 8.6 8.4 8.6 15.4-.2 7-3 12.1-8.7 15.3z"/></symbol></svg>