<?xml version="1.0" encoding="utf-8"?>
<!-- Generator: Adobe Illustrator 23.0.3, SVG Export Plug-In . SVG Version: 6.00 Build 0)  -->
<svg version="1.1" id="Capa_1" xmlns="http://www.w3.org/2000/svg" xmlns:xlink="http://www.w3.org/1999/xlink" x="0px" y="0px"
	 viewBox="0 0 674.7 678.1" style="enable-background:new 0 0 674.7 678.1;" xml:space="preserve">
<style type="text/css">
	.st0{fill:#0691e0;}
</style>
<rect x="28.2" y="543.9" class="st0" width="632.2" height="45.3"/>
<path class="st0" d="M127.4,419.4c-36.8,0-58.8-8.8-67.2-26.9c-3.5-7.4-5.3-18.8,3.4-32.5L1.8,283.3l79.4-37l97.1,37l77.9-37
	L104.2,92l129.2-5.5L409,174.8l99.1-46.2c27.5-12.8,53.9-19.3,78.4-19.3c21.9,0,42.2,5.3,60.1,15.7c24.7,14.4,27.7,32.4,27.2,41.8
	c-1,21-18.6,39.3-53.9,55.7l-368.9,172c-25,11.7-64.8,21.1-101.3,24C141.7,419.1,134.2,419.4,127.4,419.4L127.4,419.4
	C127.4,419.4,127.4,419.4,127.4,419.4z M113.1,373.3c3.9,0.4,8.7,0.7,14.7,0.7c6.5,0,13.6-0.3,21.2-1c30.6-2.7,63.1-10.4,82.7-19.6
	l368.9-172c15.1-7,22.3-12.5,25.5-15.6c-0.7-0.5-1.5-1-2.5-1.6c-11.1-6.4-23.7-9.7-37.6-9.7c-17.4,0-37.3,5.1-58.9,15.2l-119,55.5
	l-184.7-92.9l-15.3,0.7l125.2,126.9l-153.1,72.7l-97.3-37l-9.6,4.5l51.1,63.4L113.1,373.3z"/>
</svg>
