<svg xmlns="http://www.w3.org/2000/svg" viewBox="0 0 674.7 678.1"><path d="M28.2 543.9h632.2v45.3H28.2zm99.2-124.5c-36.8 0-58.8-8.8-67.2-26.9-3.5-7.4-5.3-18.8 3.4-32.5L1.8 283.3l79.4-37 97.1 37 77.9-37L104.2 92l129.2-5.5L409 174.8l99.1-46.2c27.5-12.8 53.9-19.3 78.4-19.3 21.9 0 42.2 5.3 60.1 15.7 24.7 14.4 27.7 32.4 27.2 41.8-1 21-18.6 39.3-53.9 55.7L251 394.5c-25 11.7-64.8 21.1-101.3 24-8 .6-15.5.9-22.3.9zm-14.3-46.1c3.9.4 8.7.7 14.7.7 6.5 0 13.6-.3 21.2-1 30.6-2.7 63.1-10.4 82.7-19.6l368.9-172c15.1-7 22.3-12.5 25.5-15.6-.7-.5-1.5-1-2.5-1.6-11.1-6.4-23.7-9.7-37.6-9.7-17.4 0-37.3 5.1-58.9 15.2l-119 55.5-184.7-92.9-15.3.7 125.2 126.9-153.1 72.7-97.3-37-9.6 4.5 51.1 63.4-11.3 9.8z" fill="#0691e0"/></svg>