<?xml version="1.0" encoding="utf-8"?>
<!-- Generator: Adobe Illustrator 23.0.3, SVG Export Plug-In . SVG Version: 6.00 Build 0)  -->
<svg version="1.1" id="Capa_1" xmlns="http://www.w3.org/2000/svg" xmlns:xlink="http://www.w3.org/1999/xlink" x="0px" y="0px"
	 viewBox="0 0 674.7 678.1" style="enable-background:new 0 0 674.7 678.1;" xml:space="preserve">
<style type="text/css">
	.st0{fill:#0691e0;}
</style>
<g>
	<g>
		<path class="st0" d="M277,114.2c-19.7,0-35.7,16-35.7,35.7v40l-180-180c-25.1,5.6-44.8,25.1-50.8,50l180.4,180.4h-31.6
			c-19.7,0-35.7,16-35.7,35.7s15.9,35.7,35.7,35.7h153.4V149.8C312.6,130.1,296.7,114.2,277,114.2z"/>
		<path class="st0" d="M115.2,398.5c0,19.7,16,35.7,35.7,35.7h40L9.9,615.1c5.4,25.2,24.8,45,49.7,51.2l181.7-181.6v31.6
			c0,19.7,16,35.7,35.7,35.7c19.7,0,35.7-16,35.7-35.7V362.9H150.9C131.2,362.9,115.2,378.8,115.2,398.5z"/>
		<path class="st0" d="M481.5,434.2h31.6c19.7,0,35.7-16,35.7-35.7c0-19.7-16-35.7-35.7-35.7H359.8v161.8
			c0,19.7,15.9,35.7,35.7,35.7c19.7,0,35.7-16,35.7-35.7v-40l182.6,182.6c25.4-4.7,45.6-23.8,52.4-48.5L481.5,434.2z"/>
		<path class="st0" d="M557.2,275.9c0-19.7-16-35.7-35.7-35.7h-40l184.1-184c-7.4-24.5-28.1-43-53.9-47L431.1,189.8v-31.6
			c0-19.7-16-35.7-35.7-35.7c-19.7,0-35.7,16-35.7,35.7v153.4h161.8C541.2,311.6,557.2,295.6,557.2,275.9z"/>
	</g>
</g>
</svg>
