<svg xmlns="http://www.w3.org/2000/svg" viewBox="0 0 674.7 678.1"><path d="M277 114.2c-19.7 0-35.7 16-35.7 35.7v40l-180-180c-25.1 5.6-44.8 25.1-50.8 50l180.4 180.4h-31.6c-19.7 0-35.7 16-35.7 35.7s15.9 35.7 35.7 35.7h153.4V149.8c-.1-19.7-16-35.6-35.7-35.6zM115.2 398.5c0 19.7 16 35.7 35.7 35.7h40L9.9 615.1c5.4 25.2 24.8 45 49.7 51.2l181.7-181.6v31.6c0 19.7 16 35.7 35.7 35.7 19.7 0 35.7-16 35.7-35.7V362.9H150.9c-19.7 0-35.7 15.9-35.7 35.6zm366.3 35.7h31.6c19.7 0 35.7-16 35.7-35.7 0-19.7-16-35.7-35.7-35.7H359.8v161.8c0 19.7 15.9 35.7 35.7 35.7 19.7 0 35.7-16 35.7-35.7v-40l182.6 182.6c25.4-4.7 45.6-23.8 52.4-48.5L481.5 434.2zm75.7-158.3c0-19.7-16-35.7-35.7-35.7h-40l184.1-184c-7.4-24.5-28.1-43-53.9-47L431.1 189.8v-31.6c0-19.7-16-35.7-35.7-35.7-19.7 0-35.7 16-35.7 35.7v153.4h161.8c19.7 0 35.7-16 35.7-35.7z" fill="#0691e0"/></svg>