<?xml version="1.0" encoding="utf-8"?>
<!-- Generator: Adobe Illustrator 23.0.3, SVG Export Plug-In . SVG Version: 6.00 Build 0)  -->
<svg version="1.1" id="Layer_1" xmlns="http://www.w3.org/2000/svg" xmlns:xlink="http://www.w3.org/1999/xlink" x="0px" y="0px"
	 viewBox="0 0 496 496" style="enable-background:new 0 0 496 496;" xml:space="preserve">
<style type="text/css">
	.st0{fill:#0C1937;}
</style>
<path class="st0" d="M144,96h-16v88h-16v-64H96v64H80v-40H64v40H48v16h112v-16h-16V96z"/>
<path class="st0" d="M472,328c13.2,0,24-10.8,24-24V180.8c0-15.8-11.8-29.4-27.5-31.7l-28.5-4.1v-13.4c9.8-8.8,16-21.5,16-35.7V80
	c0-26.5-21.5-48-48-48s-48,21.5-48,48v16c0,14.2,6.2,26.9,16,35.7v13.4l-44.8,6.4L303.6,120h0.4V80h16V32h-84.7l-32-32h-86.6l-32,32
	H0v48h16v192H0v48h80v22.5L26.5,480H0v16h496v-16h-32V326.5C466.5,327.4,469.2,328,472,328z M415.6,229.1l-7.6,7.6l-7.6-7.6
	l6.6-53.2c0.3,0,0.6,0.1,0.9,0.1s0.6,0,0.9-0.1L415.6,229.1z M376,80c0-17.6,14.4-32,32-32s32,14.4,32,32v16c0,17.6-14.4,32-32,32
	s-32-14.4-32-32V80z M408,144c5.6,0,11-1,16-2.8v8.6c-2,3.1-7.5,10.2-16,10.2c-8.5,0-14-7.2-16-10.2v-8.6C397,143,402.4,144,408,144
	z M380.1,160.6c2.4,3.3,6.2,7.5,11.5,10.7l-7.9,63.6l24.4,24.4l24.4-24.4l-7.9-63.6c5.2-3.2,9-7.4,11.5-10.7l30.3,4.3
	c7.8,1.1,13.7,7.9,13.7,15.8V304c0,4.4-3.6,8-8,8s-8-3.6-8-8V192h-16v80h-80v-80h-48.3c-2.4,0-4.7-1.1-6.2-3l-55.6-69.5
	c-1.2-1.5-1.9-3.4-1.9-5.3v-1.7c0-4.7,3.8-8.5,8.5-8.5c2.5,0,4.8,1.1,6.4,2.9l53.9,61.6L380.1,160.6z M136,352v128H75.7l49.8-128
	H136z M152,352h16v128h-16V352z M184,352h10.5l49.8,128H184V352z M211.7,352h14.8l49.8,128h-14.8L211.7,352z M240,342.5V320h80v-48
	h-16v-70c4.3,3.8,9.8,6,15.7,6H352v272h-58.5L240,342.5z M368,288h32v192h-32V288z M16,48h75.3l32-32h73.4l32,32H304v16H16V48z
	 M32,80h256v22.1l-5-5.8c-4.7-5.3-11.4-8.4-18.4-8.4C251,88,240,99,240,112.5v1.7c0,5.5,1.9,11,5.4,15.3l42.6,53.3V272H32V80z
	 M16,288h288v16H16V288z M224,320v16H96v-16H224z M93.5,352h14.8L58.5,480H43.7L93.5,352z M416,480V288h32v192H416z"/>
<path class="st0" d="M224,160c-26.5,0-48,21.5-48,48s21.5,48,48,48s48-21.5,48-48S250.5,160,224,160z M216,177.1V200h-22.9
	C196,188.8,204.8,180,216,177.1z M193.1,216H216v22.9C204.8,236,196,227.2,193.1,216z M232,238.9v-61.7c13.8,3.6,24,16,24,30.9
	S245.8,235.3,232,238.9z"/>
</svg>
