<svg version="1.1" id="Layer_1" xmlns="http://www.w3.org/2000/svg" x="0" y="0" viewBox="0 0 496 496" xml:space="preserve"><style>.st0{fill:#0c1937}</style><path class="st0" d="M144 96h-16v88h-16v-64H96v64H80v-40H64v40H48v16h112v-16h-16V96z"/><path class="st0" d="M472 328c13.2 0 24-10.8 24-24V180.8c0-15.8-11.8-29.4-27.5-31.7L440 145v-13.4c9.8-8.8 16-21.5 16-35.7V80c0-26.5-21.5-48-48-48s-48 21.5-48 48v16c0 14.2 6.2 26.9 16 35.7v13.4l-44.8 6.4-27.6-31.5h.4V80h16V32h-84.7l-32-32h-86.6l-32 32H0v48h16v192H0v48h80v22.5L26.5 480H0v16h496v-16h-32V326.5c2.5.9 5.2 1.5 8 1.5zm-56.4-98.9l-7.6 7.6-7.6-7.6 6.6-53.2c.3 0 .6.1.9.1s.6 0 .9-.1l6.8 53.2zM376 80c0-17.6 14.4-32 32-32s32 14.4 32 32v16c0 17.6-14.4 32-32 32s-32-14.4-32-32V80zm32 64c5.6 0 11-1 16-2.8v8.6c-2 3.1-7.5 10.2-16 10.2s-14-7.2-16-10.2v-8.6c5 1.8 10.4 2.8 16 2.8zm-27.9 16.6c2.4 3.3 6.2 7.5 11.5 10.7l-7.9 63.6 24.4 24.4 24.4-24.4-7.9-63.6c5.2-3.2 9-7.4 11.5-10.7l30.3 4.3c7.8 1.1 13.7 7.9 13.7 15.8V304c0 4.4-3.6 8-8 8s-8-3.6-8-8V192h-16v80h-80v-80h-48.3c-2.4 0-4.7-1.1-6.2-3L258 119.5c-1.2-1.5-1.9-3.4-1.9-5.3v-1.7c0-4.7 3.8-8.5 8.5-8.5 2.5 0 4.8 1.1 6.4 2.9l53.9 61.6 55.2-7.9zM136 352v128H75.7l49.8-128H136zm16 0h16v128h-16V352zm32 0h10.5l49.8 128H184V352zm27.7 0h14.8l49.8 128h-14.8l-49.8-128zm28.3-9.5V320h80v-48h-16v-70c4.3 3.8 9.8 6 15.7 6H352v272h-58.5L240 342.5zM368 288h32v192h-32V288zM16 48h75.3l32-32h73.4l32 32H304v16H16V48zm16 32h256v22.1l-5-5.8c-4.7-5.3-11.4-8.4-18.4-8.4C251 88 240 99 240 112.5v1.7c0 5.5 1.9 11 5.4 15.3l42.6 53.3V272H32V80zM16 288h288v16H16v-16zm208 32v16H96v-16h128zM93.5 352h14.8L58.5 480H43.7l49.8-128zM416 480V288h32v192h-32z"/><path class="st0" d="M224 160c-26.5 0-48 21.5-48 48s21.5 48 48 48 48-21.5 48-48-21.5-48-48-48zm-8 17.1V200h-22.9c2.9-11.2 11.7-20 22.9-22.9zM193.1 216H216v22.9c-11.2-2.9-20-11.7-22.9-22.9zm38.9 22.9v-61.7c13.8 3.6 24 16 24 30.9s-10.2 27.2-24 30.8z"/></svg>