<svg version="1.1" id="Capa_1" xmlns="http://www.w3.org/2000/svg" x="0" y="0" viewBox="0 0 496 496" xml:space="preserve"><style>.st0{fill:#0c1937}</style><path class="st0" d="M104 104c-8.8 0-16-7.2-16-16s7.2-16 16-16 16 7.2 16 16h16c0-17.6-14.4-32-32-32S72 70.4 72 88s14.4 32 32 32c8.8 0 16 7.2 16 16s-7.2 16-16 16-16-7.2-16-16H72c0 17.6 14.4 32 32 32s32-14.4 32-32-14.4-32-32-32z"/><path class="st0" d="M96 40h16v24H96zm0 120h16v24H96zM0 448v48h144v-48H0zm128 32H16v-16h112v16zm80-42.4v19.5h80v19.6H176v-19.6h16v-19.5h-32v58.7h144v-58.7z"/><path class="st0" d="M160 437.6v48.9h16v-29.4h112v29.4h16v-48.9z"/><path class="st0" d="M160 398.4v58.8h144v-58.8H160zm128 39.2H176V418h112v19.6zM160 320v58.8h144V320H160zm128 39.2H176v-19.6h112v19.6zm32 76.5v59.9h144v-59.9H320zm128 40H336v-20h112v20z"/><path class="st0" d="M320 395.8v59.9h144v-59.9H320zm128 39.9H336v-20h112v20z"/><path class="st0" d="M432 355.9v19.9h16v20H336v-20h80v-19.9h-96v59.9h144v-59.9z"/><path class="st0" d="M320 315.9v49.9h16v-29.9h112v29.9h16v-49.9z"/><path class="st0" d="M320 276v59.9h144V276H320zm128 39.9H336v-20h112v20zM376 0c-13.2 0-24 10.8-24 24s10.8 24 24 24h36.7L294.8 165.8l-63.4-39.6L3.1 305.7l9.9 12.6 219.6-172.5 64.6 40.4L451.3 32H376c-4.4 0-8-3.6-8-8s3.6-8 8-8h104v104c0 4.4-3.6 8-8 8s-8-3.6-8-8V52.7L302.6 214.1l-71.4-39.7L27 337.8l10 12.5 195.8-156.6 72.6 40.3L448 91.3V120c0 13.2 10.8 24 24 24s24-10.8 24-24V0H376z"/><path class="st0" d="M104 8C46.7 8 0 54.7 0 112s46.7 104 104 104 104-46.7 104-104S161.3 8 104 8zm0 192c-48.5 0-88-39.5-88-88s39.5-88 88-88 88 39.5 88 88-39.5 88-88 88z"/></svg>