<?xml version="1.0" encoding="utf-8"?>
<!-- Generator: Adobe Illustrator 23.0.3, SVG Export Plug-In . SVG Version: 6.00 Build 0)  -->
<svg version="1.1" id="Capa_1" xmlns="http://www.w3.org/2000/svg" xmlns:xlink="http://www.w3.org/1999/xlink" x="0px" y="0px"
	 viewBox="0 0 496 496" style="enable-background:new 0 0 496 496;" xml:space="preserve">
<style type="text/css">
	.st0{fill:#0C1937;}
</style>
<g>
	<g>
		<path class="st0" d="M104,104c-8.8,0-16-7.2-16-16s7.2-16,16-16s16,7.2,16,16h16c0-17.6-14.4-32-32-32S72,70.4,72,88
			s14.4,32,32,32c8.8,0,16,7.2,16,16s-7.2,16-16,16s-16-7.2-16-16H72c0,17.6,14.4,32,32,32s32-14.4,32-32S121.6,104,104,104z"/>
	</g>
</g>
<g>
	<g>
		<rect x="96" y="40" class="st0" width="16" height="24"/>
	</g>
</g>
<g>
	<g>
		<rect x="96" y="160" class="st0" width="16" height="24"/>
	</g>
</g>
<g>
	<g>
		<path class="st0" d="M0,448v48h144v-48H0z M128,480H16v-16h112V480z"/>
	</g>
</g>
<g>
	<g>
		<polygon class="st0" points="208,437.6 208,457.1 288,457.1 288,476.7 176,476.7 176,457.1 192,457.1 192,437.6 160,437.6 
			160,496.3 304,496.3 304,437.6 		"/>
	</g>
</g>
<g>
	<g>
		<polygon class="st0" points="160,437.6 160,486.5 176,486.5 176,457.1 288,457.1 288,486.5 304,486.5 304,437.6 		"/>
	</g>
</g>
<g>
	<g>
		<path class="st0" d="M160,398.4v58.8h144v-58.8H160z M288,437.6H176V418h112V437.6z"/>
	</g>
</g>
<g>
	<g>
		<path class="st0" d="M160,320v58.8h144V320H160z M288,359.2H176v-19.6h112V359.2z"/>
	</g>
</g>
<g>
	<g>
		<path class="st0" d="M320,435.7v59.9h144v-59.9H320z M448,475.7H336v-20h112V475.7z"/>
	</g>
</g>
<g>
	<g>
		<path class="st0" d="M320,395.8v59.9h144v-59.9H320z M448,435.7H336v-20h112V435.7z"/>
	</g>
</g>
<g>
	<g>
		<polygon class="st0" points="432,355.9 432,375.8 448,375.8 448,395.8 336,395.8 336,375.8 416,375.8 416,355.9 320,355.9 
			320,415.8 464,415.8 464,355.9 		"/>
	</g>
</g>
<g>
	<g>
		<polygon class="st0" points="320,315.9 320,365.8 336,365.8 336,335.9 448,335.9 448,365.8 464,365.8 464,315.9 		"/>
	</g>
</g>
<g>
	<g>
		<path class="st0" d="M320,276v59.9h144V276H320z M448,315.9H336v-20h112V315.9z"/>
	</g>
</g>
<g>
	<g>
		<path class="st0" d="M376,0c-13.2,0-24,10.8-24,24s10.8,24,24,24h36.7L294.8,165.8l-63.4-39.6L3.1,305.7l9.9,12.6l219.6-172.5
			l64.6,40.4L451.3,32H376c-4.4,0-8-3.6-8-8s3.6-8,8-8h104v104c0,4.4-3.6,8-8,8s-8-3.6-8-8V52.7L302.6,214.1l-71.4-39.7L27,337.8
			l10,12.5l195.8-156.6l72.6,40.3L448,91.3V120c0,13.2,10.8,24,24,24s24-10.8,24-24V0H376z"/>
	</g>
</g>
<g>
	<g>
		<path class="st0" d="M104,8C46.7,8,0,54.7,0,112s46.7,104,104,104s104-46.7,104-104S161.3,8,104,8z M104,200
			c-48.5,0-88-39.5-88-88s39.5-88,88-88s88,39.5,88,88S152.5,200,104,200z"/>
	</g>
</g>
</svg>
