<svg xmlns="http://www.w3.org/2000/svg" viewBox="0 0 674.7 678.1"><path d="M24 613.3c-13.9 0-25.2-11.3-25.2-25.2 0-13.9 11.3-25.2 25.2-25.2h102.7v-97.5c0-13.9 11.3-25.2 25.2-25.2h97.9V334.4c0-13.9 11.3-25.2 25.2-25.2h103v-89.4c0-13.9 11.3-25.2 25.2-25.2h100.4V82.8c0-13.9 11.3-25.2 25.2-25.2h121.7c13.9 0 25.2 11.3 25.2 25.2S664.4 108 650.5 108H554v111.7c0 13.9-11.3 25.2-25.2 25.2H428.4v89.4c0 13.9-11.3 25.2-25.2 25.2H300.3v105.8c0 13.9-11.3 25.2-25.2 25.2h-97.9V588c0 13.9-11.3 25.2-25.2 25.2H24zm70.7-343.9c-6.6 0-12.9-2.6-17.6-7.3-4.7-4.7-7.3-10.9-7.3-17.6 0-6.6 2.6-12.9 7.3-17.6l118.5-118.5h-60.5c-14.1 0-25.6-11.5-25.6-25.6s11.5-25.6 25.6-25.6h121.3c14.1 0 25.6 11.5 25.6 25.6v121.3c0 14.1-11.5 25.6-25.6 25.6-14.1 0-25.6-11.5-25.6-25.6v-60.5L112.3 262.1c-4.7 4.7-10.9 7.3-17.6 7.3z" fill="#0691e0"/></svg>