<?xml version="1.0" encoding="utf-8"?>
<!-- Generator: Adobe Illustrator 23.0.3, SVG Export Plug-In . SVG Version: 6.00 Build 0)  -->
<svg version="1.1" id="Capa_1" xmlns="http://www.w3.org/2000/svg" xmlns:xlink="http://www.w3.org/1999/xlink" x="0px" y="0px"
	 viewBox="0 0 674.7 678.1" style="enable-background:new 0 0 674.7 678.1;" xml:space="preserve">
<style type="text/css">
	.st0{fill:#0691e0;}
</style>
<g id="Ladder-up">
	<path class="st0" d="M24,613.3c-13.9,0-25.2-11.3-25.2-25.2c0-13.9,11.3-25.2,25.2-25.2h102.7v-97.5c0-13.9,11.3-25.2,25.2-25.2
		h97.9V334.4c0-13.9,11.3-25.2,25.2-25.2H378v-89.4c0-13.9,11.3-25.2,25.2-25.2h100.4V82.8c0-13.9,11.3-25.2,25.2-25.2h121.7
		c13.9,0,25.2,11.3,25.2,25.2s-11.3,25.2-25.2,25.2h-96.5v111.7c0,13.9-11.3,25.2-25.2,25.2H428.4v89.4c0,13.9-11.3,25.2-25.2,25.2
		H300.3v105.8c0,13.9-11.3,25.2-25.2,25.2h-97.9v97.5c0,13.9-11.3,25.2-25.2,25.2H24z"/>
	<path class="st0" d="M94.7,269.4c-6.6,0-12.9-2.6-17.6-7.3c-4.7-4.7-7.3-10.9-7.3-17.6c0-6.6,2.6-12.9,7.3-17.6l118.5-118.5h-60.5
		c-14.1,0-25.6-11.5-25.6-25.6s11.5-25.6,25.6-25.6h121.3c14.1,0,25.6,11.5,25.6,25.6v121.3c0,14.1-11.5,25.6-25.6,25.6
		c-14.1,0-25.6-11.5-25.6-25.6v-60.5L112.3,262.1C107.6,266.8,101.4,269.4,94.7,269.4z"/>
</g>
</svg>
