<svg data-name="Layer 1" xmlns="http://www.w3.org/2000/svg" viewBox="0 0 512 512"><path d="M256 0C114.85 0 0 114.83 0 256s114.85 256 256 256 256-114.85 256-256S397.17 0 256 0zM64 256c0-55.19 23.54-104.86 61-139.92 1.5 5.08 3 13.7 3 27.91 0 7.6-.11 14.22-.22 20.1-.56 32.48-.94 53.94 24.74 81.65 5.78 6.25 10.59 15 15.7 24.35 9.17 16.72 19.48 35.53 39.51 45.64 2.3 4.95 6.5 19.86 6.5 48.41 0 20.14 14 36 28.74 52.71 3 3.38 7 8 9.69 11.33-.66 4.88-1.86 11.87-3.28 19.49C146.59 444.13 64 359.63 64 256zm349.25 109.83c-3.27-24.57-20.09-41.48-45.47-43.28-6.61-3.49-20.77-14.19-29.52-20.82-23.9-18.07-37.07-28-53.06-28a52.67 52.67 0 00-15.87 2.44c-8.66-7.74-17-15.52-23.38-21.75A32 32 0 00288 224c0-8.62 3.7-13.53 37.48-21.17 17.54-4 50.16-11.35 50.16-43.24 0-21.68-14.86-36.43-27.78-47.45 3.4-5.11 5.64-12.23 6.95-20.45C410.53 125.33 448 186.29 448 256a190.79 190.79 0 01-34.75 109.84z" fill="#0691e0"/></svg>