<?xml version="1.0" encoding="utf-8"?>
<!-- Generator: Adobe Illustrator 23.0.3, SVG Export Plug-In . SVG Version: 6.00 Build 0)  -->
<svg version="1.1" id="Capa_1" xmlns="http://www.w3.org/2000/svg" xmlns:xlink="http://www.w3.org/1999/xlink" x="0px" y="0px"
	 viewBox="0 0 674.7 678.1" style="enable-background:new 0 0 674.7 678.1;" xml:space="preserve">
<style type="text/css">
	.st0{fill:#0691e0;}
</style>
<path class="st0" d="M118.6,628.3c-14.4,0-26.1-11.7-26.1-26.1V262.8c0-8,3.6-15.4,9.8-20.4L319.9,68c4.6-3.7,10.4-5.7,16.3-5.7
	c5.9,0,11.7,2,16.4,5.7l217.6,174.4c11.2,9,13.1,25.5,4.1,36.7c-5,6.2-12.4,9.8-20.4,9.8c-5.9,0-11.7-2-16.3-5.7L336.2,121.9
	L144.8,275.4V576h120.6c-4-4.6-6.5-10.6-6.5-17.2V442.8c0-14.4,11.7-26.1,26.1-26.1h102.4c14.4,0,26.1,11.7,26.1,26.1V576h114.1
	V356.2c0-14.4,11.7-26.1,26.1-26.1c14.4,0,26.1,11.7,26.1,26.1v246c0,14.4-11.7,26.1-26.1,26.1H118.6z M361.3,576V469h-50.1v89.8
	c0,6.6-2.4,12.6-6.5,17.2H361.3z"/>
</svg>
