<svg xmlns="http://www.w3.org/2000/svg" viewBox="0 0 674.7 678.1"><path d="M118.6 628.3c-14.4 0-26.1-11.7-26.1-26.1V262.8c0-8 3.6-15.4 9.8-20.4L319.9 68c4.6-3.7 10.4-5.7 16.3-5.7s11.7 2 16.4 5.7l217.6 174.4c11.2 9 13.1 25.5 4.1 36.7-5 6.2-12.4 9.8-20.4 9.8-5.9 0-11.7-2-16.3-5.7L336.2 121.9 144.8 275.4V576h120.6c-4-4.6-6.5-10.6-6.5-17.2v-116c0-14.4 11.7-26.1 26.1-26.1h102.4c14.4 0 26.1 11.7 26.1 26.1V576h114.1V356.2c0-14.4 11.7-26.1 26.1-26.1 14.4 0 26.1 11.7 26.1 26.1v246c0 14.4-11.7 26.1-26.1 26.1H118.6zM361.3 576V469h-50.1v89.8c0 6.6-2.4 12.6-6.5 17.2h56.6z" fill="#0691e0"/></svg>