<svg version="1.1" id="Capa_1" xmlns="http://www.w3.org/2000/svg" x="0" y="0" viewBox="0 0 512 512" xml:space="preserve"><style>.st0{fill:#0c1937}</style><path class="st0" d="M184.5 121.8h-53.7v51.9h53.7c14.3 0 25.9-11.6 25.9-25.9s-11.6-26-25.9-26zm0 36.9h-38.8v-22h38.8c6.1 0 11 4.9 11 11s-5 11-11 11z"/><path class="st0" d="M183 158.7h-52.2v48.4h15v-33.4H183c6.9 0 12.5 5.6 12.5 12.5v21h15v-21c-.1-15.2-12.4-27.5-27.5-27.5zm46.9-1h63.9v15h-63.9z"/><path class="st0" d="M293.8 136.7v-14.9h-71.4v85.8h71.4v-15h-56.4v-55.9zm76.3-14.4v59.2l-48.4-59.7h-17.5v86.3h15v-65.6l52.8 65.1h13.1v-85.3zm25.5.5h82.8v15h-82.8z"/><path class="st0" d="M429.5 130.2h15v76.9h-15z"/><path class="st0" d="M512 70.9V26H80.8V0H35.9v26H0v44.9h35.9V512H512V324l-101.3-71.1-60.9 42.8-60.9-42.8-60.9 42.7-60.9-42.8-86.3 60.6V70.9h46.9v23H94.8v145.7H512V93.8h-32.9v-23H512zm-32.9-30h18v15h-18v-15zm-443.2 15H15v-15h21v15zm30 441.1h-15V15h15v482zm121.7 0h-54.9V384.3h54.9V497zm128.8 0h-54.9V378.3h54.9V497zm128.7 0h-54.9V384.3h54.9V497zm-34.4-225.9l86.3 60.6V497h-36.9V369.3h-69.9v-27l19.2 13.5 8.6-12.3-55.1-38.7 47.8-33.7zm-121.8 0l86.3 60.6V497h-43.9V363.3h-84.8V497h-43.9V331.8l86.3-60.7zm-121.7 0l47.9 33.6-55.2 38.7 8.6 12.3 19.2-13.5v27h-69.9V497h-37V331.8l86.4-60.7zM142.7 40.9h321.4v52.9H142.7V40.9zm-61.9 15v-15h46.9v15H80.8zM497 108.8v115.8H109.8V108.8H497z"/></svg>