<?xml version="1.0" encoding="utf-8"?>
<!-- Generator: Adobe Illustrator 23.0.3, SVG Export Plug-In . SVG Version: 6.00 Build 0)  -->
<svg version="1.1" id="Capa_1" xmlns="http://www.w3.org/2000/svg" xmlns:xlink="http://www.w3.org/1999/xlink" x="0px" y="0px"
	 viewBox="0 0 118.1 118.1" style="enable-background:new 0 0 118.1 118.1;" xml:space="preserve">
<style type="text/css">
	.st0{fill:#40B5F8;}
</style>
<g>
	<path class="st0" d="M59,0C34.4,0,14.5,19.9,14.5,44.5c0,12.8,6.4,24.4,12.7,35.1c7.7,13.3,16.9,25.7,27.6,36.7
		c2.3,2.4,6.1,2.4,8.5,0C72.7,107,81,96.5,88,85.3c7.5-12.1,15.6-26.1,15.6-40.8C103.5,20,83.6,0,59,0z M59,70.3
		c-14.9,0-27-12.1-27-27s12.1-27,27-27s27,12,27,27S73.9,70.3,59,70.3z"/>
</g>
</svg>
