<?xml version="1.0" encoding="utf-8"?>
<!-- Generator: Adobe Illustrator 23.0.3, SVG Export Plug-In . SVG Version: 6.00 Build 0)  -->
<svg version="1.1" id="Capa_1" xmlns="http://www.w3.org/2000/svg" xmlns:xlink="http://www.w3.org/1999/xlink" x="0px" y="0px"
	 viewBox="0 0 476.8 476.8" style="enable-background:new 0 0 476.8 476.8;" xml:space="preserve">
<style type="text/css">
	.st0{fill:#0C1937;}
</style>
<g>
	<g>
		<path class="st0" d="M452.8,14.4h-160c-13.3,0-24,10.7-24,24v224c0,13.3,10.7,24,24,24h160c13.3,0,24-10.7,24-24v-224
			C476.8,25.1,466,14.4,452.8,14.4z M364.8,270.4h-72c-4.4,0-8-3.6-8-8v-56h80V270.4z M364.8,190.4h-80v-64h80V190.4z M460.8,262.4
			c0,4.4-3.6,8-8,8h-72v-64h80V262.4z M460.8,190.4h-80v-64h80V190.4z M460.8,110.4h-176v-72c0-4.4,3.6-8,8-8h160c4.4,0,8,3.6,8,8
			V110.4z"/>
	</g>
</g>
<g>
	<g>
		<path class="st0" d="M156.8,318.4h24v-16h-16v-8h-16v9.5c-12.5,4.4-19,18.1-14.6,30.5c3.4,9.6,12.5,16,22.6,16c4.4,0,8,3.6,8,8
			s-3.6,8-8,8h-24v16h16v8h16v-9.5c12.5-4.4,19-18.1,14.6-30.5c-3.4-9.6-12.5-16-22.6-16c-4.4,0-8-3.6-8-8S152.3,318.4,156.8,318.4z
			"/>
	</g>
</g>
<g>
	<g>
		<path class="st0" d="M436.8,46.4h-128c-4.4,0-8,3.6-8,8v32c0,4.4,3.6,8,8,8h128c4.4,0,8-3.6,8-8v-32
			C444.8,50,441.2,46.4,436.8,46.4z M428.8,78.4h-112v-16h112V78.4z"/>
	</g>
</g>
<g>
	<g>
		<path class="st0" d="M468.8,350.4h-8v-16c0-17.7-14.3-32-32-32h-146l-85-144.5l54.4-124.3c1.8-4-0.1-8.8-4.1-10.5
			c-1.9-0.8-4-0.9-5.9-0.2l-39,14.2l1.3-4.3c1.3-4.2-1-8.7-5.3-10c-1.8-0.6-3.8-0.5-5.5,0.3l-52,22.3L97.2,15.7
			c-3.7-2.5-8.6-1.5-11.1,2.2c-1.1,1.7-1.6,3.8-1.2,5.8l3.3,18.5l-34.5-3.8c-4.4-0.5-8.3,2.7-8.8,7.1c-0.2,1.5,0.1,3,0.8,4.4
			l54.2,108.4L8.7,338.5c-6.3,12-9.3,25.5-8.5,39.1c1.1,16.4,7.2,32.2,17.4,45.1L4.9,436.4c-4.7,5.2-6.1,12.5-3.7,19.1
			c2.2,4.4,6.7,7.1,11.6,6.9h288c5.7,0.1,11-3.2,13.5-8.4c2.7-5.8,1.8-12.7-2.3-17.6c-0.3-0.3-0.6-0.6-0.9-0.9l-14.8-13.4
			c5.7-7.4,10.2-15.8,13.2-24.7c1.6-4.9,2.6-9.9,3.1-15h68.2v40c0,4.4,3.6,8,8,8h80c4.4,0,8-3.6,8-8v-64
			C476.8,354,473.2,350.4,468.8,350.4z M412.8,334.4c0-8.8,7.2-16,16-16s16,7.2,16,16v16h-32V334.4z M197.1,56.2l32.9-12
			l-46.4,106.1h-15.9L197.1,56.2z M136.3,61.1c2.3,1.5,5.1,1.8,7.6,0.7l40-17.2l-33.1,105.8h-27.4l-19.6-111L136.3,61.1z M66.5,56
			l24.6,2.7l12.6,71.7L66.5,56z M17.4,446.4l11.3-12.1c5.6,4.8,11.9,8.9,18.6,12.1H17.4z M299.3,446.4h-33.1
			c7-3.3,13.5-7.5,19.2-12.6L299.3,446.4z M294.2,392.8L294.2,392.8c-6,17.9-19.3,32.5-36.6,40.1l5.9,13.5H50.1l5.9-13.5
			c-22.8-9.9-38.1-31.7-39.9-56.4c-0.5-10.7,1.9-21.2,6.9-30.7l90.7-179.4h8.3l16.7,0h19.6h16.4h9.5l80,136h-38.1
			c-22.1-38.3-71-51.4-109.3-29.3s-51.4,71-29.3,109.3s71,51.4,109.3,29.3c12.2-7,22.3-17.1,29.3-29.3h70.4
			C296,385.9,295.3,389.4,294.2,392.8z M380.8,358.4v8H221.3c-3,0-5.8,1.7-7.2,4.4c-15.7,31.7-54.1,44.6-85.8,28.9
			s-44.6-54.1-28.9-85.8s54.1-44.6,85.8-28.9c11.7,5.8,21.3,15,27.6,26.5c0.6,3.9,3.9,6.9,7.9,6.9h180.4c-2.9,4.8-4.4,10.4-4.4,16
			v16h-8C384.3,350.4,380.8,354,380.8,358.4z M460.8,414.4h-64v-48h64V414.4z"/>
	</g>
</g>
<g>
	<g>
		<rect x="420.8" y="382.4" class="st0" width="16" height="16"/>
	</g>
</g>
<g>
	<g>
		<polygon class="st0" points="332.8,150.4 332.8,134.4 316.8,134.4 316.8,150.4 300.8,150.4 300.8,166.4 316.8,166.4 316.8,182.4 
			332.8,182.4 332.8,166.4 348.8,166.4 348.8,150.4 		"/>
	</g>
</g>
<g>
	<g>
		<rect x="396.8" y="150.4" class="st0" width="48" height="16"/>
	</g>
</g>
<g>
	<g>
		<polygon class="st0" points="347.4,228 336.1,216.7 324.8,228 313.4,216.7 302.1,228 313.4,239.3 302.1,250.7 313.4,262 
			324.8,250.7 336.1,262 347.4,250.7 336.1,239.3 		"/>
	</g>
</g>
<g>
	<g>
		<rect x="396.8" y="230.4" class="st0" width="48" height="16"/>
	</g>
</g>
<g>
	<g>
		<rect x="412.8" y="250.4" class="st0" width="16" height="8"/>
	</g>
</g>
<g>
	<g>
		<rect x="412.8" y="218.4" class="st0" width="16" height="8"/>
	</g>
</g>
</svg>
