<svg version="1.1" id="Capa_1" xmlns="http://www.w3.org/2000/svg" x="0" y="0" viewBox="0 0 476.8 476.8" xml:space="preserve"><style>.st0{fill:#0c1937}</style><path class="st0" d="M452.8 14.4h-160c-13.3 0-24 10.7-24 24v224c0 13.3 10.7 24 24 24h160c13.3 0 24-10.7 24-24v-224c0-13.3-10.8-24-24-24zm-88 256h-72c-4.4 0-8-3.6-8-8v-56h80v64zm0-80h-80v-64h80v64zm96 72c0 4.4-3.6 8-8 8h-72v-64h80v56zm0-72h-80v-64h80v64zm0-80h-176v-72c0-4.4 3.6-8 8-8h160c4.4 0 8 3.6 8 8v72zm-304 208h24v-16h-16v-8h-16v9.5c-12.5 4.4-19 18.1-14.6 30.5 3.4 9.6 12.5 16 22.6 16 4.4 0 8 3.6 8 8s-3.6 8-8 8h-24v16h16v8h16v-9.5c12.5-4.4 19-18.1 14.6-30.5-3.4-9.6-12.5-16-22.6-16-4.4 0-8-3.6-8-8s3.5-8 8-8z"/><path class="st0" d="M436.8 46.4h-128c-4.4 0-8 3.6-8 8v32c0 4.4 3.6 8 8 8h128c4.4 0 8-3.6 8-8v-32c0-4.4-3.6-8-8-8zm-8 32h-112v-16h112v16zm40 272h-8v-16c0-17.7-14.3-32-32-32h-146l-85-144.5 54.4-124.3c1.8-4-.1-8.8-4.1-10.5-1.9-.8-4-.9-5.9-.2l-39 14.2 1.3-4.3c1.3-4.2-1-8.7-5.3-10-1.8-.6-3.8-.5-5.5.3l-52 22.3-44.5-29.7c-3.7-2.5-8.6-1.5-11.1 2.2-1.1 1.7-1.6 3.8-1.2 5.8l3.3 18.5-34.5-3.8c-4.4-.5-8.3 2.7-8.8 7.1-.2 1.5.1 3 .8 4.4l54.2 108.4L8.7 338.5c-6.3 12-9.3 25.5-8.5 39.1 1.1 16.4 7.2 32.2 17.4 45.1L4.9 436.4c-4.7 5.2-6.1 12.5-3.7 19.1 2.2 4.4 6.7 7.1 11.6 6.9h288c5.7.1 11-3.2 13.5-8.4 2.7-5.8 1.8-12.7-2.3-17.6l-.9-.9-14.8-13.4c5.7-7.4 10.2-15.8 13.2-24.7 1.6-4.9 2.6-9.9 3.1-15h68.2v40c0 4.4 3.6 8 8 8h80c4.4 0 8-3.6 8-8v-64c0-4.4-3.6-8-8-8zm-56-16c0-8.8 7.2-16 16-16s16 7.2 16 16v16h-32v-16zM197.1 56.2l32.9-12-46.4 106.1h-15.9l29.4-94.1zm-60.8 4.9c2.3 1.5 5.1 1.8 7.6.7l40-17.2-33.1 105.8h-27.4l-19.6-111 32.5 21.7zM66.5 56l24.6 2.7 12.6 71.7L66.5 56zM17.4 446.4l11.3-12.1c5.6 4.8 11.9 8.9 18.6 12.1H17.4zm281.9 0h-33.1c7-3.3 13.5-7.5 19.2-12.6l13.9 12.6zm-5.1-53.6c-6 17.9-19.3 32.5-36.6 40.1l5.9 13.5H50.1l5.9-13.5c-22.8-9.9-38.1-31.7-39.9-56.4-.5-10.7 1.9-21.2 6.9-30.7l90.7-179.4h70.5l80 136h-38.1c-22.1-38.3-71-51.4-109.3-29.3s-51.4 71-29.3 109.3 71 51.4 109.3 29.3c12.2-7 22.3-17.1 29.3-29.3h70.4c-.5 3.5-1.2 7-2.3 10.4zm86.6-34.4v8H221.3c-3 0-5.8 1.7-7.2 4.4-15.7 31.7-54.1 44.6-85.8 28.9s-44.6-54.1-28.9-85.8 54.1-44.6 85.8-28.9c11.7 5.8 21.3 15 27.6 26.5.6 3.9 3.9 6.9 7.9 6.9h180.4c-2.9 4.8-4.4 10.4-4.4 16v16h-8c-4.4 0-7.9 3.6-7.9 8zm80 56h-64v-48h64v48z"/><path class="st0" d="M420.8 382.4h16v16h-16zm-88-232v-16h-16v16h-16v16h16v16h16v-16h16v-16zm64 0h48v16h-48zM347.4 228l-11.3-11.3-11.3 11.3-11.4-11.3-11.3 11.3 11.3 11.3-11.3 11.4 11.3 11.3 11.4-11.3 11.3 11.3 11.3-11.3-11.3-11.4zm49.4 2.4h48v16h-48zm16 20h16v8h-16zm0-32h16v8h-16z"/></svg>