<svg xmlns="http://www.w3.org/2000/svg" viewBox="0 0 674.7 678.1"><path d="M50.1 476.8c46.2-46.2 121.4-46.2 167.6 0 66.6 66.6 174.4 66.6 241.1 0 46.2-46.2 121.4-46.2 167.6 0 10.1 10.1 26.6 10.1 36.7 0 10.1-10.1 10.1-26.6 0-36.7-53.1-53.1-132.9-63.8-196.7-32V83.3c0-13.8 11.3-25.1 25.1-25.1s25.1 11.3 25.1 25.1c0 14.3 11.6 26 26 26 14.3 0 26-11.6 26-26 0-42.5-34.6-77.1-77.1-77.1s-77.1 34.6-77.1 77.1v76.2H262V83.3c0-13.8 11.3-25.1 25.1-25.1 13.9 0 25.1 11.3 25.1 25.1 0 14.3 11.6 26 26 26 14.3 0 26-11.6 26-26 0-42.5-34.6-77.1-77.1-77.1-42.5 0-77.1 34.6-77.1 77.1v324.8c-63.8-31.8-143.6-21.2-196.7 32-10.1 10.1-10.1 26.6 0 36.7 10.2 10.1 26.6 10.1 36.8 0zM262 447v-82.3h152.4V447c-43.3 36.5-107.8 37.6-152.4 0zm152.4-235.5v101.3H262V211.5h152.4zm248.7 373.1c10.1 10.1 10.1 26.6 0 36.7-10.1 10.1-26.6 10.1-36.7 0-46.2-46.2-121.4-46.2-167.6 0-66.6 66.6-174.5 66.6-241.1 0-46.2-46.2-121.4-46.2-167.6 0-10.1 10.1-26.6 10.1-36.7 0-10.1-10.1-10.1-26.6 0-36.7 66.5-66.5 174.6-66.5 241.1 0 46.3 46.3 121.3 46.3 167.6 0 66.4-66.5 174.5-66.5 241 0z" fill="#0691e0"/></svg>