<svg data-name="Capa 1" xmlns="http://www.w3.org/2000/svg" viewBox="0 0 612 612"><path d="M587 125.52h-74.92V58.07a25 25 0 00-25-25H124.9a25 25 0 00-25 25v67.45H25a25 25 0 00-25 25V395.3a25 25 0 0025 25h74.92v131.63c0 8.32 1.68 14.54 8.12 20.42a24 24 0 0010.11 5.65c3.62 1 7.2.93 10.86.93H483c3.66 0 7.24.09 10.87-.93a24 24 0 0010.13-5.66c6.44-5.89 8.11-12.11 8.11-20.44V420.28H587a25 25 0 0025-25V150.5a25 25 0 00-25-24.98zM62.45 213.57a21.86 21.86 0 1121.86-21.85 21.86 21.86 0 01-21.86 21.85zM487.1 553.92H124.9V356.58h362.2v197.34zm0-428.4H124.9V83.05a25 25 0 0125-25h312.22a25 25 0 0125 25z" fill="#0691e0"/></svg>