<svg id="Capa_1" data-name="Capa 1" xmlns="http://www.w3.org/2000/svg" viewBox="0 0 34 28"><defs><style>.cls-1{fill:#e4f5ff;}</style></defs><title>Монтажная область 1</title><path class="cls-1" d="M33.29,11.28C31.48,4.74,27,0,22.7,0a6,6,0,0,0-1,.09.69.69,0,0,0-.46.32.7.7,0,0,0-.08.55L22,4.19a.71.71,0,0,0,.69.51h.07c1.61,0,4.54,2.43,6,7.85.06.21.12.43.17.66a7.7,7.7,0,0,0-5.5-.52,7.81,7.81,0,0,0-5.34,9.61,7.66,7.66,0,0,0,9.49,5.41c2.7-.76,4.73-3,5.72-6.39A18.81,18.81,0,0,0,33.29,11.28Z"/><path class="cls-1" d="M4.85,0a6,6,0,0,0-1,.09.66.66,0,0,0-.46.32A.7.7,0,0,0,3.27,1l.89,3.23a.71.71,0,0,0,.69.51h.07c1.61,0,4.54,2.43,6,7.85.06.21.12.43.17.66a7.7,7.7,0,0,0-5.5-.52A7.81,7.81,0,0,0,.29,22.3a7.66,7.66,0,0,0,9.49,5.41c2.7-.76,4.73-3,5.72-6.39a18.81,18.81,0,0,0-.06-10C13.63,4.74,9.18,0,4.85,0Z"/></svg>