<svg version="1.1" id="Capa_1" xmlns="http://www.w3.org/2000/svg" x="0" y="0" viewBox="0 0 674.7 678.1" xml:space="preserve"><style>.st0{fill:#0691e0}</style><path class="st0" d="M11.1 357.1c39.7 34 84.7 72.6 171.6 72.6 87 0 132-38.6 171.7-72.6 37.5-32.2 69.9-60 137.5-60s100 27.8 137.5 60c11 9.4 27.5 8.2 36.9-2.8 9.4-11 8.2-27.5-2.8-36.9-39.7-34-84.7-72.6-171.7-72.6s-132 38.6-171.7 72.6c-37.5 32.2-69.9 60-137.5 60s-100-27.8-137.5-60c-11-9.4-27.5-8.2-36.9 2.8-9.3 10.9-8 27.4 2.9 36.9z"/><path class="st0" d="M11.1 213.8c39.7 34 84.7 72.6 171.6 72.6 87 0 132-38.6 171.7-72.6 37.5-32.2 69.9-60 137.5-60s100 27.8 137.5 60c11 9.4 27.5 8.2 36.9-2.8 9.4-11 8.2-27.5-2.8-36.9-39.7-34-84.7-72.6-171.6-72.6-87 0-132 38.6-171.7 72.6-37.5 32.2-69.9 60-137.5 60s-100-27.8-137.5-60c-11-9.4-27.5-8.2-36.9 2.8-9.4 10.9-8.1 27.4 2.8 36.9zm652.5 246.8C623.9 426.6 579 388 492 388s-132 38.6-171.7 72.6c-37.5 32.2-69.9 60-137.5 60s-100-27.8-137.5-60c-11-9.4-27.5-8.2-36.9 2.8-9.4 11-8.2 27.5 2.8 36.9 39.7 34 84.7 72.6 171.6 72.6 87 0 132-38.6 171.7-72.6 37.5-32.2 69.9-60 137.5-60s100 27.8 137.5 60c11 9.4 27.5 8.2 36.9-2.8 9.5-10.9 8.2-27.5-2.8-36.9z"/></svg>