<?xml version="1.0" encoding="utf-8"?>
<!-- Generator: Adobe Illustrator 23.0.3, SVG Export Plug-In . SVG Version: 6.00 Build 0)  -->
<svg version="1.1" id="Capa_1" xmlns="http://www.w3.org/2000/svg" xmlns:xlink="http://www.w3.org/1999/xlink" x="0px" y="0px"
	 viewBox="0 0 674.7 678.1" style="enable-background:new 0 0 674.7 678.1;" xml:space="preserve">
<style type="text/css">
	.st0{fill:#0691e0;}
</style>
<g>
	<g>
		<g>
			<path class="st0" d="M11.1,357.1c39.7,34,84.7,72.6,171.6,72.6c87,0,132-38.6,171.7-72.6c37.5-32.2,69.9-60,137.5-60
				c67.6,0,100,27.8,137.5,60c11,9.4,27.5,8.2,36.9-2.8c9.4-11,8.2-27.5-2.8-36.9c-39.7-34-84.7-72.6-171.7-72.6
				s-132,38.6-171.7,72.6c-37.5,32.2-69.9,60-137.5,60c-67.6,0-100-27.8-137.5-60c-11-9.4-27.5-8.2-36.9,2.8
				C-1.1,331.1,0.2,347.6,11.1,357.1z"/>
			<path class="st0" d="M11.1,213.8c39.7,34,84.7,72.6,171.6,72.6c87,0,132-38.6,171.7-72.6c37.5-32.2,69.9-60,137.5-60
				c67.6,0,100,27.8,137.5,60c11,9.4,27.5,8.2,36.9-2.8c9.4-11,8.2-27.5-2.8-36.9c-39.7-34-84.7-72.6-171.6-72.6
				c-87,0-132,38.6-171.7,72.6c-37.5,32.2-69.9,60-137.5,60c-67.6,0-100-27.8-137.5-60c-11-9.4-27.5-8.2-36.9,2.8
				C-1.1,187.8,0.2,204.3,11.1,213.8z"/>
			<path class="st0" d="M663.6,460.6C623.9,426.6,579,388,492,388s-132,38.6-171.7,72.6c-37.5,32.2-69.9,60-137.5,60
				c-67.6,0-100-27.8-137.5-60l0,0c-11-9.4-27.5-8.2-36.9,2.8c-9.4,11-8.2,27.5,2.8,36.9c39.7,34,84.7,72.6,171.6,72.6
				c87,0,132-38.6,171.7-72.6c37.5-32.2,69.9-60,137.5-60c67.6,0,100,27.8,137.5,60c11,9.4,27.5,8.2,36.9-2.8
				C675.9,486.6,674.6,470,663.6,460.6z"/>
		</g>
	</g>
</g>
</svg>
