<svg data-name="Capa 1" xmlns="http://www.w3.org/2000/svg" viewBox="0 0 512 512"><path d="M502.91 258.66c0-133-109.31-240.77-244.19-240.77A249.22 249.22 0 00217 21.41 142.47 142.47 0 00141.63 0C63.39 0 0 62.5 0 139.65a137.53 137.53 0 0019.46 70.62 238.32 238.32 0 00-5 48.39c0 133 109.34 240.8 244.19 240.8a250.56 250.56 0 0044.73-4 142.75 142.75 0 0067 16.58C448.61 512 512 449.47 512 372.38a137.48 137.48 0 00-14.72-62 237.91 237.91 0 005.63-51.72z" fill="#0691e0"/><path d="M384 373.73c-11.3 15.77-28 28.25-49.63 37.09-21.41 8.76-47 13.28-76.29 13.28-35.08 0-64.51-6.1-87.49-18.1a113.43 113.43 0 01-40.19-35.2c-10.4-14.72-15.62-29.34-15.62-43.52a30 30 0 0110.22-22.7c6.69-6.24 15.26-9.35 25.5-9.35 8.39 0 15.62 2.47 21.51 7.36 5.6 4.74 10.43 11.71 14.3 20.64a119.07 119.07 0 0014 24.48c4.83 6.31 11.71 11.55 20.51 15.68s20.8 6.24 35.45 6.24c20.2 0 36.77-4.29 49.19-12.64 12.19-8.16 18.08-18 18.08-30.05 0-9.47-3.11-17-9.41-22.81-6.66-6.15-15.42-10.91-26.05-14.21-11.1-3.39-26.17-7.1-44.8-10.94-25.37-5.35-46.91-11.65-64-18.88-17.5-7.36-31.65-17.54-41.95-30.24-10.5-13-15.81-29.22-15.81-48.29a77.49 77.49 0 0116.58-48.71c10.91-14 26.85-25 47.42-32.48 20.26-7.39 44.35-11.1 71.65-11.1 21.79 0 41 2.5 57 7.42s29.67 11.59 40.32 19.81 18.75 17.12 23.75 26.34 7.64 18.53 7.64 27.45c0 8.61-3.36 16.45-10 23.24a33.92 33.92 0 01-25.09 10.3c-9 0-16.13-2.21-21-6.46-4.58-4-9.35-10.24-14.6-19.14-6.08-11.39-13.47-20.38-21.92-26.75-8.22-6.18-21.92-9.25-40.8-9.25-17.47 0-31.74 3.46-42.3 10.3-10.18 6.56-15.14 14.12-15.14 23.08a20.88 20.88 0 004.9 14c3.46 4.22 8.35 7.84 14.56 10.91a107.87 107.87 0 0019.56 7.47c6.78 1.86 18.14 4.64 33.79 8.19 19.78 4.16 37.92 8.87 54 14 16.29 5.08 30.31 11.39 41.83 18.78a82.83 82.83 0 0127.52 28.64c6.59 11.62 9.92 25.86 9.92 42.43A90.63 90.63 0 01384 373.73z" fill="#fafafa"/></svg>