<svg xmlns="http://www.w3.org/2000/svg" viewBox="0 0 674.7 678.1"><path d="M596.7 678.1c-3.9 0-7.5-1.5-10.2-4.2L523 610.4c-2-2-3.4-4.6-4-7.4-.6-2.8-.3-5.7.8-8.4s2.9-4.9 5.3-6.5c2.4-1.6 5.2-2.4 8-2.4h39.8l-.8-316.8h-39.9c-2.9 0-5.7-.9-8.1-2.4-2.4-1.6-4.2-3.8-5.3-6.5-1.1-2.6-1.4-5.5-.8-8.4.6-2.8 1.9-5.4 4-7.4l63.6-63.5c2.7-2.7 6.4-4.2 10.2-4.2 3.9 0 7.5 1.5 10.2 4.2l63.5 63.5c2 2 3.4 4.6 4 7.4.6 2.8.3 5.7-.8 8.4s-2.9 4.9-5.3 6.5c-2.4 1.6-5.2 2.4-8 2.4h-39.8v71l.9 245.8h39.8c2.9 0 5.7.9 8.1 2.4 2.4 1.6 4.2 3.9 5.3 6.5 1.1 2.6 1.4 5.5.8 8.4-.6 2.8-1.9 5.4-4 7.4l-63.6 63.5c-2.7 2.7-6.4 4.2-10.2 4.2zM78 157c-.9 0-1.9-.1-2.8-.3-2.8-.6-5.4-1.9-7.4-4L4.2 89.2C1.5 86.4 0 82.8 0 78.9c0-3.9 1.5-7.5 4.2-10.2L67.8 5.2c2-2 4.6-3.4 7.4-4 .9-.2 1.9-.3 2.8-.3 1.9 0 3.8.4 5.5 1.1 2.7 1.1 4.9 3 6.5 5.3 1.6 2.4 2.4 5.2 2.4 8v39.8l316.8-.8V14.4c0-2.9.9-5.7 2.5-8.1 1.6-2.4 3.8-4.2 6.5-5.3 1.7-.7 3.6-1.1 5.5-1.1.9 0 1.9.1 2.8.3 2.8.6 5.4 1.9 7.4 4l63.5 63.6c2.7 2.7 4.2 6.4 4.2 10.2 0 3.9-1.5 7.5-4.2 10.2l-63.5 63.5c-2 2-4.6 3.4-7.4 4-.9.2-1.9.3-2.8.3-1.9 0-3.8-.4-5.5-1.1-2.7-1.1-4.9-3-6.5-5.3-1.6-2.4-2.4-5.2-2.4-8v-39.8h-71l-245.8.9v39.8c0 2.9-.9 5.7-2.4 8.1-1.6 2.4-3.9 4.2-6.5 5.3-1.8.7-3.7 1.1-5.6 1.1zM51.8 664.6c-12 0-23.3-4.7-31.8-13.2S6.8 631.6 6.8 619.5V221.3c0-12 4.7-23.3 13.2-31.8s19.8-13.2 31.8-13.2h398.3c12 0 23.3 4.7 31.8 13.2s13.2 19.8 13.2 31.8v398.3c0 12-4.7 23.3-13.2 31.8s-19.8 13.2-31.8 13.2H51.8zm395.8-47.5V223.8H54.3v393.3h393.3z" fill="#0691e0"/></svg>