<svg id="Capa_1" data-name="Capa 1" xmlns="http://www.w3.org/2000/svg" viewBox="0 0 98.83 80.42"><defs><style>.cls-1{fill:#e4f5ff;}</style></defs><title>Монтажная область 1</title><path class="cls-1" d="M2.07,32.4C7.32,13.63,20.27,0,32.85,0a17.64,17.64,0,0,1,3,.26,2,2,0,0,1,1.35.9,2,2,0,0,1,.23,1.61L34.85,12a2,2,0,0,1-2,1.46h-.21c-4.66,0-13.2,7-17.54,22.55-.18.61-.34,1.25-.5,1.9a22.76,22.76,0,0,1,16-1.5A22.4,22.4,0,1,1,18.51,79.59C10.66,77.39,4.76,70.88,1.9,61.25-.69,52.56-.63,42.05,2.07,32.4Z"/><path class="cls-1" d="M84.74,0a17.61,17.61,0,0,1,3,.26,2,2,0,0,1,1.59,2.51L86.73,12a2,2,0,0,1-2,1.46h-.2c-4.67,0-13.2,7-17.55,22.55-.17.62-.34,1.25-.49,1.9a22.75,22.75,0,0,1,16-1.5A22.4,22.4,0,1,1,70.39,79.59c-7.85-2.2-13.75-8.71-16.61-18.34C51.19,52.56,51.26,42,54,32.4,59.2,13.63,72.15,0,84.74,0Z"/></svg>