<svg data-name="Capa 1" xmlns="http://www.w3.org/2000/svg" viewBox="0 0 98.83 80.42"><path d="M96.76 32.4C91.51 13.63 78.56 0 66 0a17.61 17.61 0 00-3 .26 2 2 0 00-1.35.9 2 2 0 00-.23 1.61L64 12a2 2 0 002 1.46h.21c4.66 0 13.19 7 17.54 22.55.18.61.34 1.25.5 1.9a22.76 22.76 0 00-16-1.5 22.4 22.4 0 1012.07 43.18c7.85-2.2 13.75-8.71 16.61-18.34 2.59-8.69 2.53-19.2-.17-28.85zM14.09 0a17.61 17.61 0 00-3 .26A2 2 0 009.5 2.77L12.1 12a2 2 0 002 1.46h.2c4.67 0 13.2 7 17.55 22.55.17.62.33 1.25.49 1.9a22.75 22.75 0 00-16-1.5 22.4 22.4 0 1012.1 43.18c7.85-2.2 13.74-8.71 16.61-18.34 2.59-8.69 2.52-19.21-.17-28.85C39.63 13.63 26.68 0 14.09 0z" fill="#92d5fc"/></svg>