<svg version="1.1" id="Capa_1" xmlns="http://www.w3.org/2000/svg" x="0" y="0" viewBox="0 0 429.6 451.8" xml:space="preserve"><style>.st0{fill:#00b7fb}</style><path class="st0" d="M248.3 248.3L54 442.6c-12.4 12.4-32.4 12.4-44.8 0-12.4-12.4-12.4-32.4 0-44.7L181.1 226 9.3 54C-3.1 41.7-3.1 21.6 9.3 9.3 21.6-3.1 41.7-3.1 54 9.3l194.3 194.3c6.2 6.2 9.3 14.3 9.3 22.4 0 8-3.1 16.1-9.3 22.3z"/><path class="st0" d="M420.3 248.3L226 442.6c-12.4 12.4-32.4 12.4-44.8 0-12.4-12.4-12.4-32.4 0-44.7L353.1 226 181.3 54c-12.4-12.4-12.4-32.4 0-44.7 12.4-12.4 32.4-12.4 44.8 0l194.3 194.3c6.2 6.2 9.3 14.3 9.3 22.4-.1 8-3.2 16.1-9.4 22.3z"/></svg>