<svg version="1.1" id="Слой_1" xmlns="http://www.w3.org/2000/svg" x="0" y="0" viewBox="0 0 814.3 285.7" xml:space="preserve"><style>.st0{opacity:.3}.st4{fill:#c5c5c5}</style><g class="st0"><linearGradient id="SVGID_1_" gradientUnits="userSpaceOnUse" x1="261.218" y1="669.152" x2="10.782" y2="562.848" gradientTransform="translate(0 -480)"><stop offset="0" stop-color="#192475"/><stop offset=".174" stop-color="#1b2878"/><stop offset=".339" stop-color="#203382"/><stop offset=".5" stop-color="#284693"/><stop offset=".658" stop-color="#3461ab"/><stop offset=".815" stop-color="#4384ca"/><stop offset=".968" stop-color="#56adef"/><stop offset="1" stop-color="#5ab7f8"/></linearGradient><path d="M136 0C60.9 0 0 60.9 0 136s60.9 136 136 136 136-60.9 136-136S211.1 0 136 0zm.7 198.3c-34.4 0-62.3-27.9-62.3-62.3s27.9-62.3 62.3-62.3S199 101.6 199 136s-27.9 62.3-62.3 62.3z" fill="url(#SVGID_1_)"/></g><g class="st0"><linearGradient id="SVGID_2_" gradientUnits="userSpaceOnUse" x1="132.846" y1="525.813" x2="213.154" y2="706.186" gradientTransform="translate(0 -480)"><stop offset="0" stop-color="#030ea1"/><stop offset=".104" stop-color="#0715a3"/><stop offset=".249" stop-color="#1327aa"/><stop offset=".419" stop-color="#2745b4"/><stop offset=".608" stop-color="#436ec3"/><stop offset=".809" stop-color="#65a3d6"/><stop offset="1" stop-color="#8bdcea"/></linearGradient><path d="M173 37.3c-54.5 0-98.7 44.2-98.7 98.7 0-34.4 27.9-62.3 62.3-62.3s62.3 27.9 62.3 62.3-27.9 62.3-62.3 62.3-62.3-27.9-62.3-62.3c0 54.5 44.2 98.7 98.7 98.7s98.7-44.2 98.7-98.7-44.2-98.7-98.7-98.7z" fill="url(#SVGID_2_)"/></g><path fill="none" d="M528 285.7H266"/><g class="st0"><path class="st4" d="M339.9 133.2H317l-4.4 17.7h-20.7l20.4-69.2c.4-1.6 1.2-2.9 2.4-3.8 1.3-1 2.7-1.5 4.4-1.5h18.8c1.7 0 3.1.5 4.4 1.5s2.1 2.3 2.5 3.8l20.3 69.2h-20.7l-4.5-17.7zm-3.8-14.7l-4.8-19.1c-.8-3.7-1.3-6.3-1.4-7.8H327c-.5 2.7-1 5.3-1.5 7.8l-4.8 19.1h15.4zm97.6 32.4h-21.3l-5.3-22.5c-.5-2.2-1.3-3.6-2.3-4.4s-2.6-1.2-4.7-1.2h-9.2v28.1h-20V76.4c7.1-.7 17.1-1.1 30.1-1.1 10.7 0 18.4 1.6 22.9 4.9s6.8 9.1 6.8 17.5c0 10.9-4.9 17-14.7 18v.6c6.3 1 10.1 4.8 11.4 11.4l6.3 23.2zm-42.8-42.8h9.7c3.8 0 6.4-.6 7.7-1.8 1.3-1.2 2-3.6 2-7.1s-.7-5.9-2-7.1-3.9-1.8-7.7-1.8h-9.7v17.8zm109-16h-21.5V151h-20.3V92.1h-21.4V76.4h63.2v15.7zm57.1 32.3l-14.9-5.9c-5.8-2.4-10-5.3-12.4-8.7-2.4-3.4-3.7-7.9-3.7-13.4 0-8.4 2.1-14 6.4-16.9 4.2-2.9 11.8-4.4 22.7-4.4 10.4 0 19.1 1.1 25.9 3.3l-1.3 13.3c-12.7-.2-21-.3-24.8-.3-3.5 0-5.8.3-7 .9s-1.8 1.8-1.8 3.8c0 1.7.5 2.9 1.5 3.8s2.9 1.8 5.6 2.8l13.7 5.3c6 2.4 10.2 5.3 12.6 8.7 2.4 3.5 3.7 8 3.7 13.6 0 8.4-2.1 14.2-6.3 17.4s-11.8 4.8-22.8 4.8c-9.5 0-18.6-1.1-27.3-3.2l1.2-14.4c14.8.4 23.4.5 26 .5 3.6 0 6-.3 7.2-.9 1.2-.6 1.8-1.9 1.8-3.7 0-1.7-.4-3-1.2-3.8-.9-.9-2.5-1.8-4.8-2.6zm56.3 26.5h-20.1V76.4h20.1v74.5zm71.3-58.8h-21.5V151h-20.3V92.1h-21.4V76.4h63.2v15.7zm60.4 43.4l1 14.6c-7.1.8-19.4 1.2-36.9 1.2-5.1 0-9.2-1.5-12.3-4.4s-4.6-6.8-4.6-11.6V92.1c0-4.8 1.6-8.7 4.7-11.6s7.2-4.4 12.3-4.4c17.6 0 29.9.4 36.9 1.2l-1 14.6h-28c-3.1 0-4.6 1.5-4.6 4.6v9.1H741v13.9h-28.6v11.3c0 3.1 1.5 4.6 4.6 4.6h28v.1zm39.4-11.1l-14.9-5.9c-5.8-2.4-10-5.3-12.4-8.7-2.4-3.4-3.7-7.9-3.7-13.4 0-8.4 2.1-14 6.4-16.9 4.2-2.9 11.8-4.4 22.7-4.4 10.4 0 19.1 1.1 25.9 3.3l-1.3 13.3c-12.7-.2-21-.3-24.8-.3-3.5 0-5.8.3-7 .9s-1.8 1.8-1.8 3.8c0 1.7.5 2.9 1.5 3.8s2.9 1.8 5.6 2.8l13.7 5.3c6 2.4 10.2 5.3 12.6 8.7 2.4 3.5 3.7 8 3.7 13.6 0 8.4-2.1 14.2-6.3 17.4s-11.8 4.8-22.8 4.8c-9.5 0-18.6-1.1-27.3-3.2l1.2-14.4c14.8.4 23.4.5 26 .5 3.6 0 6-.3 7.2-.9 1.2-.6 1.8-1.9 1.8-3.7 0-1.7-.4-3-1.2-3.8-1-.9-2.5-1.8-4.8-2.6z"/></g><g class="st0"><path class="st4" d="M339.5 185.7l-8.6 26.5c-.2.7-.7 1.1-1.5 1.1H326c-.8 0-1.3-.4-1.5-1.2l-5.5-19.8c-.2-.5-.3-1.2-.6-2.1-.2-.9-.4-1.7-.5-2.2h-.6l-1.1 4.3-5.4 19.8c-.2.8-.7 1.2-1.5 1.2H306c-.8 0-1.3-.4-1.5-1.1l-8.6-26.5h3.8l6.5 21.1c.2.6.6 2 1.1 4h.7l1.1-4 5.5-20c.2-.8.7-1.1 1.4-1.1h3.3c.8 0 1.2.4 1.4 1.2l5.5 19.9 1 4h.8c.6-2.2.9-3.5 1-4l6.6-21.1h3.9zm22.4 15.6h-13.8c.2 3.6 1.1 6.2 2.5 7.5 1.4 1.4 3.8 2.1 7.1 2.1 2.9 0 6-.2 9.5-.7l.4 2.5c-2.4.9-5.8 1.4-10.4 1.4s-7.9-1.1-9.9-3.3-2.9-6-2.9-11.3.9-9.1 2.9-11.2c1.9-2.1 5.1-3.2 9.5-3.2 3.9 0 6.8.7 8.7 2.1 1.9 1.4 2.8 3.6 2.9 6.5-.1 5-2.2 7.6-6.5 7.6zm-13.8-2.8H361c2.4 0 3.6-1.6 3.5-4.8 0-1.9-.7-3.3-1.9-4.2-1.2-.9-3.2-1.3-5.8-1.3-3.2 0-5.5.8-6.8 2.3-1.2 1.4-1.8 4.1-1.9 8zm31.6-25.1v11.1c0 2.7-.1 4.6-.4 5.9 3.7-3.6 7.3-5.4 10.9-5.4 3.5 0 6.1 1.1 7.7 3.4 1.6 2.2 2.4 5.9 2.4 11.1 0 5.1-.9 8.7-2.7 11.1-1.8 2.3-4.8 3.5-9.2 3.5-4.2 0-8.3-.6-12.3-1.9v-38.7h3.6v-.1zm0 19.5v16.9c2.8.8 5.7 1.2 8.7 1.1 3 0 5.1-.9 6.3-2.6 1.2-1.7 1.9-4.7 1.9-8.8 0-4.2-.5-7.2-1.6-8.8-1-1.7-3-2.5-5.7-2.5-1.5 0-2.9.4-4.3 1.1-1.5.7-3.2 1.9-5.3 3.6zm45.8 7.5H408v-2.8h17.5v2.8zm22.1 1.2l-8.4-1.6c-2.2-.4-3.7-1.2-4.7-2.4s-1.5-2.9-1.5-5.2c0-3.1.8-5.2 2.4-6.1 1.6-1 4.3-1.4 8.2-1.4 4.2.1 7.9.4 11.3.9l-.3 2.6c-4.6-.2-8.1-.3-10.5-.3-3 0-5.1.2-6 .7-1 .5-1.5 1.7-1.5 3.7 0 1.6.3 2.6 1 3.2.6.6 1.7 1.1 3.2 1.4l8.5 1.6c2.2.5 3.8 1.2 4.8 2.4 1 1.1 1.5 2.8 1.5 5 0 3.2-.9 5.3-2.6 6.3s-4.7 1.5-8.9 1.5c-3.8 0-7.3-.2-10.5-.7l.3-2.7c3 .3 6.2.4 9.6.3 3.4 0 5.7-.4 6.8-.9 1.2-.6 1.7-1.9 1.7-3.8 0-1.5-.4-2.5-1.1-3.1s-1.7-1-3.3-1.4zm29.9 8.9l.5 2.7c-1.9.4-3.8.6-5.8.6-4.6 0-6.8-2.3-6.8-6.9v-18.3h-5V186l5-.3v-8.4h3.6v8.4h9.3v2.8H469v17.9c0 2.7 1.3 4 4 4h4.5v.1zm29.7-24.8v27.6h-2.8l-.3-4.3c-4.3 3.3-8.3 5-12.3 5-5 0-7.5-2.5-7.5-7.5v-20.7h3.6v19.8c0 1.9.4 3.3 1.2 4.1s2.1 1.3 3.9 1.3c1.6 0 3.1-.4 4.7-1.1 1.6-.7 3.5-1.9 5.9-3.5v-20.6h3.6v-.1zm29.7 27.6l-.4-4.3c-3.8 3.3-7.4 5-11.1 5-3.5 0-6-1.2-7.6-3.5-1.5-2.3-2.3-6-2.3-11.1 0-5.2.8-9 2.5-11.2 1.6-2.2 4.3-3.3 7.9-3.3 3.5 0 7 .9 10.4 2.7-.2-1.3-.2-3.1-.2-5.4v-8.8h3.6v39.9h-2.8zm-.8-6.9v-16.2c-3.9-1.3-7.1-2-9.5-2-2.7 0-4.6.8-5.7 2.4-1.1 1.6-1.6 4.6-1.6 8.8 0 4.3.5 7.3 1.6 8.9 1.1 1.7 2.9 2.5 5.5 2.5 1.6 0 3-.3 4.4-1s3.1-1.7 5.3-3.4zm14.4-32.3h1.7c.8 0 1.2.4 1.2 1.2v3.3c0 .8-.4 1.2-1.2 1.2h-1.7c-.8 0-1.2-.4-1.2-1.2v-3.3c0-.8.4-1.2 1.2-1.2zm2.6 39.2h-3.6v-27.6h3.6v27.6zm11.3-25c1.9-2.2 5.2-3.3 9.8-3.3s7.9 1.1 9.8 3.3 2.9 5.9 2.9 11.3c0 5.3-1 9.1-2.9 11.2s-5.2 3.2-9.8 3.2-7.9-1.1-9.8-3.3c-1.9-2.2-2.9-5.9-2.9-11.2s.9-9 2.9-11.2zm16.8 2.3c-1.3-1.6-3.6-2.5-7-2.5s-5.7.8-7 2.5-1.9 4.6-1.9 8.9.6 7.3 1.9 8.9c1.3 1.6 3.6 2.5 7 2.5s5.7-.8 7-2.5c1.3-1.6 1.9-4.6 1.9-8.9s-.7-7.3-1.9-8.9z"/></g></svg>