<svg id="Режим_изоляции" data-name="Режим изоляции" xmlns="http://www.w3.org/2000/svg" viewBox="0 0 335.73 406.3"><defs><style>.cls-1{fill:none;stroke:#e4f5ff;stroke-miterlimit:10;stroke-width:3.78px;}</style></defs><title>Artboard 1</title><polygon class="cls-1" points="142.04 311.95 150.62 326.5 167.51 326.65 159.2 341.36 167.51 356.06 150.62 356.21 142.04 370.76 133.47 356.21 116.58 356.06 124.89 341.36 116.58 326.65 133.47 326.5 142.04 311.95"/><polygon class="cls-1" points="85.42 344.04 93.99 358.59 110.88 358.74 102.57 373.45 110.88 388.15 93.99 388.3 85.42 402.85 76.84 388.3 59.95 388.15 68.26 373.45 59.95 358.74 76.84 358.59 85.42 344.04"/><polygon class="cls-1" points="28.79 311.95 37.37 326.5 54.25 326.65 45.94 341.36 54.25 356.06 37.37 356.21 28.79 370.76 20.21 356.21 3.32 356.06 11.64 341.36 3.32 326.65 20.21 326.5 28.79 311.95"/><polygon class="cls-1" points="142.04 247.77 150.62 262.32 167.51 262.48 159.2 277.18 167.51 291.88 150.62 292.03 142.04 306.58 133.47 292.03 116.58 291.88 124.89 277.18 116.58 262.48 133.47 262.32 142.04 247.77"/><polygon class="cls-1" points="85.42 279.86 93.99 294.41 110.88 294.57 102.57 309.27 110.88 323.97 93.99 324.12 85.42 338.67 76.84 324.12 59.95 323.97 68.26 309.27 59.95 294.57 76.84 294.41 85.42 279.86"/><polygon class="cls-1" points="28.79 247.77 37.37 262.32 54.25 262.48 45.94 277.18 54.25 291.88 37.37 292.03 28.79 306.58 20.21 292.03 3.32 291.88 11.64 277.18 3.32 262.48 20.21 262.32 28.79 247.77"/><polygon class="cls-1" points="85.42 215.69 93.99 230.23 110.88 230.39 102.57 245.09 110.88 259.79 93.99 259.94 85.42 274.49 76.84 259.94 59.95 259.79 68.26 245.09 59.95 230.39 76.84 230.23 85.42 215.69"/><polygon class="cls-1" points="198.43 215.91 207.01 230.46 223.9 230.61 215.59 245.31 223.9 260.01 207.01 260.17 198.43 274.71 189.86 260.17 172.97 260.01 181.28 245.31 172.97 230.61 189.86 230.46 198.43 215.91"/><polygon class="cls-1" points="198.12 278.53 206.7 293.08 223.59 293.23 215.27 307.93 223.59 322.63 206.7 322.79 198.12 337.34 189.54 322.79 172.66 322.63 180.97 307.93 172.66 293.23 189.54 293.08 198.12 278.53"/><polygon class="cls-1" points="198.43 152.5 207.01 167.05 223.9 167.2 215.59 181.9 223.9 196.6 207.01 196.76 198.43 211.31 189.86 196.76 172.97 196.6 181.28 181.9 172.97 167.2 189.86 167.05 198.43 152.5"/><polygon class="cls-1" points="252.69 184.2 261.26 198.75 278.15 198.91 269.84 213.61 278.15 228.31 261.26 228.46 252.69 243.01 244.11 228.46 227.22 228.31 235.53 213.61 227.22 198.91 244.11 198.75 252.69 184.2"/><polygon class="cls-1" points="252.69 120.8 261.26 135.35 278.15 135.5 269.84 150.2 278.15 164.9 261.26 165.06 252.69 179.6 244.11 165.06 227.22 164.9 235.53 150.2 227.22 135.5 244.11 135.35 252.69 120.8"/><polygon class="cls-1" points="306.94 89.38 315.52 103.93 332.4 104.08 324.09 118.78 332.4 133.48 315.52 133.64 306.94 148.19 298.36 133.64 281.48 133.48 289.79 118.78 281.48 104.08 298.36 103.93 306.94 89.38"/><polygon class="cls-1" points="163.09 4.08 171.66 18.63 188.55 18.78 180.24 33.48 188.55 48.18 171.66 48.34 163.09 62.89 154.51 48.34 137.62 48.18 145.94 33.48 137.62 18.78 154.51 18.63 163.09 4.08"/></svg>