<svg data-name="Режим изоляции" xmlns="http://www.w3.org/2000/svg" viewBox="0 0 335.73 406.3"><path d="M142.04 311.95l8.58 14.55 16.89.15-8.31 14.71 8.31 14.7-16.89.15-8.58 14.55-8.57-14.55-16.89-.15 8.31-14.7-8.31-14.71 16.89-.15 8.57-14.55zm-56.62 32.09l8.57 14.55 16.89.15-8.31 14.71 8.31 14.7-16.89.15-8.57 14.55-8.58-14.55-16.89-.15 8.31-14.7-8.31-14.71 16.89-.15 8.58-14.55zm-56.63-32.09l8.58 14.55 16.88.15-8.31 14.71 8.31 14.7-16.88.15-8.58 14.55-8.58-14.55-16.89-.15 8.32-14.7-8.32-14.71 16.89-.15 8.58-14.55zm113.25-64.18l8.58 14.55 16.89.16-8.31 14.7 8.31 14.7-16.89.15-8.58 14.55-8.57-14.55-16.89-.15 8.31-14.7-8.31-14.7 16.89-.16 8.57-14.55zm-56.62 32.09l8.57 14.55 16.89.16-8.31 14.7 8.31 14.7-16.89.15-8.57 14.55-8.58-14.55-16.89-.15 8.31-14.7-8.31-14.7 16.89-.16 8.58-14.55zm-56.63-32.09l8.58 14.55 16.88.16-8.31 14.7 8.31 14.7-16.88.15-8.58 14.55-8.58-14.55-16.89-.15 8.32-14.7-8.32-14.7 16.89-.16 8.58-14.55zm56.63-32.08l8.57 14.54 16.89.16-8.31 14.7 8.31 14.7-16.89.15-8.57 14.55-8.58-14.55-16.89-.15 8.31-14.7-8.31-14.7 16.89-.16 8.58-14.54zm113.01.22l8.58 14.55 16.89.15-8.31 14.7 8.31 14.7-16.89.16-8.58 14.54-8.57-14.54-16.89-.16 8.31-14.7-8.31-14.7 16.89-.15 8.57-14.55zm-.31 62.62l8.58 14.55 16.89.15-8.32 14.7 8.32 14.7-16.89.16-8.58 14.55-8.58-14.55-16.88-.16 8.31-14.7-8.31-14.7 16.88-.15 8.58-14.55zm.31-126.03l8.58 14.55 16.89.15-8.31 14.7 8.31 14.7-16.89.16-8.58 14.55-8.57-14.55-16.89-.16 8.31-14.7-8.31-14.7 16.89-.15 8.57-14.55zm54.26 31.7l8.57 14.55 16.89.16-8.31 14.7 8.31 14.7-16.89.15-8.57 14.55-8.58-14.55-16.89-.15 8.31-14.7-8.31-14.7 16.89-.16 8.58-14.55zm0-63.4l8.57 14.55 16.89.15-8.31 14.7 8.31 14.7-16.89.16-8.57 14.54-8.58-14.54-16.89-.16 8.31-14.7-8.31-14.7 16.89-.15 8.58-14.55zm54.25-31.42l8.58 14.55 16.88.15-8.31 14.7 8.31 14.7-16.88.16-8.58 14.55-8.58-14.55-16.88-.16 8.31-14.7-8.31-14.7 16.88-.15 8.58-14.55zM163.09 4.08l8.57 14.55 16.89.15-8.31 14.7 8.31 14.7-16.89.16-8.57 14.55-8.58-14.55-16.89-.16 8.32-14.7-8.32-14.7 16.89-.15 8.58-14.55z" fill="none" stroke="#e4f5ff" stroke-miterlimit="10" stroke-width="3.78"/></svg>