<svg xmlns="http://www.w3.org/2000/svg" viewBox="0 0 794.2 419.2"><path d="M424.7 324.6l8.6 14.5 16.9.2-8.4 14.7 8.4 14.7-16.9.1-8.6 14.6-8.6-14.6-16.9-.1 8.3-14.7-8.3-14.7 16.9-.2zm-56.6 32l8.5 14.6 16.9.1-8.3 14.7 8.3 14.7-16.9.2-8.5 14.6-8.6-14.6-16.9-.2 8.3-14.7-8.3-14.7 16.9-.1zm-56.7-32l8.6 14.5 16.9.2-8.3 14.7 8.3 14.7-16.9.1-8.6 14.6-8.5-14.6-16.9-.1 8.3-14.7-8.3-14.7 16.9-.2zm113.3-64.2l8.6 14.5 16.9.2-8.4 14.7 8.4 14.7-16.9.1-8.6 14.6-8.6-14.6-16.9-.1 8.3-14.7-8.3-14.7 16.9-.2zm-56.6 32.1l8.5 14.5 16.9.2-8.3 14.7 8.3 14.7-16.9.1-8.5 14.6-8.6-14.6-16.9-.1 8.3-14.7-8.3-14.7 16.9-.2zm-56.7-32.1l8.6 14.5 16.9.2-8.3 14.7 8.3 14.7-16.9.1-8.6 14.6-8.5-14.6-16.9-.1 8.3-14.7-8.3-14.7 16.9-.2zm56.7-32.1l8.5 14.5 16.9.2-8.3 14.7 8.3 14.7-16.9.1-8.5 14.6-8.6-14.6-16.9-.1 8.3-14.7-8.3-14.7 16.9-.2zm225.5.7l8.6 14.5 16.9.2-8.3 14.7 8.3 14.7-16.9.1-8.6 14.6-8.5-14.6-16.9-.1 8.3-14.7-8.3-14.7 16.9-.2zM537 261.1l8.6 14.5 16.9.2-8.3 14.7 8.3 14.7-16.9.1-8.6 14.6-8.6-14.6-16.9-.1 8.4-14.7-8.4-14.7 16.9-.2zM480.4 229l8.6 14.5 16.8.2-8.3 14.7 8.3 14.7-16.8.1-8.6 14.6-8.6-14.6-16.9-.1 8.3-14.7-8.3-14.7 16.9-.2zm113.2-64.2l8.6 14.5 16.9.2-8.3 14.7 8.3 14.7-16.9.2-8.6 14.5-8.5-14.5-16.9-.2 8.3-14.7-8.3-14.7 16.9-.2zM537 196.9l8.6 14.5 16.9.2-8.3 14.7 8.3 14.7-16.9.1-8.6 14.6-8.6-14.6-16.9-.1 8.4-14.7-8.4-14.7 16.9-.2zm-56.6-32.1l8.6 14.5 16.8.2-8.3 14.7 8.3 14.7-16.8.2-8.6 14.5-8.6-14.5-16.9-.2 8.3-14.7-8.3-14.7 16.9-.2zm56.6-32.1l8.6 14.6 16.9.1-8.3 14.7 8.3 14.7-16.9.2-8.6 14.5-8.6-14.5-16.9-.2 8.4-14.7-8.4-14.7 16.9-.1zM255.5 229l8.6 14.5 16.9.2-8.3 14.7 8.3 14.7-16.9.1-8.6 14.6-8.6-14.6-16.9-.1 8.3-14.7-8.3-14.7 16.9-.2zm-56.6 32.1l8.5 14.5 16.9.2-8.3 14.7 8.3 14.7-16.9.1-8.5 14.6-8.6-14.6-16.9-.1 8.3-14.7-8.3-14.7 16.9-.2zM142.2 229l8.6 14.5 16.9.2-8.3 14.7 8.3 14.7-16.9.1-8.6 14.6-8.5-14.6-16.9-.1 8.3-14.7-8.3-14.7 16.9-.2zm113.3-64.2l8.6 14.5 16.9.2-8.3 14.7 8.3 14.7-16.9.2-8.6 14.5-8.6-14.5-16.9-.2 8.3-14.7-8.3-14.7 16.9-.2zm-56.6 32.1l8.5 14.5 16.9.2-8.3 14.7 8.3 14.7-16.9.1-8.5 14.6-8.6-14.6-16.9-.1 8.3-14.7-8.3-14.7 16.9-.2zm-56.7-32.1l8.6 14.5 16.9.2-8.3 14.7 8.3 14.7-16.9.2-8.6 14.5-8.5-14.5-16.9-.2 8.3-14.7-8.3-14.7 16.9-.2zm56.7-32.1l8.5 14.6 16.9.1-8.3 14.7 8.3 14.7-16.9.2-8.5 14.5-8.6-14.5-16.9-.2 8.3-14.7-8.3-14.7 16.9-.1zm-57-32.7l8.6 14.5 16.9.2-8.3 14.7 8.3 14.7-16.9.1-8.6 14.6-8.5-14.6-16.9-.1 8.3-14.7-8.3-14.7 16.9-.2zm-56.6 32.1l8.6 14.5 16.9.2-8.3 14.7 8.3 14.7-16.9.1-8.6 14.6-8.6-14.6-16.9-.1 8.4-14.7-8.4-14.7 16.9-.2zM28.7 100l8.6 14.5 16.8.2-8.3 14.7 8.3 14.7-16.8.1-8.6 14.6-8.6-14.6-16.9-.1 8.3-14.7-8.3-14.7 16.9-.2zm113.2-64.2l8.6 14.6 16.9.1-8.3 14.7 8.3 14.7-16.9.2-8.6 14.5-8.5-14.5-16.9-.2 8.3-14.7-8.3-14.7 16.9-.1zM85.3 67.9l8.6 14.5 16.9.2-8.3 14.7 8.3 14.7-16.9.2-8.6 14.5-8.6-14.5-16.9-.2 8.4-14.7-8.4-14.7 16.9-.2zM28.7 35.8l8.6 14.6 16.8.1-8.3 14.7 8.3 14.7-16.8.2-8.6 14.5-8.6-14.5-16.9-.2 8.3-14.7-8.3-14.7 16.9-.1zM85.3 3.7l8.6 14.6 16.9.1-8.3 14.7 8.3 14.7-16.9.2-8.6 14.5L76.7 48l-16.9-.2 8.4-14.7-8.4-14.7 16.9-.1zm339.4 128.7l8.6 14.5 16.9.2-8.4 14.7 8.4 14.7-16.9.1-8.6 14.6-8.6-14.6-16.9-.1 8.3-14.7-8.3-14.7 16.9-.2zm-56.6 32.1l8.5 14.5 16.9.2-8.3 14.7 8.3 14.7-16.9.1-8.5 14.6-8.6-14.6-16.9-.1 8.3-14.7-8.3-14.7 16.9-.2zm-56.7-32.1l8.6 14.5 16.9.2-8.3 14.7 8.3 14.7-16.9.1-8.6 14.6-8.5-14.6-16.9-.1 8.3-14.7-8.3-14.7 16.9-.2zm113.3-64.2l8.6 14.6 16.9.1-8.4 14.7 8.4 14.7-16.9.2-8.6 14.5-8.6-14.5-16.9-.2 8.3-14.7-8.3-14.7 16.9-.1zm-56.6 32.1l8.5 14.5 16.9.2-8.3 14.7 8.3 14.7-16.9.2-8.5 14.5-8.6-14.5-16.9-.2 8.3-14.7-8.3-14.7 16.9-.2zm-56.7-32.1l8.6 14.6 16.9.1-8.3 14.7 8.3 14.7-16.9.2-8.6 14.5-8.5-14.5-16.9-.2 8.3-14.7-8.3-14.7 16.9-.1zm56.7-32.1l8.5 14.6 16.9.1-8.3 14.7 8.3 14.7-16.9.2-8.5 14.5-8.6-14.5-16.9-.2 8.3-14.7-8.3-14.7 16.9-.1zm282.2 96l8.6 14.5 16.9.2-8.3 14.7 8.3 14.7-16.9.1-8.6 14.6-8.5-14.6-16.9-.1 8.3-14.7-8.3-14.7 16.9-.2zm0-64.2l8.6 14.5 16.9.2-8.3 14.7 8.3 14.7-16.9.2-8.6 14.5-8.5-14.5-16.9-.2 8.3-14.7-8.3-14.7 16.9-.2zM765.5 3.7l8.6 14.6 16.9.1-8.3 14.7 8.3 14.7-16.9.2-8.6 14.5-8.6-14.5-16.8-.2 8.3-14.7-8.3-14.7 16.8-.1z" fill="none" stroke="#f2f2f2" stroke-width="3.775" stroke-miterlimit="10"/></svg>