<?xml version="1.0" encoding="utf-8"?>
<!-- Generator: Adobe Illustrator 23.0.3, SVG Export Plug-In . SVG Version: 6.00 Build 0)  -->
<svg version="1.1" id="Режим_изоляции"
	 xmlns="http://www.w3.org/2000/svg" xmlns:xlink="http://www.w3.org/1999/xlink" x="0px" y="0px" viewBox="0 0 310.9 291.8"
	 style="enable-background:new 0 0 310.9 291.8;" xml:space="preserve">
<style type="text/css">
	.st0{fill:none;stroke:#F2F2F2;stroke-width:3.7752;stroke-miterlimit:10;}
</style>
<g>
	<g>
		<polygon class="st0" points="282.2,131.9 290.8,146.5 307.7,146.6 299.4,161.3 307.7,176 290.8,176.2 282.2,190.7 273.7,176.2 
			256.8,176 265.1,161.3 256.8,146.6 273.7,146.5 		"/>
		<polygon class="st0" points="225.6,164 234.2,178.6 251.1,178.7 242.8,193.4 251.1,208.1 234.2,208.3 225.6,222.8 217,208.3 
			200.1,208.1 208.4,193.4 200.1,178.7 217,178.6 		"/>
		<polygon class="st0" points="169,131.9 177.5,146.5 194.4,146.6 186.1,161.3 194.4,176 177.5,176.2 169,190.7 160.4,176.2 
			143.5,176 151.8,161.3 143.5,146.6 160.4,146.5 		"/>
		<polygon class="st0" points="282.2,67.8 290.8,82.3 307.7,82.5 299.4,97.2 307.7,111.9 290.8,112 282.2,126.6 273.7,112 
			256.8,111.9 265.1,97.2 256.8,82.5 273.7,82.3 		"/>
		<polygon class="st0" points="225.6,99.8 234.2,114.4 251.1,114.5 242.8,129.3 251.1,144 234.2,144.1 225.6,158.7 217,144.1 
			200.1,144 208.4,129.3 200.1,114.5 217,114.4 		"/>
		<polygon class="st0" points="169,67.8 177.5,82.3 194.4,82.5 186.1,97.2 194.4,111.9 177.5,112 169,126.6 160.4,112 143.5,111.9 
			151.8,97.2 143.5,82.5 160.4,82.3 		"/>
		<polygon class="st0" points="225.6,35.7 234.2,50.2 251.1,50.4 242.8,65.1 251.1,79.8 234.2,79.9 225.6,94.5 217,79.9 200.1,79.8 
			208.4,65.1 200.1,50.4 217,50.2 		"/>
	</g>
</g>
<polygon class="st0" points="169,197.2 177.5,211.7 194.4,211.9 186.1,226.6 194.4,241.3 177.5,241.4 169,256 160.4,241.4 
	143.5,241.3 151.8,226.6 143.5,211.9 160.4,211.7 "/>
<polygon class="st0" points="113.6,229.3 122.2,243.8 139,244 130.7,258.7 139,273.4 122.2,273.6 113.6,288.1 105,273.6 88.1,273.4 
	96.4,258.7 88.1,244 105,243.8 "/>
<polygon class="st0" points="28.7,134.6 37.3,149.2 54.1,149.3 45.8,164 54.1,178.7 37.3,178.9 28.7,193.4 20.1,178.9 3.2,178.7 
	11.5,164 3.2,149.3 20.1,149.2 "/>
<polygon class="st0" points="282.2,3.7 290.8,18.3 307.7,18.4 299.4,33.1 307.7,47.8 290.8,48 282.2,62.5 273.7,48 256.8,47.8 
	265.1,33.1 256.8,18.4 273.7,18.3 "/>
</svg>
