<svg xmlns="http://www.w3.org/2000/svg" viewBox="0 0 226 259.9"><path d="M197.3 100l8.6 14.5 16.9.2-8.3 14.7 8.3 14.7-16.9.1-8.6 14.6-8.5-14.6-16.9-.1 8.3-14.7-8.3-14.7 16.9-.2zm-56.6 32.1l8.6 14.5 16.9.2-8.3 14.7 8.3 14.7-16.9.1-8.6 14.6-8.6-14.6-16.9-.1 8.4-14.7-8.4-14.7 16.9-.2zM84.1 100l8.6 14.5 16.8.2-8.3 14.7 8.3 14.7-16.8.1-8.6 14.6-8.6-14.6-16.9-.1 8.3-14.7-8.3-14.7 16.9-.2zm113.2-64.2l8.6 14.6 16.9.1-8.3 14.7 8.3 14.7-16.9.2-8.6 14.5-8.5-14.5-16.9-.2 8.3-14.7-8.3-14.7 16.9-.1zm-56.6 32.1l8.6 14.5 16.9.2-8.3 14.7 8.3 14.7-16.9.2-8.6 14.5-8.6-14.5-16.9-.2 8.4-14.7-8.4-14.7 16.9-.2zM84.1 35.8l8.6 14.6 16.8.1-8.3 14.7 8.3 14.7-16.8.2-8.6 14.5-8.6-14.5-16.9-.2 8.3-14.7-8.3-14.7 16.9-.1zm56.6-32.1l8.6 14.6 16.9.1-8.3 14.7 8.3 14.7-16.9.2-8.6 14.5-8.6-14.5-16.9-.2 8.4-14.7-8.4-14.7 16.9-.1zM84.1 165.2l8.6 14.6 16.8.1-8.3 14.7 8.3 14.7-16.8.2-8.6 14.5-8.6-14.5-16.9-.2 8.3-14.7-8.3-14.7 16.9-.1zm-55.4 32.1l8.6 14.6 16.8.2-8.3 14.7 8.3 14.7-16.8.1-8.6 14.6-8.6-14.6-16.9-.1 8.3-14.7-8.3-14.7 16.9-.2zm0-129.4l8.6 14.5 16.8.2-8.3 14.7 8.3 14.7-16.8.2-8.6 14.5-8.6-14.5-16.9-.2 8.3-14.7-8.3-14.7 16.9-.2z" fill="none" stroke="#f2f2f2" stroke-width="3.775" stroke-miterlimit="10"/></svg>