<?xml version="1.0" encoding="utf-8"?>
<!-- Generator: Adobe Illustrator 23.0.3, SVG Export Plug-In . SVG Version: 6.00 Build 0)  -->
<svg version="1.1" id="Режим_изоляции"
	 xmlns="http://www.w3.org/2000/svg" xmlns:xlink="http://www.w3.org/1999/xlink" x="0px" y="0px" viewBox="0 0 794.2 419.2"
	 style="enable-background:new 0 0 794.2 419.2;" xml:space="preserve">
<style type="text/css">
	.st0{fill:none;stroke:#F2F2F2;stroke-width:3.7752;stroke-miterlimit:10;}
</style>
<g>
	<g>
		<polygon class="st0" points="424.7,324.6 433.3,339.1 450.2,339.3 441.8,354 450.2,368.7 433.3,368.8 424.7,383.4 416.1,368.8 
			399.2,368.7 407.5,354 399.2,339.3 416.1,339.1 		"/>
		<polygon class="st0" points="368.1,356.6 376.6,371.2 393.5,371.3 385.2,386 393.5,400.7 376.6,400.9 368.1,415.5 359.5,400.9 
			342.6,400.7 350.9,386 342.6,371.3 359.5,371.2 		"/>
		<polygon class="st0" points="311.4,324.6 320,339.1 336.9,339.3 328.6,354 336.9,368.7 320,368.8 311.4,383.4 302.9,368.8 
			286,368.7 294.3,354 286,339.3 302.9,339.1 		"/>
		<polygon class="st0" points="424.7,260.4 433.3,274.9 450.2,275.1 441.8,289.8 450.2,304.5 433.3,304.6 424.7,319.2 416.1,304.6 
			399.2,304.5 407.5,289.8 399.2,275.1 416.1,274.9 		"/>
		<polygon class="st0" points="368.1,292.5 376.6,307 393.5,307.2 385.2,321.9 393.5,336.6 376.6,336.7 368.1,351.3 359.5,336.7 
			342.6,336.6 350.9,321.9 342.6,307.2 359.5,307 		"/>
		<polygon class="st0" points="311.4,260.4 320,274.9 336.9,275.1 328.6,289.8 336.9,304.5 320,304.6 311.4,319.2 302.9,304.6 
			286,304.5 294.3,289.8 286,275.1 302.9,274.9 		"/>
		<polygon class="st0" points="368.1,228.3 376.6,242.8 393.5,243 385.2,257.7 393.5,272.4 376.6,272.5 368.1,287.1 359.5,272.5 
			342.6,272.4 350.9,257.7 342.6,243 359.5,242.8 		"/>
	</g>
</g>
<g>
	<g>
		<polygon class="st0" points="593.6,229 602.2,243.5 619.1,243.7 610.8,258.4 619.1,273.1 602.2,273.2 593.6,287.8 585.1,273.2 
			568.2,273.1 576.5,258.4 568.2,243.7 585.1,243.5 		"/>
		<polygon class="st0" points="537,261.1 545.6,275.6 562.5,275.8 554.2,290.5 562.5,305.2 545.6,305.3 537,319.9 528.4,305.3 
			511.5,305.2 519.9,290.5 511.5,275.8 528.4,275.6 		"/>
		<polygon class="st0" points="480.4,229 489,243.5 505.8,243.7 497.5,258.4 505.8,273.1 489,273.2 480.4,287.8 471.8,273.2 
			454.9,273.1 463.2,258.4 454.9,243.7 471.8,243.5 		"/>
		<polygon class="st0" points="593.6,164.8 602.2,179.3 619.1,179.5 610.8,194.2 619.1,208.9 602.2,209.1 593.6,223.6 585.1,209.1 
			568.2,208.9 576.5,194.2 568.2,179.5 585.1,179.3 		"/>
		<polygon class="st0" points="537,196.9 545.6,211.4 562.5,211.6 554.2,226.3 562.5,241 545.6,241.1 537,255.7 528.4,241.1 
			511.5,241 519.9,226.3 511.5,211.6 528.4,211.4 		"/>
		<polygon class="st0" points="480.4,164.8 489,179.3 505.8,179.5 497.5,194.2 505.8,208.9 489,209.1 480.4,223.6 471.8,209.1 
			454.9,208.9 463.2,194.2 454.9,179.5 471.8,179.3 		"/>
		<polygon class="st0" points="537,132.7 545.6,147.3 562.5,147.4 554.2,162.1 562.5,176.8 545.6,177 537,191.5 528.4,177 
			511.5,176.8 519.9,162.1 511.5,147.4 528.4,147.3 		"/>
	</g>
</g>
<g>
	<g>
		<polygon class="st0" points="255.5,229 264.1,243.5 281,243.7 272.7,258.4 281,273.1 264.1,273.2 255.5,287.8 246.9,273.2 
			230,273.1 238.3,258.4 230,243.7 246.9,243.5 		"/>
		<polygon class="st0" points="198.9,261.1 207.4,275.6 224.3,275.8 216,290.5 224.3,305.2 207.4,305.3 198.9,319.9 190.3,305.3 
			173.4,305.2 181.7,290.5 173.4,275.8 190.3,275.6 		"/>
		<polygon class="st0" points="142.2,229 150.8,243.5 167.7,243.7 159.4,258.4 167.7,273.1 150.8,273.2 142.2,287.8 133.7,273.2 
			116.8,273.1 125.1,258.4 116.8,243.7 133.7,243.5 		"/>
		<polygon class="st0" points="255.5,164.8 264.1,179.3 281,179.5 272.7,194.2 281,208.9 264.1,209.1 255.5,223.6 246.9,209.1 
			230,208.9 238.3,194.2 230,179.5 246.9,179.3 		"/>
		<polygon class="st0" points="198.9,196.9 207.4,211.4 224.3,211.6 216,226.3 224.3,241 207.4,241.1 198.9,255.7 190.3,241.1 
			173.4,241 181.7,226.3 173.4,211.6 190.3,211.4 		"/>
		<polygon class="st0" points="142.2,164.8 150.8,179.3 167.7,179.5 159.4,194.2 167.7,208.9 150.8,209.1 142.2,223.6 133.7,209.1 
			116.8,208.9 125.1,194.2 116.8,179.5 133.7,179.3 		"/>
		<polygon class="st0" points="198.9,132.7 207.4,147.3 224.3,147.4 216,162.1 224.3,176.8 207.4,177 198.9,191.5 190.3,177 
			173.4,176.8 181.7,162.1 173.4,147.4 190.3,147.3 		"/>
	</g>
</g>
<g>
	<g>
		<polygon class="st0" points="141.9,100 150.5,114.5 167.4,114.7 159.1,129.4 167.4,144.1 150.5,144.2 141.9,158.8 133.4,144.2 
			116.5,144.1 124.8,129.4 116.5,114.7 133.4,114.5 		"/>
		<polygon class="st0" points="85.3,132.1 93.9,146.6 110.8,146.8 102.5,161.5 110.8,176.2 93.9,176.3 85.3,190.9 76.7,176.3 
			59.8,176.2 68.2,161.5 59.8,146.8 76.7,146.6 		"/>
		<polygon class="st0" points="28.7,100 37.3,114.5 54.1,114.7 45.8,129.4 54.1,144.1 37.3,144.2 28.7,158.8 20.1,144.2 3.2,144.1 
			11.5,129.4 3.2,114.7 20.1,114.5 		"/>
		<polygon class="st0" points="141.9,35.8 150.5,50.4 167.4,50.5 159.1,65.2 167.4,79.9 150.5,80.1 141.9,94.6 133.4,80.1 
			116.5,79.9 124.8,65.2 116.5,50.5 133.4,50.4 		"/>
		<polygon class="st0" points="85.3,67.9 93.9,82.4 110.8,82.6 102.5,97.3 110.8,112 93.9,112.2 85.3,126.7 76.7,112.2 59.8,112 
			68.2,97.3 59.8,82.6 76.7,82.4 		"/>
		<polygon class="st0" points="28.7,35.8 37.3,50.4 54.1,50.5 45.8,65.2 54.1,79.9 37.3,80.1 28.7,94.6 20.1,80.1 3.2,79.9 
			11.5,65.2 3.2,50.5 20.1,50.4 		"/>
		<polygon class="st0" points="85.3,3.7 93.9,18.3 110.8,18.4 102.5,33.1 110.8,47.8 93.9,48 85.3,62.5 76.7,48 59.8,47.8 
			68.2,33.1 59.8,18.4 76.7,18.3 		"/>
	</g>
</g>
<g>
	<g>
		<polygon class="st0" points="424.7,132.4 433.3,146.9 450.2,147.1 441.8,161.8 450.2,176.5 433.3,176.6 424.7,191.2 416.1,176.6 
			399.2,176.5 407.5,161.8 399.2,147.1 416.1,146.9 		"/>
		<polygon class="st0" points="368.1,164.5 376.6,179 393.5,179.2 385.2,193.9 393.5,208.6 376.6,208.7 368.1,223.3 359.5,208.7 
			342.6,208.6 350.9,193.9 342.6,179.2 359.5,179 		"/>
		<polygon class="st0" points="311.4,132.4 320,146.9 336.9,147.1 328.6,161.8 336.9,176.5 320,176.6 311.4,191.2 302.9,176.6 
			286,176.5 294.3,161.8 286,147.1 302.9,146.9 		"/>
		<polygon class="st0" points="424.7,68.2 433.3,82.8 450.2,82.9 441.8,97.6 450.2,112.3 433.3,112.5 424.7,127 416.1,112.5 
			399.2,112.3 407.5,97.6 399.2,82.9 416.1,82.8 		"/>
		<polygon class="st0" points="368.1,100.3 376.6,114.8 393.5,115 385.2,129.7 393.5,144.4 376.6,144.6 368.1,159.1 359.5,144.6 
			342.6,144.4 350.9,129.7 342.6,115 359.5,114.8 		"/>
		<polygon class="st0" points="311.4,68.2 320,82.8 336.9,82.9 328.6,97.6 336.9,112.3 320,112.5 311.4,127 302.9,112.5 286,112.3 
			294.3,97.6 286,82.9 302.9,82.8 		"/>
		<polygon class="st0" points="368.1,36.1 376.6,50.7 393.5,50.8 385.2,65.5 393.5,80.2 376.6,80.4 368.1,94.9 359.5,80.4 
			342.6,80.2 350.9,65.5 342.6,50.8 359.5,50.7 		"/>
	</g>
</g>
<polygon class="st0" points="650.3,132.1 658.9,146.6 675.8,146.8 667.5,161.5 675.8,176.2 658.9,176.3 650.3,190.9 641.8,176.3 
	624.9,176.2 633.2,161.5 624.9,146.8 641.8,146.6 "/>
<polygon class="st0" points="650.3,67.9 658.9,82.4 675.8,82.6 667.5,97.3 675.8,112 658.9,112.2 650.3,126.7 641.8,112.2 
	624.9,112 633.2,97.3 624.9,82.6 641.8,82.4 "/>
<polygon class="st0" points="765.5,3.7 774.1,18.3 791,18.4 782.7,33.1 791,47.8 774.1,48 765.5,62.5 756.9,48 740.1,47.8 
	748.4,33.1 740.1,18.4 756.9,18.3 "/>
</svg>
