<svg xmlns="http://www.w3.org/2000/svg" viewBox="0 0 310.9 291.8"><path d="M282.2 131.9l8.6 14.6 16.9.1-8.3 14.7 8.3 14.7-16.9.2-8.6 14.5-8.5-14.5-16.9-.2 8.3-14.7-8.3-14.7 16.9-.1zM225.6 164l8.6 14.6 16.9.1-8.3 14.7 8.3 14.7-16.9.2-8.6 14.5-8.6-14.5-16.9-.2 8.3-14.7-8.3-14.7 16.9-.1zM169 131.9l8.5 14.6 16.9.1-8.3 14.7 8.3 14.7-16.9.2-8.5 14.5-8.6-14.5-16.9-.2 8.3-14.7-8.3-14.7 16.9-.1zm113.2-64.1l8.6 14.5 16.9.2-8.3 14.7 8.3 14.7-16.9.1-8.6 14.6-8.5-14.6-16.9-.1 8.3-14.7-8.3-14.7 16.9-.2zm-56.6 32l8.6 14.6 16.9.1-8.3 14.8 8.3 14.7-16.9.1-8.6 14.6-8.6-14.6-16.9-.1 8.3-14.7-8.3-14.8 16.9-.1zm-56.6-32l8.5 14.5 16.9.2-8.3 14.7 8.3 14.7-16.9.1-8.5 14.6-8.6-14.6-16.9-.1 8.3-14.7-8.3-14.7 16.9-.2zm56.6-32.1l8.6 14.5 16.9.2-8.3 14.7 8.3 14.7-16.9.1-8.6 14.6-8.6-14.6-16.9-.1 8.3-14.7-8.3-14.7 16.9-.2zM169 197.2l8.5 14.5 16.9.2-8.3 14.7 8.3 14.7-16.9.1L169 256l-8.6-14.6-16.9-.1 8.3-14.7-8.3-14.7 16.9-.2zm-55.4 32.1l8.6 14.5 16.8.2-8.3 14.7 8.3 14.7-16.8.2-8.6 14.5-8.6-14.5-16.9-.2 8.3-14.7-8.3-14.7 16.9-.2zm-84.9-94.7l8.6 14.6 16.8.1-8.3 14.7 8.3 14.7-16.8.2-8.6 14.5-8.6-14.5-16.9-.2 8.3-14.7-8.3-14.7 16.9-.1zM282.2 3.7l8.6 14.6 16.9.1-8.3 14.7 8.3 14.7-16.9.2-8.6 14.5-8.5-14.5-16.9-.2 8.3-14.7-8.3-14.7 16.9-.1z" fill="none" stroke="#f2f2f2" stroke-width="3.775" stroke-miterlimit="10"/></svg>