<svg id="Слой_1" data-name="Слой 1" xmlns="http://www.w3.org/2000/svg" viewBox="0 0 654 280"><defs><style>.cls-1{fill:#5cc0f9;}</style></defs><title>Монтажная область 1</title><circle class="cls-1" cx="57.5" cy="7.5" r="7.5"/><circle class="cls-1" cx="57.5" cy="26.5" r="7.5"/><circle class="cls-1" cx="57.5" cy="45.5" r="7.5"/><circle class="cls-1" cx="40.5" cy="17.5" r="7.5"/><circle class="cls-1" cx="40.5" cy="36.5" r="7.5"/><circle class="cls-1" cx="40.5" cy="55.5" r="7.5"/><circle class="cls-1" cx="40.5" cy="73.5" r="7.5"/><circle class="cls-1" cx="40.5" cy="92.5" r="7.5"/><circle class="cls-1" cx="40.5" cy="111.5" r="7.5"/><circle class="cls-1" cx="24.5" cy="27.5" r="7.5"/><circle class="cls-1" cx="24.5" cy="46.5" r="7.5"/><circle class="cls-1" cx="24.5" cy="65.5" r="7.5"/><circle class="cls-1" cx="24.5" cy="83.5" r="7.5"/><circle class="cls-1" cx="24.5" cy="102.5" r="7.5"/><circle class="cls-1" cx="24.5" cy="121.5" r="7.5"/><circle class="cls-1" cx="7.5" cy="111.5" r="7.5"/><circle class="cls-1" cx="40.5" cy="130.5" r="7.5"/><circle class="cls-1" cx="40.5" cy="149.5" r="7.5"/><circle class="cls-1" cx="40.5" cy="168.5" r="7.5"/><circle class="cls-1" cx="40.5" cy="187.5" r="7.5"/><circle class="cls-1" cx="122.5" cy="45.5" r="7.5"/><circle class="cls-1" cx="89.5" cy="83.5" r="7.5"/><circle class="cls-1" cx="89.5" cy="102.5" r="7.5"/><circle class="cls-1" cx="89.5" cy="120.5" r="7.5"/><circle class="cls-1" cx="89.5" cy="139.5" r="7.5"/><circle class="cls-1" cx="89.5" cy="158.5" r="7.5"/><circle class="cls-1" cx="89.5" cy="177.5" r="7.5"/><circle class="cls-1" cx="89.5" cy="196.5" r="7.5"/><circle class="cls-1" cx="89.5" cy="215.5" r="7.5"/><circle class="cls-1" cx="89.5" cy="234.5" r="7.5"/><circle class="cls-1" cx="122.5" cy="64.5" r="7.5"/><circle class="cls-1" cx="105.5" cy="93.5" r="7.5"/><circle class="cls-1" cx="105.5" cy="112.5" r="7.5"/><circle class="cls-1" cx="105.5" cy="130.5" r="7.5"/><circle class="cls-1" cx="105.5" cy="149.5" r="7.5"/><circle class="cls-1" cx="105.5" cy="168.5" r="7.5"/><circle class="cls-1" cx="105.5" cy="187.5" r="7.5"/><circle class="cls-1" cx="105.5" cy="206.5" r="7.5"/><circle class="cls-1" cx="105.5" cy="225.5" r="7.5"/><circle class="cls-1" cx="105.5" cy="244.5" r="7.5"/><circle class="cls-1" cx="122.5" cy="83.5" r="7.5"/><circle class="cls-1" cx="122.5" cy="102.5" r="7.5"/><circle class="cls-1" cx="122.5" cy="121.5" r="7.5"/><circle class="cls-1" cx="122.5" cy="139.5" r="7.5"/><circle class="cls-1" cx="122.5" cy="158.5" r="7.5"/><circle class="cls-1" cx="122.5" cy="177.5" r="7.5"/><circle class="cls-1" cx="122.5" cy="196.5" r="7.5"/><circle class="cls-1" cx="122.5" cy="215.5" r="7.5"/><circle class="cls-1" cx="122.5" cy="234.5" r="7.5"/><circle class="cls-1" cx="122.5" cy="253.5" r="7.5"/><circle class="cls-1" cx="138.5" cy="55.5" r="7.5"/><circle class="cls-1" cx="138.5" cy="74.5" r="7.5"/><circle class="cls-1" cx="138.5" cy="93.5" r="7.5"/><circle class="cls-1" cx="138.5" cy="112.5" r="7.5"/><circle class="cls-1" cx="138.5" cy="131.5" r="7.5"/><circle class="cls-1" cx="138.5" cy="149.5" r="7.5"/><circle class="cls-1" cx="138.5" cy="168.5" r="7.5"/><circle class="cls-1" cx="138.5" cy="187.5" r="7.5"/><circle class="cls-1" cx="138.5" cy="206.5" r="7.5"/><circle class="cls-1" cx="138.5" cy="225.5" r="7.5"/><circle class="cls-1" cx="138.5" cy="244.5" r="7.5"/><circle class="cls-1" cx="138.5" cy="263.5" r="7.5"/><circle class="cls-1" cx="155.5" cy="45.5" r="7.5"/><circle class="cls-1" cx="155.5" cy="64.5" r="7.5"/><circle class="cls-1" cx="155.5" cy="83.5" r="7.5"/><circle class="cls-1" cx="155.5" cy="102.5" r="7.5"/><circle class="cls-1" cx="155.5" cy="121.5" r="7.5"/><circle class="cls-1" cx="155.5" cy="139.5" r="7.5"/><circle class="cls-1" cx="155.5" cy="158.5" r="7.5"/><circle class="cls-1" cx="155.5" cy="177.5" r="7.5"/><circle class="cls-1" cx="155.5" cy="196.5" r="7.5"/><circle class="cls-1" cx="155.5" cy="215.5" r="7.5"/><circle class="cls-1" cx="155.5" cy="234.5" r="7.5"/><circle class="cls-1" cx="155.5" cy="253.5" r="7.5"/><circle class="cls-1" cx="171.5" cy="55.5" r="7.5"/><circle class="cls-1" cx="171.5" cy="74.5" r="7.5"/><circle class="cls-1" cx="171.5" cy="93.5" r="7.5"/><circle class="cls-1" cx="171.5" cy="111.5" r="7.5"/><circle class="cls-1" cx="171.5" cy="130.5" r="7.5"/><circle class="cls-1" cx="171.5" cy="149.5" r="7.5"/><circle class="cls-1" cx="171.5" cy="168.5" r="7.5"/><circle class="cls-1" cx="171.5" cy="187.5" r="7.5"/><circle class="cls-1" cx="171.5" cy="206.5" r="7.5"/><circle class="cls-1" cx="171.5" cy="225.5" r="7.5"/><circle class="cls-1" cx="187.5" cy="64.5" r="7.5"/><circle class="cls-1" cx="187.5" cy="45.5" r="7.5"/><circle class="cls-1" cx="187.5" cy="83.5" r="7.5"/><circle class="cls-1" cx="187.5" cy="102.5" r="7.5"/><circle class="cls-1" cx="187.5" cy="120.5" r="7.5"/><circle class="cls-1" cx="187.5" cy="139.5" r="7.5"/><circle class="cls-1" cx="187.5" cy="158.5" r="7.5"/><circle class="cls-1" cx="187.5" cy="177.5" r="7.5"/><circle class="cls-1" cx="187.5" cy="196.5" r="7.5"/><circle class="cls-1" cx="187.5" cy="215.5" r="7.5"/><circle class="cls-1" cx="187.5" cy="234.5" r="7.5"/><circle class="cls-1" cx="204.5" cy="74.5" r="7.5"/><circle class="cls-1" cx="204.5" cy="55.5" r="7.5"/><circle class="cls-1" cx="204.5" cy="36.5" r="7.5"/><circle class="cls-1" cx="204.5" cy="93.5" r="7.5"/><circle class="cls-1" cx="204.5" cy="112.5" r="7.5"/><circle class="cls-1" cx="204.5" cy="130.5" r="7.5"/><circle class="cls-1" cx="204.5" cy="149.5" r="7.5"/><circle class="cls-1" cx="204.5" cy="168.5" r="7.5"/><circle class="cls-1" cx="204.5" cy="187.5" r="7.5"/><circle class="cls-1" cx="204.5" cy="206.5" r="7.5"/><circle class="cls-1" cx="204.5" cy="225.5" r="7.5"/><circle class="cls-1" cx="204.5" cy="244.5" r="7.5"/><circle class="cls-1" cx="220.5" cy="83.5" r="7.5"/><circle class="cls-1" cx="220.5" cy="64.5" r="7.5"/><circle class="cls-1" cx="220.5" cy="45.5" r="7.5"/><circle class="cls-1" cx="220.5" cy="27.5" r="7.5"/><circle class="cls-1" cx="220.5" cy="102.5" r="7.5"/><circle class="cls-1" cx="220.5" cy="121.5" r="7.5"/><circle class="cls-1" cx="220.5" cy="139.5" r="7.5"/><circle class="cls-1" cx="220.5" cy="158.5" r="7.5"/><circle class="cls-1" cx="220.5" cy="177.5" r="7.5"/><circle class="cls-1" cx="220.5" cy="196.5" r="7.5"/><circle class="cls-1" cx="220.5" cy="215.5" r="7.5"/><circle class="cls-1" cx="220.5" cy="234.5" r="7.5"/><circle class="cls-1" cx="220.5" cy="253.5" r="7.5"/><circle class="cls-1" cx="237.5" cy="92.5" r="7.5"/><circle class="cls-1" cx="237.5" cy="73.5" r="7.5"/><circle class="cls-1" cx="237.5" cy="54.5" r="7.5"/><circle class="cls-1" cx="237.5" cy="36.5" r="7.5"/><circle class="cls-1" cx="237.5" cy="111.5" r="7.5"/><circle class="cls-1" cx="237.5" cy="130.5" r="7.5"/><circle class="cls-1" cx="237.5" cy="148.5" r="7.5"/><circle class="cls-1" cx="237.5" cy="167.5" r="7.5"/><circle class="cls-1" cx="237.5" cy="186.5" r="7.5"/><circle class="cls-1" cx="237.5" cy="205.5" r="7.5"/><circle class="cls-1" cx="237.5" cy="224.5" r="7.5"/><circle class="cls-1" cx="237.5" cy="243.5" r="7.5"/><circle class="cls-1" cx="237.5" cy="262.5" r="7.5"/><circle class="cls-1" cx="253.5" cy="45.5" r="7.5"/><circle class="cls-1" cx="253.5" cy="64.5" r="7.5"/><circle class="cls-1" cx="253.5" cy="83.5" r="7.5"/><circle class="cls-1" cx="253.5" cy="102.5" r="7.5"/><circle class="cls-1" cx="253.5" cy="121.5" r="7.5"/><circle class="cls-1" cx="253.5" cy="139.5" r="7.5"/><circle class="cls-1" cx="253.5" cy="158.5" r="7.5"/><circle class="cls-1" cx="253.5" cy="177.5" r="7.5"/><circle class="cls-1" cx="253.5" cy="196.5" r="7.5"/><circle class="cls-1" cx="253.5" cy="215.5" r="7.5"/><circle class="cls-1" cx="253.5" cy="234.5" r="7.5"/><circle class="cls-1" cx="253.5" cy="253.5" r="7.5"/><circle class="cls-1" cx="269.5" cy="55.5" r="7.5"/><circle class="cls-1" cx="269.5" cy="74.5" r="7.5"/><circle class="cls-1" cx="253.5" cy="27.5" r="7.5"/><circle class="cls-1" cx="253.5" cy="8.5" r="7.5"/><circle class="cls-1" cx="269.5" cy="36.5" r="7.5"/><circle class="cls-1" cx="269.5" cy="17.5" r="7.5"/><circle class="cls-1" cx="236.5" cy="17.5" r="7.5"/><circle class="cls-1" cx="286.5" cy="26.5" r="7.5"/><circle class="cls-1" cx="286.5" cy="7.5" r="7.5"/><circle class="cls-1" cx="302.5" cy="17.5" r="7.5"/><circle class="cls-1" cx="302.5" cy="36.5" r="7.5"/><circle class="cls-1" cx="318.5" cy="8.5" r="7.5"/><circle class="cls-1" cx="318.5" cy="27.5" r="7.5"/><circle class="cls-1" cx="269.5" cy="93.5" r="7.5"/><circle class="cls-1" cx="269.5" cy="112.5" r="7.5"/><circle class="cls-1" cx="269.5" cy="131.5" r="7.5"/><circle class="cls-1" cx="269.5" cy="149.5" r="7.5"/><circle class="cls-1" cx="269.5" cy="168.5" r="7.5"/><circle class="cls-1" cx="269.5" cy="187.5" r="7.5"/><circle class="cls-1" cx="269.5" cy="206.5" r="7.5"/><circle class="cls-1" cx="269.5" cy="225.5" r="7.5"/><circle class="cls-1" cx="269.5" cy="244.5" r="7.5"/><circle class="cls-1" cx="269.5" cy="263.5" r="7.5"/><circle class="cls-1" cx="286.5" cy="45.5" r="7.5"/><circle class="cls-1" cx="286.5" cy="64.5" r="7.5"/><circle class="cls-1" cx="286.5" cy="83.5" r="7.5"/><circle class="cls-1" cx="286.5" cy="102.5" r="7.5"/><circle class="cls-1" cx="286.5" cy="121.5" r="7.5"/><circle class="cls-1" cx="286.5" cy="139.5" r="7.5"/><circle class="cls-1" cx="286.5" cy="158.5" r="7.5"/><circle class="cls-1" cx="286.5" cy="177.5" r="7.5"/><circle class="cls-1" cx="286.5" cy="196.5" r="7.5"/><circle class="cls-1" cx="286.5" cy="215.5" r="7.5"/><circle class="cls-1" cx="286.5" cy="234.5" r="7.5"/><circle class="cls-1" cx="286.5" cy="253.5" r="7.5"/><circle class="cls-1" cx="302.5" cy="55.5" r="7.5"/><circle class="cls-1" cx="302.5" cy="74.5" r="7.5"/><circle class="cls-1" cx="302.5" cy="93.5" r="7.5"/><circle class="cls-1" cx="302.5" cy="111.5" r="7.5"/><circle class="cls-1" cx="302.5" cy="130.5" r="7.5"/><circle class="cls-1" cx="302.5" cy="149.5" r="7.5"/><circle class="cls-1" cx="302.5" cy="168.5" r="7.5"/><circle class="cls-1" cx="302.5" cy="187.5" r="7.5"/><circle class="cls-1" cx="302.5" cy="206.5" r="7.5"/><circle class="cls-1" cx="302.5" cy="225.5" r="7.5"/><circle class="cls-1" cx="318.5" cy="64.5" r="7.5"/><circle class="cls-1" cx="318.5" cy="45.5" r="7.5"/><circle class="cls-1" cx="318.5" cy="83.5" r="7.5"/><circle class="cls-1" cx="318.5" cy="102.5" r="7.5"/><circle class="cls-1" cx="318.5" cy="120.5" r="7.5"/><circle class="cls-1" cx="318.5" cy="139.5" r="7.5"/><circle class="cls-1" cx="318.5" cy="158.5" r="7.5"/><circle class="cls-1" cx="318.5" cy="177.5" r="7.5"/><circle class="cls-1" cx="318.5" cy="196.5" r="7.5"/><circle class="cls-1" cx="318.5" cy="215.5" r="7.5"/><circle class="cls-1" cx="318.5" cy="234.5" r="7.5"/><circle class="cls-1" cx="335.5" cy="74.5" r="7.5"/><circle class="cls-1" cx="335.5" cy="55.5" r="7.5"/><circle class="cls-1" cx="335.5" cy="36.5" r="7.5"/><circle class="cls-1" cx="335.5" cy="93.5" r="7.5"/><circle class="cls-1" cx="335.5" cy="112.5" r="7.5"/><circle class="cls-1" cx="335.5" cy="130.5" r="7.5"/><circle class="cls-1" cx="335.5" cy="149.5" r="7.5"/><circle class="cls-1" cx="335.5" cy="168.5" r="7.5"/><circle class="cls-1" cx="335.5" cy="187.5" r="7.5"/><circle class="cls-1" cx="335.5" cy="206.5" r="7.5"/><circle class="cls-1" cx="335.5" cy="225.5" r="7.5"/><circle class="cls-1" cx="335.5" cy="244.5" r="7.5"/><circle class="cls-1" cx="351.5" cy="83.5" r="7.5"/><circle class="cls-1" cx="351.5" cy="64.5" r="7.5"/><circle class="cls-1" cx="351.5" cy="45.5" r="7.5"/><circle class="cls-1" cx="351.5" cy="27.5" r="7.5"/><circle class="cls-1" cx="351.5" cy="102.5" r="7.5"/><circle class="cls-1" cx="351.5" cy="121.5" r="7.5"/><circle class="cls-1" cx="351.5" cy="139.5" r="7.5"/><circle class="cls-1" cx="351.5" cy="158.5" r="7.5"/><circle class="cls-1" cx="351.5" cy="177.5" r="7.5"/><circle class="cls-1" cx="351.5" cy="196.5" r="7.5"/><circle class="cls-1" cx="351.5" cy="215.5" r="7.5"/><circle class="cls-1" cx="351.5" cy="234.5" r="7.5"/><circle class="cls-1" cx="351.5" cy="253.5" r="7.5"/><circle class="cls-1" cx="351.5" cy="272.5" r="7.5"/><circle class="cls-1" cx="368.5" cy="92.5" r="7.5"/><circle class="cls-1" cx="368.5" cy="73.5" r="7.5"/><circle class="cls-1" cx="368.5" cy="54.5" r="7.5"/><circle class="cls-1" cx="368.5" cy="36.5" r="7.5"/><circle class="cls-1" cx="368.5" cy="111.5" r="7.5"/><circle class="cls-1" cx="368.5" cy="130.5" r="7.5"/><circle class="cls-1" cx="368.5" cy="148.5" r="7.5"/><circle class="cls-1" cx="368.5" cy="167.5" r="7.5"/><circle class="cls-1" cx="368.5" cy="186.5" r="7.5"/><circle class="cls-1" cx="368.5" cy="205.5" r="7.5"/><circle class="cls-1" cx="368.5" cy="224.5" r="7.5"/><circle class="cls-1" cx="368.5" cy="243.5" r="7.5"/><circle class="cls-1" cx="368.5" cy="262.5" r="7.5"/><circle class="cls-1" cx="400.5" cy="54.5" r="7.5"/><circle class="cls-1" cx="383.5" cy="83.5" r="7.5"/><circle class="cls-1" cx="383.5" cy="45.5" r="7.5"/><circle class="cls-1" cx="383.5" cy="64.5" r="7.5"/><circle class="cls-1" cx="383.5" cy="102.5" r="7.5"/><circle class="cls-1" cx="383.5" cy="120.5" r="7.5"/><circle class="cls-1" cx="383.5" cy="139.5" r="7.5"/><circle class="cls-1" cx="383.5" cy="158.5" r="7.5"/><circle class="cls-1" cx="383.5" cy="177.5" r="7.5"/><circle class="cls-1" cx="383.5" cy="196.5" r="7.5"/><circle class="cls-1" cx="383.5" cy="215.5" r="7.5"/><circle class="cls-1" cx="383.5" cy="234.5" r="7.5"/><circle class="cls-1" cx="400.5" cy="73.5" r="7.5"/><circle class="cls-1" cx="400.5" cy="92.5" r="7.5"/><circle class="cls-1" cx="400.5" cy="111.5" r="7.5"/><circle class="cls-1" cx="400.5" cy="129.5" r="7.5"/><circle class="cls-1" cx="400.5" cy="148.5" r="7.5"/><circle class="cls-1" cx="400.5" cy="167.5" r="7.5"/><circle class="cls-1" cx="400.5" cy="186.5" r="7.5"/><circle class="cls-1" cx="400.5" cy="205.5" r="7.5"/><circle class="cls-1" cx="400.5" cy="224.5" r="7.5"/><circle class="cls-1" cx="400.5" cy="243.5" r="7.5"/><circle class="cls-1" cx="416.5" cy="64.5" r="7.5"/><circle class="cls-1" cx="416.5" cy="83.5" r="7.5"/><circle class="cls-1" cx="416.5" cy="102.5" r="7.5"/><circle class="cls-1" cx="416.5" cy="121.5" r="7.5"/><circle class="cls-1" cx="416.5" cy="139.5" r="7.5"/><circle class="cls-1" cx="416.5" cy="158.5" r="7.5"/><circle class="cls-1" cx="416.5" cy="177.5" r="7.5"/><circle class="cls-1" cx="416.5" cy="196.5" r="7.5"/><circle class="cls-1" cx="416.5" cy="215.5" r="7.5"/><circle class="cls-1" cx="416.5" cy="234.5" r="7.5"/><circle class="cls-1" cx="433.5" cy="54.5" r="7.5"/><circle class="cls-1" cx="433.5" cy="73.5" r="7.5"/><circle class="cls-1" cx="433.5" cy="92.5" r="7.5"/><circle class="cls-1" cx="433.5" cy="111.5" r="7.5"/><circle class="cls-1" cx="433.5" cy="129.5" r="7.5"/><circle class="cls-1" cx="433.5" cy="148.5" r="7.5"/><circle class="cls-1" cx="433.5" cy="167.5" r="7.5"/><circle class="cls-1" cx="433.5" cy="186.5" r="7.5"/><circle class="cls-1" cx="433.5" cy="205.5" r="7.5"/><circle class="cls-1" cx="433.5" cy="224.5" r="7.5"/><circle class="cls-1" cx="449.5" cy="64.5" r="7.5"/><circle class="cls-1" cx="449.5" cy="83.5" r="7.5"/><circle class="cls-1" cx="449.5" cy="101.5" r="7.5"/><circle class="cls-1" cx="449.5" cy="120.5" r="7.5"/><circle class="cls-1" cx="449.5" cy="139.5" r="7.5"/><circle class="cls-1" cx="449.5" cy="158.5" r="7.5"/><circle class="cls-1" cx="449.5" cy="177.5" r="7.5"/><circle class="cls-1" cx="449.5" cy="196.5" r="7.5"/><circle class="cls-1" cx="449.5" cy="215.5" r="7.5"/><circle class="cls-1" cx="449.5" cy="234.5" r="7.5"/><circle class="cls-1" cx="465.5" cy="54.5" r="7.5"/><circle class="cls-1" cx="465.5" cy="73.5" r="7.5"/><circle class="cls-1" cx="465.5" cy="92.5" r="7.5"/><circle class="cls-1" cx="465.5" cy="110.5" r="7.5"/><circle class="cls-1" cx="465.5" cy="129.5" r="7.5"/><circle class="cls-1" cx="465.5" cy="148.5" r="7.5"/><circle class="cls-1" cx="465.5" cy="167.5" r="7.5"/><circle class="cls-1" cx="465.5" cy="186.5" r="7.5"/><circle class="cls-1" cx="465.5" cy="205.5" r="7.5"/><circle class="cls-1" cx="465.5" cy="224.5" r="7.5"/><circle class="cls-1" cx="482.5" cy="64.5" r="7.5"/><circle class="cls-1" cx="482.5" cy="83.5" r="7.5"/><circle class="cls-1" cx="482.5" cy="102.5" r="7.5"/><circle class="cls-1" cx="482.5" cy="120.5" r="7.5"/><circle class="cls-1" cx="482.5" cy="139.5" r="7.5"/><circle class="cls-1" cx="482.5" cy="158.5" r="7.5"/><circle class="cls-1" cx="482.5" cy="177.5" r="7.5"/><circle class="cls-1" cx="482.5" cy="196.5" r="7.5"/><circle class="cls-1" cx="482.5" cy="215.5" r="7.5"/><circle class="cls-1" cx="482.5" cy="234.5" r="7.5"/><circle class="cls-1" cx="498.5" cy="73.5" r="7.5"/><circle class="cls-1" cx="498.5" cy="54.5" r="7.5"/><circle class="cls-1" cx="498.5" cy="92.5" r="7.5"/><circle class="cls-1" cx="498.5" cy="111.5" r="7.5"/><circle class="cls-1" cx="498.5" cy="129.5" r="7.5"/><circle class="cls-1" cx="498.5" cy="148.5" r="7.5"/><circle class="cls-1" cx="498.5" cy="167.5" r="7.5"/><circle class="cls-1" cx="498.5" cy="186.5" r="7.5"/><circle class="cls-1" cx="498.5" cy="205.5" r="7.5"/><circle class="cls-1" cx="498.5" cy="224.5" r="7.5"/><circle class="cls-1" cx="515.5" cy="82.5" r="7.5"/><circle class="cls-1" cx="515.5" cy="63.5" r="7.5"/><circle class="cls-1" cx="515.5" cy="101.5" r="7.5"/><circle class="cls-1" cx="515.5" cy="120.5" r="7.5"/><circle class="cls-1" cx="515.5" cy="138.5" r="7.5"/><circle class="cls-1" cx="515.5" cy="157.5" r="7.5"/><circle class="cls-1" cx="515.5" cy="176.5" r="7.5"/><circle class="cls-1" cx="515.5" cy="195.5" r="7.5"/><circle class="cls-1" cx="515.5" cy="214.5" r="7.5"/><circle class="cls-1" cx="531.5" cy="54.5" r="7.5"/><circle class="cls-1" cx="531.5" cy="73.5" r="7.5"/><circle class="cls-1" cx="531.5" cy="92.5" r="7.5"/><circle class="cls-1" cx="531.5" cy="111.5" r="7.5"/><circle class="cls-1" cx="531.5" cy="129.5" r="7.5"/><circle class="cls-1" cx="531.5" cy="148.5" r="7.5"/><circle class="cls-1" cx="531.5" cy="167.5" r="7.5"/><circle class="cls-1" cx="531.5" cy="186.5" r="7.5"/><circle class="cls-1" cx="531.5" cy="205.5" r="7.5"/><circle class="cls-1" cx="531.5" cy="224.5" r="7.5"/><circle class="cls-1" cx="547.5" cy="45.5" r="7.5"/><circle class="cls-1" cx="547.5" cy="64.5" r="7.5"/><circle class="cls-1" cx="547.5" cy="83.5" r="7.5"/><circle class="cls-1" cx="547.5" cy="102.5" r="7.5"/><circle class="cls-1" cx="547.5" cy="121.5" r="7.5"/><circle class="cls-1" cx="547.5" cy="139.5" r="7.5"/><circle class="cls-1" cx="547.5" cy="158.5" r="7.5"/><circle class="cls-1" cx="547.5" cy="177.5" r="7.5"/><circle class="cls-1" cx="547.5" cy="196.5" r="7.5"/><circle class="cls-1" cx="547.5" cy="215.5" r="7.5"/><circle class="cls-1" cx="564.5" cy="35.5" r="7.5"/><circle class="cls-1" cx="564.5" cy="54.5" r="7.5"/><circle class="cls-1" cx="564.5" cy="73.5" r="7.5"/><circle class="cls-1" cx="564.5" cy="92.5" r="7.5"/><circle class="cls-1" cx="564.5" cy="111.5" r="7.5"/><circle class="cls-1" cx="564.5" cy="129.5" r="7.5"/><circle class="cls-1" cx="564.5" cy="148.5" r="7.5"/><circle class="cls-1" cx="564.5" cy="167.5" r="7.5"/><circle class="cls-1" cx="564.5" cy="186.5" r="7.5"/><circle class="cls-1" cx="564.5" cy="205.5" r="7.5"/><circle class="cls-1" cx="580.5" cy="45.5" r="7.5"/><circle class="cls-1" cx="580.5" cy="64.5" r="7.5"/><circle class="cls-1" cx="580.5" cy="83.5" r="7.5"/><circle class="cls-1" cx="580.5" cy="101.5" r="7.5"/><circle class="cls-1" cx="580.5" cy="120.5" r="7.5"/><circle class="cls-1" cx="580.5" cy="139.5" r="7.5"/><circle class="cls-1" cx="580.5" cy="158.5" r="7.5"/><circle class="cls-1" cx="580.5" cy="177.5" r="7.5"/><circle class="cls-1" cx="580.5" cy="196.5" r="7.5"/><circle class="cls-1" cx="580.5" cy="215.5" r="7.5"/><circle class="cls-1" cx="596.5" cy="54.5" r="7.5"/><circle class="cls-1" cx="596.5" cy="35.5" r="7.5"/><circle class="cls-1" cx="596.5" cy="73.5" r="7.5"/><circle class="cls-1" cx="596.5" cy="92.5" r="7.5"/><circle class="cls-1" cx="596.5" cy="110.5" r="7.5"/><circle class="cls-1" cx="596.5" cy="129.5" r="7.5"/><circle class="cls-1" cx="596.5" cy="148.5" r="7.5"/><circle class="cls-1" cx="596.5" cy="167.5" r="7.5"/><circle class="cls-1" cx="596.5" cy="186.5" r="7.5"/><circle class="cls-1" cx="596.5" cy="205.5" r="7.5"/><circle class="cls-1" cx="596.5" cy="224.5" r="7.5"/><circle class="cls-1" cx="613.5" cy="64.5" r="7.5"/><circle class="cls-1" cx="613.5" cy="45.5" r="7.5"/><circle class="cls-1" cx="613.5" cy="83.5" r="7.5"/><circle class="cls-1" cx="613.5" cy="102.5" r="7.5"/><circle class="cls-1" cx="613.5" cy="120.5" r="7.5"/><circle class="cls-1" cx="613.5" cy="139.5" r="7.5"/><circle class="cls-1" cx="613.5" cy="158.5" r="7.5"/><circle class="cls-1" cx="613.5" cy="177.5" r="7.5"/><circle class="cls-1" cx="613.5" cy="196.5" r="7.5"/><circle class="cls-1" cx="613.5" cy="215.5" r="7.5"/><circle class="cls-1" cx="629.5" cy="92.5" r="7.5"/><circle class="cls-1" cx="629.5" cy="111.5" r="7.5"/><circle class="cls-1" cx="629.5" cy="129.5" r="7.5"/><circle class="cls-1" cx="629.5" cy="148.5" r="7.5"/><circle class="cls-1" cx="629.5" cy="167.5" r="7.5"/><circle class="cls-1" cx="629.5" cy="186.5" r="7.5"/><circle class="cls-1" cx="629.5" cy="205.5" r="7.5"/><circle class="cls-1" cx="646.5" cy="101.5" r="7.5"/><circle class="cls-1" cx="646.5" cy="157.5" r="7.5"/><circle class="cls-1" cx="646.5" cy="195.5" r="7.5"/><circle class="cls-1" cx="646.5" cy="214.5" r="7.5"/><circle class="cls-1" cx="73.5" cy="36.5" r="7.5"/><circle class="cls-1" cx="89.5" cy="45.5" r="7.5"/><circle class="cls-1" cx="73.5" cy="93.5" r="7.5"/><circle class="cls-1" cx="73.5" cy="111.5" r="7.5"/><circle class="cls-1" cx="73.5" cy="130.5" r="7.5"/><circle class="cls-1" cx="73.5" cy="149.5" r="7.5"/><circle class="cls-1" cx="73.5" cy="168.5" r="7.5"/><circle class="cls-1" cx="73.5" cy="187.5" r="7.5"/><circle class="cls-1" cx="73.5" cy="206.5" r="7.5"/><circle class="cls-1" cx="73.5" cy="225.5" r="7.5"/><circle class="cls-1" cx="57.5" cy="101.5" r="7.5"/><circle class="cls-1" cx="57.5" cy="120.5" r="7.5"/><circle class="cls-1" cx="57.5" cy="139.5" r="7.5"/><circle class="cls-1" cx="57.5" cy="158.5" r="7.5"/><circle class="cls-1" cx="57.5" cy="177.5" r="7.5"/><circle class="cls-1" cx="57.5" cy="196.5" r="7.5"/><circle class="cls-1" cx="57.5" cy="215.5" r="7.5"/><circle class="cls-1" cx="24.5" cy="177.5" r="7.5"/></svg>