<svg version="1.1" id="Слой_1" xmlns="http://www.w3.org/2000/svg" x="0" y="0" viewBox="0 0 498.7 450.2" xml:space="preserve"><style>.st0{fill:none;stroke:#c3e8fe;stroke-width:1.872;stroke-miterlimit:10}</style><path class="st0" d="M322.5 379.1h53.6l-13.2 23.4H309zm-40.3 23.2l27.1-46.8 13.2 23.4-26.8 46.8z"/><path class="st0" d="M242 379.1h53.6l-13.2 23.4h-53.9zm67.4 70.2h-26.8l-27-46.8h26.8zm-107.7-47l27.1-46.8 13.2 23.4-26.8 46.8zm134.1-93.4l-13.2 23.4h-53.8l13.4-23.4m67.5 70.2h-26.9l-27-46.8h26.8zm-107.7-47l27-46.8 13.2 23.4-26.7 46.8z"/><path class="st0" d="M201.7 308.9h53.6l-13.2 23.4h-53.8zm67.5 70.2h-26.9l-27-46.8h26.8zm174.3-71h53.6l-13.2 23.4H430zm-40.3 23.2l27.1-46.8 13.2 23.4-26.8 46.8z"/><path class="st0" d="M363 308.1h53.6l-13.2 23.4h-53.9zm67.4 70.2h-26.8l-27-46.8h26.8zm-107.7-47l27.1-46.8 13.2 23.4-26.8 46.8zm120.8-70.2l27-46.8 13.2 23.4-26.7 46.8z"/><path class="st0" d="M389.8 261.3l13.4-23.4h53.6l-13.2 23.4m27.1 46.8h-26.9l-27-46.8h26.8zm-107.7-47l27-46.8 13.2 23.4-26.7 46.8z"/><path class="st0" d="M390.2 308.1h-26.9l-27-46.8h26.8zm-107.7 0h53.6l-13.2 23.4H269zm-40.3 23.2l27.1-46.8 13.2 23.4-26.8 46.8z"/><path class="st0" d="M255.6 308.1l-13.2 23.4h-53.9l13.5-23.4m67.4 70.2h-26.8l-27-46.8h26.8zm-107.7-47l27.1-46.8 13.2 23.4-26.8 46.8zm80.5-93.4h53.6l-13.2 23.4h-53.8zm67.5 70.2h-26.9l-27-46.8h26.8zm93.8-118l27-46.8 13.2 23.4-26.7 46.8z"/><path class="st0" d="M363.2 166.9h53.6l-13.2 23.4h-53.8zM323 190.1l27-46.8 13.2 23.4-26.7 46.8z"/><path class="st0" d="M282.7 166.9h53.6l-13.2 23.4h-53.8zm67.5 70.2h-26.9l-27-46.8h26.8zm-188.3.6h53.6l-13.3 23.4h-53.8zm-40.3 23.1l27-46.7 13.3 23.3-26.8 46.9z"/><path class="st0" d="M81.4 237.7H135l-13.2 23.4H67.9zm67.4 70.1h-26.9l-27-46.7h26.9zm-107.7-47l27-46.7 13.3 23.3-26.8 46.9zm134.1-93.3L162 190.9h-53.8l13.4-23.4"/><path class="st0" d="M189.1 237.6h-26.9l-27-46.7H162zm-107.8-47l27.1-46.7 13.2 23.3-26.8 46.9z"/><path class="st0" d="M41.1 167.5h53.6l-13.2 23.4H27.7z"/><path class="st0" d="M108.6 237.6H81.7l-27-46.7h26.8zm174.3-70.9h53.6l-13.3 23.4h-53.8zm-40.3 23.1l27-46.7 13.3 23.3-26.8 46.9z"/><path class="st0" d="M202.4 166.7H256l-13.2 23.4h-53.9zm67.4 70.1h-26.9l-27-46.7h26.9zm-107.7-47l27-46.7 13.3 23.3-26.8 46.9zm120.7-70.2l27.1-46.7 13.2 23.3-26.8 46.9z"/><path class="st0" d="M229.2 119.9l13.4-23.4h53.6L283 119.9"/><path class="st0" d="M310.1 166.6h-26.9l-27-46.7H283zm-107.8-47l27.1-46.7 13.2 23.3-26.8 46.9z"/><path class="st0" d="M229.6 166.6h-26.9l-27-46.7h26.8zm-107.7.1h53.6l-13.3 23.4h-53.8zm-40.3 23.1l27-46.7 13.3 23.3-26.8 46.9z"/><path class="st0" d="M95 166.7l-13.2 23.4H27.9l13.5-23.4m67.4 70.1H81.9l-27-46.7h26.9zm-107.7-47l27-46.7 13.3 23.3-26.8 46.9zm80.5-93.3h53.6L122 119.9H68.2z"/><path class="st0" d="M149.1 166.6h-26.9l-27-46.7H122zm93.7-118l27.1-46.7 13.2 23.3-26.8 46.9z"/><path class="st0" d="M202.6 25.5h53.6L243 48.9h-53.8zm-40.3 23.1l27.1-46.7 13.2 23.3-26.8 46.9z"/><path class="st0" d="M122.1 25.5h53.6l-13.2 23.4h-53.8z"/><path class="st0" d="M189.6 95.6h-26.9l-27-46.7h26.8z"/></svg>