<?xml version="1.0" encoding="utf-8"?>
<!-- Generator: Adobe Illustrator 23.1.0, SVG Export Plug-In . SVG Version: 6.00 Build 0)  -->
<svg version="1.1" id="Layer_1" xmlns="http://www.w3.org/2000/svg" xmlns:xlink="http://www.w3.org/1999/xlink" x="0px" y="0px"
	 viewBox="0 0 533.6 208" style="enable-background:new 0 0 533.6 208;" xml:space="preserve">
<style type="text/css">
	.st0{fill:#0691E0;}
	.st1{fill:#12282D;}
	.st2{display:none;fill:#12282D;}
</style>
<g id="Logo_1_">
	<path class="st0" d="M150.8,11c-2.1-1-4.3-1.9-6.4-2.8C131.6,2.8,118,0,104,0S76.4,2.7,63.6,8.2c-6.2,2.6-12.1,5.8-17.7,9.6
		c-5.5,3.7-10.7,8-15.4,12.7s-9,9.9-12.7,15.4c-3.8,5.6-7,11.5-9.6,17.7C2.8,76.4,0,90,0,104s2.7,27.6,8.2,40.4
		c2.6,6.2,5.8,12.1,9.6,17.7c3.7,5.5,8,10.7,12.7,15.4c4.7,4.7,9.9,9,15.4,12.7c5.6,3.8,11.5,7,17.7,9.6C76.4,205.2,90,208,104,208
		s27.6-2.7,40.4-8.2c6.2-2.6,12.1-5.8,17.7-9.6c5.5-3.7,10.7-8,15.4-12.7c4.2-4.2,8.1-8.8,11.5-13.7h16.9l-28.5-22.1h-26.6V66
		L130,82.1v81.8h27.4c-14.2,12.7-32.9,20.4-53.4,20.4c-44.2,0-80.2-36-80.2-80.2s36-80.2,80.2-80.2c8.8,0,17.1,1.4,25,4L85.6,61.5
		v102.3h23.5v-92l41.7-32.3L150.8,11L150.8,11z"/>
	<polygon class="st1" points="216.2,116.7 216.2,145.2 150.8,94.5 150.8,94.5 150.8,66 150.8,66 	"/>
	<polygon class="st2" points="224.2,123.1 224.2,151.6 158.8,100.9 158.8,100.9 158.8,72.4 158.8,72.4 	"/>
	<polygon class="st1" points="216.2,61.7 216.2,90.2 150.8,39.5 150.8,39.5 150.8,11 150.8,11 	"/>
</g>
<g id="Text_1_">
	<path class="st1" d="M262.7,61.7v4.9h-9.5v26.3h-5.7V66.6h-9.6v-4.9H262.7z M289,92.2c-1.1,0.3-2.4,0.5-4.1,0.8s-3.5,0.4-5.5,0.4
		c-1.9,0-3.5-0.3-4.7-0.8c-1.3-0.5-2.3-1.3-3.1-2.3c-0.8-1-1.3-2.1-1.6-3.4c-0.3-1.3-0.5-2.8-0.5-4.4V69.3h5.4v12.3
		c0,2.5,0.4,4.3,1.1,5.4s2,1.6,3.8,1.6c0.7,0,1.4,0,2.1-0.1s1.3-0.1,1.6-0.2v-19h5.4L289,92.2L289,92.2z M313.2,74.3
		c-0.5-0.1-1.1-0.3-1.9-0.5s-1.7-0.2-2.8-0.2c-0.6,0-1.2,0.1-1.9,0.2c-0.7,0.1-1.1,0.2-1.4,0.3V93h-5.4V70.6
		c1.1-0.4,2.4-0.8,3.9-1.1c1.6-0.3,3.3-0.5,5.2-0.5c0.4,0,0.8,0,1.3,0.1c0.5,0,1,0.1,1.4,0.2c0.5,0.1,0.9,0.2,1.4,0.3
		s0.8,0.2,1.1,0.3L313.2,74.3z M328.3,78.6c0.7-0.7,1.4-1.5,2.2-2.3s1.5-1.7,2.3-2.5c0.7-0.8,1.5-1.6,2.1-2.4s1.3-1.4,1.7-2h6.4
		c-1.5,1.7-3.1,3.4-4.7,5.2s-3.3,3.6-5,5.3c0.9,0.8,1.8,1.7,2.8,2.7c1,1.1,1.9,2.2,2.9,3.4c0.9,1.2,1.8,2.4,2.6,3.6s1.5,2.3,2,3.3
		h-6.3c-0.5-0.9-1.2-1.9-1.9-2.9s-1.5-2-2.3-3s-1.6-1.9-2.5-2.7c-0.8-0.9-1.7-1.6-2.5-2.2v10.8h-5.4v-34l5.4-0.9v20.6H328.3z
		 M349.7,81.3c0-2.1,0.3-3.9,0.9-5.4c0.6-1.6,1.4-2.9,2.5-3.9c1-1,2.2-1.8,3.5-2.3s2.7-0.8,4.1-0.8c3.2,0,5.8,1,7.6,3s2.7,5,2.7,9
		c0,0.3,0,0.6,0,1s0,0.7-0.1,1h-15.5c0.1,1.9,0.8,3.4,2,4.4s2.9,1.6,5.2,1.6c1.3,0,2.5-0.1,3.6-0.4c1.1-0.2,2-0.5,2.6-0.8l0.7,4.5
		c-0.3,0.2-0.7,0.3-1.2,0.5s-1.1,0.3-1.8,0.5c-0.7,0.1-1.4,0.2-2.2,0.3c-0.8,0.1-1.6,0.1-2.4,0.1c-2.1,0-3.9-0.3-5.4-0.9
		s-2.8-1.5-3.8-2.6s-1.7-2.4-2.2-3.9C349.9,84.7,349.7,83.1,349.7,81.3z M365.5,78.9c0-0.7-0.1-1.5-0.3-2.1
		c-0.2-0.7-0.5-1.3-0.9-1.8s-0.9-0.9-1.5-1.2s-1.3-0.4-2.1-0.4s-1.6,0.2-2.2,0.5s-1.2,0.7-1.6,1.2s-0.8,1.1-1,1.8s-0.4,1.3-0.5,2
		H365.5z M400.3,69.4c-2.4,8.9-5.2,17-8.4,24.3c-0.6,1.4-1.2,2.5-1.8,3.5s-1.3,1.8-2.1,2.4s-1.7,1.1-2.6,1.4c-1,0.3-2.1,0.4-3.3,0.4
		c-0.8,0-1.7-0.1-2.5-0.3s-1.4-0.4-1.9-0.6l1-4.4c1.1,0.4,2.2,0.6,3.2,0.6c1.4,0,2.5-0.3,3.3-1s1.5-1.7,2.1-3.1
		c-1.7-3.3-3.4-6.9-5-10.8s-3-8-4.2-12.4h5.8c0.3,1.3,0.7,2.6,1.1,4.1s0.9,3,1.4,4.5s1.1,3,1.6,4.5c0.6,1.5,1.1,2.9,1.7,4.2
		c1-2.7,1.9-5.5,2.7-8.5s1.6-5.9,2.3-8.8L400.3,69.4L400.3,69.4z M418.4,88.7c2,0,3.5-0.3,4.5-1c0.9-0.7,1.4-1.7,1.4-2.9
		c0-0.7-0.2-1.4-0.5-1.9s-0.8-1-1.4-1.5c-0.6-0.4-1.3-0.8-2.1-1.2c-0.8-0.4-1.8-0.7-2.9-1.1c-1.1-0.4-2.1-0.8-3.1-1.3
		s-1.9-1-2.7-1.7s-1.4-1.5-1.8-2.5c-0.5-1-0.7-2.1-0.7-3.5c0-2.8,1-5,2.9-6.6c2-1.6,4.6-2.4,8-2.4c2,0,3.7,0.2,5.2,0.7
		c1.5,0.4,2.7,0.9,3.6,1.4l-1.8,4.6c-1-0.6-2.1-1-3.4-1.3c-1.2-0.3-2.5-0.5-3.8-0.5c-1.5,0-2.7,0.3-3.6,0.9
		c-0.9,0.6-1.3,1.5-1.3,2.7c0,0.7,0.1,1.3,0.4,1.8s0.7,0.9,1.2,1.3s1.1,0.8,1.8,1.1c0.7,0.3,1.5,0.6,2.3,0.9
		c1.5,0.5,2.8,1.1,3.9,1.6c1.2,0.6,2.1,1.2,2.9,2s1.4,1.7,1.8,2.7s0.6,2.3,0.6,3.8c0,2.8-1,5-3,6.6c-2,1.5-4.9,2.3-8.8,2.3
		c-1.3,0-2.5-0.1-3.5-0.2c-1.1-0.2-2-0.4-2.8-0.6s-1.5-0.5-2.1-0.7c-0.6-0.3-1.1-0.5-1.4-0.7l1.7-4.6c0.8,0.5,1.9,0.9,3.3,1.4
		C414.8,88.5,416.4,88.7,418.4,88.7z M439,63.2l5.4-0.9v7.1h8.4v4.5h-8.4v9.6c0,1.9,0.3,3.2,0.9,4.1c0.6,0.8,1.6,1.2,3.1,1.2
		c1,0,1.9-0.1,2.6-0.3c0.8-0.2,1.4-0.4,1.8-0.6l0.9,4.3c-0.6,0.3-1.5,0.5-2.5,0.8s-2.2,0.4-3.6,0.4c-1.7,0-3.1-0.2-4.2-0.7
		s-2-1.1-2.7-2s-1.1-1.9-1.4-3.1c-0.3-1.2-0.4-2.6-0.4-4.2L439,63.2L439,63.2z M470.3,68.8c1.8,0,3.3,0.2,4.5,0.7s2.2,1.1,2.9,1.9
		s1.3,1.8,1.6,2.9c0.3,1.2,0.5,2.4,0.5,3.8v14.3c-0.8,0.2-2.1,0.4-3.8,0.7c-1.7,0.3-3.6,0.4-5.7,0.4c-1.4,0-2.7-0.1-3.9-0.4
		s-2.2-0.7-3-1.3s-1.5-1.4-1.9-2.3c-0.5-1-0.7-2.1-0.7-3.6c0-1.4,0.3-2.5,0.8-3.4s1.2-1.7,2.1-2.3s1.9-1,3.1-1.3s2.4-0.4,3.7-0.4
		c0.6,0,1.2,0,1.9,0.1s1.4,0.2,2.1,0.4v-0.9c0-0.6-0.1-1.2-0.2-1.8c-0.2-0.6-0.4-1.1-0.8-1.5s-0.9-0.8-1.5-1s-1.4-0.4-2.3-0.4
		c-1.3,0-2.4,0.1-3.5,0.3s-1.9,0.4-2.6,0.6l-0.7-4.4c0.7-0.2,1.7-0.5,3-0.7C467.4,68.9,468.8,68.8,470.3,68.8z M470.7,89.1
		c1.7,0,3-0.1,3.8-0.3v-6c-0.3-0.1-0.7-0.2-1.3-0.3c-0.6-0.1-1.2-0.1-1.9-0.1c-0.6,0-1.2,0-1.8,0.1s-1.2,0.3-1.7,0.5s-0.9,0.6-1.2,1
		s-0.5,1-0.5,1.6c0,1.3,0.4,2.2,1.2,2.7C468.2,88.9,469.3,89.1,470.7,89.1z M490.6,63.2l5.4-0.9v7.1h8.4v4.5H496v9.6
		c0,1.9,0.3,3.2,0.9,4.1c0.6,0.8,1.6,1.2,3.1,1.2c1,0,1.9-0.1,2.6-0.3c0.8-0.2,1.4-0.4,1.8-0.6l0.9,4.3c-0.6,0.3-1.5,0.5-2.5,0.8
		s-2.2,0.4-3.6,0.4c-1.7,0-3.1-0.2-4.2-0.7s-2-1.1-2.7-2s-1.1-1.9-1.4-3.1c-0.3-1.2-0.4-2.6-0.4-4.2L490.6,63.2L490.6,63.2z
		 M512.3,81.3c0-2.1,0.3-3.9,0.9-5.4c0.6-1.6,1.4-2.9,2.5-3.9c1-1,2.2-1.8,3.5-2.3s2.7-0.8,4.1-0.8c3.2,0,5.8,1,7.6,3s2.7,5,2.7,9
		c0,0.3,0,0.6,0,1s0,0.7-0.1,1H518c0.1,1.9,0.8,3.4,2,4.4s2.9,1.6,5.2,1.6c1.3,0,2.5-0.1,3.6-0.4c1.1-0.2,2-0.5,2.6-0.8l0.7,4.5
		c-0.3,0.2-0.7,0.3-1.2,0.5s-1.1,0.3-1.8,0.5c-0.7,0.1-1.4,0.2-2.2,0.3c-0.8,0.1-1.6,0.1-2.4,0.1c-2.1,0-3.9-0.3-5.4-0.9
		s-2.8-1.5-3.8-2.6s-1.7-2.4-2.2-3.9C512.6,84.7,512.3,83.1,512.3,81.3z M528.1,78.9c0-0.7-0.1-1.5-0.3-2.1
		c-0.2-0.7-0.5-1.3-0.9-1.8s-0.9-0.9-1.5-1.2s-1.3-0.4-2.1-0.4s-1.6,0.2-2.2,0.5s-1.2,0.7-1.6,1.2s-0.8,1.1-1,1.8s-0.4,1.3-0.5,2
		H528.1z M258.5,136.6c0,1.3-0.2,2.4-0.6,3.5c-0.4,1.1-0.9,1.9-1.6,2.7c-0.7,0.7-1.5,1.3-2.4,1.7s-2,0.6-3.1,0.6s-2.2-0.2-3.1-0.6
		s-1.7-1-2.4-1.7s-1.2-1.6-1.6-2.7c-0.4-1-0.6-2.2-0.6-3.5s0.2-2.4,0.6-3.4s0.9-1.9,1.6-2.6s1.5-1.3,2.4-1.7s2-0.6,3.1-0.6
		s2.2,0.2,3.1,0.6s1.8,1,2.4,1.7c0.7,0.7,1.2,1.6,1.6,2.6C258.4,134.2,258.5,135.3,258.5,136.6z M254.8,136.6c0-1.6-0.3-2.8-1-3.8
		c-0.7-0.9-1.6-1.4-2.9-1.4c-1.2,0-2.2,0.5-2.9,1.4s-1,2.2-1,3.8s0.3,2.9,1,3.8s1.6,1.4,2.9,1.4c1.2,0,2.2-0.5,2.9-1.4
		C254.4,139.5,254.8,138.2,254.8,136.6z M287.3,136.6c0,1.3-0.2,2.4-0.6,3.5c-0.4,1-0.9,1.9-1.6,2.6s-1.6,1.3-2.6,1.7
		s-2.1,0.6-3.4,0.6c-1.2,0-2.4-0.1-3.5-0.3c-1.1-0.2-2-0.4-2.8-0.6v-22.6l3.7-0.6v8.3c0.4-0.2,1-0.4,1.6-0.6
		c0.6-0.2,1.3-0.3,2.1-0.3c1.1,0,2.1,0.2,3,0.6c0.9,0.4,1.6,1,2.2,1.7c0.6,0.7,1,1.6,1.4,2.6C287.1,134.2,287.3,135.4,287.3,136.6z
		 M283.5,136.5c0-1.6-0.3-2.8-0.9-3.7c-0.6-0.9-1.6-1.4-3-1.4c-0.6,0-1.2,0.1-1.7,0.3s-1,0.4-1.3,0.6v9.2c0.3,0.1,0.6,0.1,1,0.2
		c0.4,0.1,0.9,0.1,1.5,0.1c1.4,0,2.4-0.5,3.2-1.4C283.1,139.5,283.5,138.2,283.5,136.5z M300.7,136.7c0-1.4,0.2-2.6,0.6-3.7
		c0.4-1.1,1-1.9,1.7-2.6s1.5-1.2,2.4-1.6c0.9-0.4,1.8-0.5,2.8-0.5c2.2,0,3.9,0.7,5.2,2c1.2,1.4,1.9,3.4,1.9,6.1c0,0.2,0,0.4,0,0.7
		s0,0.5,0,0.7h-10.6c0.1,1.3,0.6,2.3,1.4,3s2,1.1,3.5,1.1c0.9,0,1.7-0.1,2.5-0.2c0.7-0.2,1.3-0.3,1.8-0.5l0.5,3
		c-0.2,0.1-0.5,0.2-0.8,0.3c-0.4,0.1-0.8,0.2-1.2,0.3c-0.5,0.1-1,0.2-1.5,0.2c-0.5,0.1-1.1,0.1-1.6,0.1c-1.4,0-2.6-0.2-3.7-0.6
		c-1-0.4-1.9-1-2.6-1.7s-1.2-1.6-1.5-2.6C300.9,139,300.7,137.9,300.7,136.7z M311.4,135c0-0.5-0.1-1-0.2-1.5
		c-0.1-0.5-0.4-0.9-0.6-1.2c-0.3-0.3-0.6-0.6-1-0.8c-0.4-0.2-0.9-0.3-1.4-0.3c-0.6,0-1.1,0.1-1.5,0.3c-0.4,0.2-0.8,0.5-1.1,0.8
		c-0.3,0.3-0.5,0.7-0.7,1.2c-0.2,0.4-0.3,0.9-0.3,1.4L311.4,135L311.4,135z M338.7,131.9c-0.3-0.1-0.7-0.2-1.3-0.3
		c-0.5-0.1-1.2-0.2-1.9-0.2c-0.4,0-0.8,0-1.3,0.1s-0.8,0.2-1,0.2v12.8h-3.7v-15.2c0.7-0.3,1.6-0.5,2.7-0.7s2.3-0.4,3.6-0.4
		c0.2,0,0.5,0,0.9,0c0.3,0,0.7,0.1,1,0.1c0.3,0.1,0.6,0.1,0.9,0.2c0.3,0.1,0.6,0.1,0.7,0.2L338.7,131.9z M351.5,136.7
		c0-1.4,0.2-2.6,0.6-3.7c0.4-1.1,1-1.9,1.7-2.6s1.5-1.2,2.4-1.6s1.8-0.5,2.8-0.5c2.2,0,3.9,0.7,5.2,2c1.2,1.4,1.9,3.4,1.9,6.1
		c0,0.2,0,0.4,0,0.7s0,0.5,0,0.7h-10.6c0.1,1.3,0.6,2.3,1.4,3s2,1.1,3.5,1.1c0.9,0,1.7-0.1,2.5-0.2c0.7-0.2,1.3-0.3,1.8-0.5l0.5,3
		c-0.2,0.1-0.5,0.2-0.8,0.3c-0.4,0.1-0.8,0.2-1.2,0.3c-0.5,0.1-1,0.2-1.5,0.2c-0.5,0.1-1.1,0.1-1.6,0.1c-1.4,0-2.6-0.2-3.7-0.6
		c-1-0.4-1.9-1-2.6-1.7s-1.2-1.6-1.5-2.6C351.7,139,351.5,137.9,351.5,136.7z M362.2,135c0-0.5-0.1-1-0.2-1.5s-0.4-0.9-0.6-1.2
		c-0.3-0.3-0.6-0.6-1-0.8s-0.9-0.3-1.4-0.3c-0.6,0-1.1,0.1-1.5,0.3s-0.8,0.5-1.1,0.8s-0.5,0.7-0.7,1.2c-0.2,0.4-0.3,0.9-0.3,1.4
		L362.2,135L362.2,135z M392.7,143c0,2.5-0.6,4.4-1.9,5.6c-1.3,1.2-3.3,1.8-5.9,1.8c-1,0-1.9-0.1-2.9-0.2c-0.9-0.2-1.8-0.4-2.5-0.6
		l0.7-3.2c0.6,0.3,1.4,0.5,2.2,0.6c0.8,0.2,1.7,0.2,2.6,0.2c1.5,0,2.5-0.3,3.2-0.9c0.6-0.6,0.9-1.5,0.9-2.7V143
		c-0.4,0.2-0.9,0.4-1.5,0.6s-1.3,0.3-2.1,0.3c-1,0-2-0.2-2.8-0.5s-1.6-0.8-2.2-1.4c-0.6-0.6-1.1-1.4-1.4-2.4c-0.3-0.9-0.5-2-0.5-3.3
		c0-1.2,0.2-2.2,0.5-3.2c0.4-1,0.9-1.8,1.6-2.5s1.5-1.2,2.5-1.6s2.1-0.6,3.3-0.6s2.3,0.1,3.4,0.3s2,0.4,2.8,0.6L392.7,143L392.7,143
		z M382.4,136.2c0,1.6,0.3,2.7,1,3.4s1.6,1.1,2.6,1.1c0.6,0,1.1-0.1,1.7-0.2c0.5-0.2,0.9-0.4,1.3-0.6v-8.3c-0.3-0.1-0.6-0.1-1-0.2
		s-0.9-0.1-1.5-0.1c-1.3,0-2.4,0.4-3.1,1.3C382.8,133.6,382.4,134.7,382.4,136.2z"/>
	<path class="st1" d="M531.6,144.6H410.8v-2.1h120.8V144.6z"/>
</g>
</svg>
