<svg version="1.1" id="Layer_1" xmlns="http://www.w3.org/2000/svg" x="0" y="0" viewBox="0 0 533.6 208" xml:space="preserve"><style>.st1{fill:#12282d}</style><g id="Logo_1_"><path d="M150.8 11c-2.1-1-4.3-1.9-6.4-2.8C131.6 2.8 118 0 104 0S76.4 2.7 63.6 8.2c-6.2 2.6-12.1 5.8-17.7 9.6-5.5 3.7-10.7 8-15.4 12.7s-9 9.9-12.7 15.4c-3.8 5.6-7 11.5-9.6 17.7C2.8 76.4 0 90 0 104s2.7 27.6 8.2 40.4c2.6 6.2 5.8 12.1 9.6 17.7 3.7 5.5 8 10.7 12.7 15.4 4.7 4.7 9.9 9 15.4 12.7 5.6 3.8 11.5 7 17.7 9.6C76.4 205.2 90 208 104 208s27.6-2.7 40.4-8.2c6.2-2.6 12.1-5.8 17.7-9.6 5.5-3.7 10.7-8 15.4-12.7 4.2-4.2 8.1-8.8 11.5-13.7h16.9l-28.5-22.1h-26.6V66L130 82.1v81.8h27.4c-14.2 12.7-32.9 20.4-53.4 20.4-44.2 0-80.2-36-80.2-80.2s36-80.2 80.2-80.2c8.8 0 17.1 1.4 25 4L85.6 61.5v102.3h23.5v-92l41.7-32.3V11z" fill="#0691e0"/><path class="st1" d="M216.2 116.7v28.5l-65.4-50.7V66zm0-55v28.5l-65.4-50.7V11z"/></g><path class="st1" d="M262.7 61.7v4.9h-9.5v26.3h-5.7V66.6h-9.6v-4.9h24.8zM289 92.2c-1.1.3-2.4.5-4.1.8s-3.5.4-5.5.4c-1.9 0-3.5-.3-4.7-.8-1.3-.5-2.3-1.3-3.1-2.3-.8-1-1.3-2.1-1.6-3.4-.3-1.3-.5-2.8-.5-4.4V69.3h5.4v12.3c0 2.5.4 4.3 1.1 5.4s2 1.6 3.8 1.6c.7 0 1.4 0 2.1-.1s1.3-.1 1.6-.2v-19h5.4l.1 22.9zm24.2-17.9c-.5-.1-1.1-.3-1.9-.5s-1.7-.2-2.8-.2c-.6 0-1.2.1-1.9.2s-1.1.2-1.4.3V93h-5.4V70.6c1.1-.4 2.4-.8 3.9-1.1 1.6-.3 3.3-.5 5.2-.5.4 0 .8 0 1.3.1.5 0 1 .1 1.4.2.5.1.9.2 1.4.3s.8.2 1.1.3l-.9 4.4zm15.1 4.3c.7-.7 1.4-1.5 2.2-2.3s1.5-1.7 2.3-2.5c.7-.8 1.5-1.6 2.1-2.4s1.3-1.4 1.7-2h6.4c-1.5 1.7-3.1 3.4-4.7 5.2s-3.3 3.6-5 5.3c.9.8 1.8 1.7 2.8 2.7 1 1.1 1.9 2.2 2.9 3.4.9 1.2 1.8 2.4 2.6 3.6s1.5 2.3 2 3.3h-6.3c-.5-.9-1.2-1.9-1.9-2.9s-1.5-2-2.3-3-1.6-1.9-2.5-2.7c-.8-.9-1.7-1.6-2.5-2.2v10.8h-5.4v-34l5.4-.9v20.6h.2zm21.4 2.7c0-2.1.3-3.9.9-5.4.6-1.6 1.4-2.9 2.5-3.9 1-1 2.2-1.8 3.5-2.3s2.7-.8 4.1-.8c3.2 0 5.8 1 7.6 3s2.7 5 2.7 9v1c0 .4 0 .7-.1 1h-15.5c.1 1.9.8 3.4 2 4.4s2.9 1.6 5.2 1.6c1.3 0 2.5-.1 3.6-.4 1.1-.2 2-.5 2.6-.8l.7 4.5c-.3.2-.7.3-1.2.5s-1.1.3-1.8.5c-.7.1-1.4.2-2.2.3-.8.1-1.6.1-2.4.1-2.1 0-3.9-.3-5.4-.9s-2.8-1.5-3.8-2.6-1.7-2.4-2.2-3.9c-.6-1.5-.8-3.1-.8-4.9zm15.8-2.4c0-.7-.1-1.5-.3-2.1-.2-.7-.5-1.3-.9-1.8s-.9-.9-1.5-1.2-1.3-.4-2.1-.4-1.6.2-2.2.5-1.2.7-1.6 1.2-.8 1.1-1 1.8-.4 1.3-.5 2h10.1zm34.8-9.5c-2.4 8.9-5.2 17-8.4 24.3-.6 1.4-1.2 2.5-1.8 3.5s-1.3 1.8-2.1 2.4-1.7 1.1-2.6 1.4c-1 .3-2.1.4-3.3.4-.8 0-1.7-.1-2.5-.3s-1.4-.4-1.9-.6l1-4.4c1.1.4 2.2.6 3.2.6 1.4 0 2.5-.3 3.3-1s1.5-1.7 2.1-3.1c-1.7-3.3-3.4-6.9-5-10.8s-3-8-4.2-12.4h5.8c.3 1.3.7 2.6 1.1 4.1s.9 3 1.4 4.5 1.1 3 1.6 4.5c.6 1.5 1.1 2.9 1.7 4.2 1-2.7 1.9-5.5 2.7-8.5s1.6-5.9 2.3-8.8h5.6zm18.1 19.3c2 0 3.5-.3 4.5-1 .9-.7 1.4-1.7 1.4-2.9 0-.7-.2-1.4-.5-1.9s-.8-1-1.4-1.5c-.6-.4-1.3-.8-2.1-1.2-.8-.4-1.8-.7-2.9-1.1-1.1-.4-2.1-.8-3.1-1.3s-1.9-1-2.7-1.7-1.4-1.5-1.8-2.5c-.5-1-.7-2.1-.7-3.5 0-2.8 1-5 2.9-6.6 2-1.6 4.6-2.4 8-2.4 2 0 3.7.2 5.2.7 1.5.4 2.7.9 3.6 1.4l-1.8 4.6c-1-.6-2.1-1-3.4-1.3-1.2-.3-2.5-.5-3.8-.5-1.5 0-2.7.3-3.6.9-.9.6-1.3 1.5-1.3 2.7 0 .7.1 1.3.4 1.8s.7.9 1.2 1.3 1.1.8 1.8 1.1c.7.3 1.5.6 2.3.9 1.5.5 2.8 1.1 3.9 1.6 1.2.6 2.1 1.2 2.9 2s1.4 1.7 1.8 2.7.6 2.3.6 3.8c0 2.8-1 5-3 6.6-2 1.5-4.9 2.3-8.8 2.3-1.3 0-2.5-.1-3.5-.2-1.1-.2-2-.4-2.8-.6s-1.5-.5-2.1-.7c-.6-.3-1.1-.5-1.4-.7l1.7-4.6c.8.5 1.9.9 3.3 1.4 1.6.2 3.2.4 5.2.4zM439 63.2l5.4-.9v7.1h8.4v4.5h-8.4v9.6c0 1.9.3 3.2.9 4.1.6.8 1.6 1.2 3.1 1.2 1 0 1.9-.1 2.6-.3.8-.2 1.4-.4 1.8-.6l.9 4.3c-.6.3-1.5.5-2.5.8s-2.2.4-3.6.4c-1.7 0-3.1-.2-4.2-.7s-2-1.1-2.7-2-1.1-1.9-1.4-3.1c-.3-1.2-.4-2.6-.4-4.2l.1-20.2zm31.3 5.6c1.8 0 3.3.2 4.5.7s2.2 1.1 2.9 1.9 1.3 1.8 1.6 2.9c.3 1.2.5 2.4.5 3.8v14.3c-.8.2-2.1.4-3.8.7-1.7.3-3.6.4-5.7.4-1.4 0-2.7-.1-3.9-.4s-2.2-.7-3-1.3-1.5-1.4-1.9-2.3c-.5-1-.7-2.1-.7-3.6 0-1.4.3-2.5.8-3.4s1.2-1.7 2.1-2.3 1.9-1 3.1-1.3 2.4-.4 3.7-.4c.6 0 1.2 0 1.9.1s1.4.2 2.1.4v-.9c0-.6-.1-1.2-.2-1.8-.2-.6-.4-1.1-.8-1.5s-.9-.8-1.5-1-1.4-.4-2.3-.4c-1.3 0-2.4.1-3.5.3s-1.9.4-2.6.6l-.7-4.4c.7-.2 1.7-.5 3-.7 1.5-.3 2.9-.4 4.4-.4zm.4 20.3c1.7 0 3-.1 3.8-.3v-6c-.3-.1-.7-.2-1.3-.3-.6-.1-1.2-.1-1.9-.1-.6 0-1.2 0-1.8.1s-1.2.3-1.7.5-.9.6-1.2 1-.5 1-.5 1.6c0 1.3.4 2.2 1.2 2.7.9.6 2 .8 3.4.8zm19.9-25.9l5.4-.9v7.1h8.4v4.5H496v9.6c0 1.9.3 3.2.9 4.1.6.8 1.6 1.2 3.1 1.2 1 0 1.9-.1 2.6-.3.8-.2 1.4-.4 1.8-.6l.9 4.3c-.6.3-1.5.5-2.5.8s-2.2.4-3.6.4c-1.7 0-3.1-.2-4.2-.7s-2-1.1-2.7-2-1.1-1.9-1.4-3.1c-.3-1.2-.4-2.6-.4-4.2l.1-20.2zm21.7 18.1c0-2.1.3-3.9.9-5.4.6-1.6 1.4-2.9 2.5-3.9 1-1 2.2-1.8 3.5-2.3s2.7-.8 4.1-.8c3.2 0 5.8 1 7.6 3s2.7 5 2.7 9v1c0 .4 0 .7-.1 1H518c.1 1.9.8 3.4 2 4.4s2.9 1.6 5.2 1.6c1.3 0 2.5-.1 3.6-.4 1.1-.2 2-.5 2.6-.8l.7 4.5c-.3.2-.7.3-1.2.5s-1.1.3-1.8.5c-.7.1-1.4.2-2.2.3-.8.1-1.6.1-2.4.1-2.1 0-3.9-.3-5.4-.9s-2.8-1.5-3.8-2.6-1.7-2.4-2.2-3.9c-.5-1.5-.8-3.1-.8-4.9zm15.8-2.4c0-.7-.1-1.5-.3-2.1-.2-.7-.5-1.3-.9-1.8s-.9-.9-1.5-1.2-1.3-.4-2.1-.4-1.6.2-2.2.5-1.2.7-1.6 1.2-.8 1.1-1 1.8-.4 1.3-.5 2h10.1zm-269.6 57.7c0 1.3-.2 2.4-.6 3.5-.4 1.1-.9 1.9-1.6 2.7-.7.7-1.5 1.3-2.4 1.7s-2 .6-3.1.6-2.2-.2-3.1-.6-1.7-1-2.4-1.7-1.2-1.6-1.6-2.7c-.4-1-.6-2.2-.6-3.5s.2-2.4.6-3.4.9-1.9 1.6-2.6 1.5-1.3 2.4-1.7 2-.6 3.1-.6 2.2.2 3.1.6 1.8 1 2.4 1.7c.7.7 1.2 1.6 1.6 2.6.5 1 .6 2.1.6 3.4zm-3.7 0c0-1.6-.3-2.8-1-3.8-.7-.9-1.6-1.4-2.9-1.4-1.2 0-2.2.5-2.9 1.4s-1 2.2-1 3.8.3 2.9 1 3.8 1.6 1.4 2.9 1.4c1.2 0 2.2-.5 2.9-1.4.6-.9 1-2.2 1-3.8zm32.5 0c0 1.3-.2 2.4-.6 3.5-.4 1-.9 1.9-1.6 2.6s-1.6 1.3-2.6 1.7-2.1.6-3.4.6c-1.2 0-2.4-.1-3.5-.3-1.1-.2-2-.4-2.8-.6v-22.6l3.7-.6v8.3c.4-.2 1-.4 1.6-.6.6-.2 1.3-.3 2.1-.3 1.1 0 2.1.2 3 .6.9.4 1.6 1 2.2 1.7.6.7 1 1.6 1.4 2.6.3 1 .5 2.2.5 3.4zm-3.8-.1c0-1.6-.3-2.8-.9-3.7-.6-.9-1.6-1.4-3-1.4-.6 0-1.2.1-1.7.3s-1 .4-1.3.6v9.2c.3.1.6.1 1 .2s.9.1 1.5.1c1.4 0 2.4-.5 3.2-1.4.8-.9 1.2-2.2 1.2-3.9zm17.2.2c0-1.4.2-2.6.6-3.7.4-1.1 1-1.9 1.7-2.6s1.5-1.2 2.4-1.6c.9-.4 1.8-.5 2.8-.5 2.2 0 3.9.7 5.2 2 1.2 1.4 1.9 3.4 1.9 6.1v1.4h-10.6c.1 1.3.6 2.3 1.4 3s2 1.1 3.5 1.1c.9 0 1.7-.1 2.5-.2.7-.2 1.3-.3 1.8-.5l.5 3c-.2.1-.5.2-.8.3l-1.2.3c-.5.1-1 .2-1.5.2-.5.1-1.1.1-1.6.1-1.4 0-2.6-.2-3.7-.6-1-.4-1.9-1-2.6-1.7s-1.2-1.6-1.5-2.6c-.6-1.2-.8-2.3-.8-3.5zm10.7-1.7c0-.5-.1-1-.2-1.5s-.4-.9-.6-1.2c-.3-.3-.6-.6-1-.8-.4-.2-.9-.3-1.4-.3-.6 0-1.1.1-1.5.3-.4.2-.8.5-1.1.8-.3.3-.5.7-.7 1.2-.2.4-.3.9-.3 1.4l6.8.1zm27.3-3.1c-.3-.1-.7-.2-1.3-.3-.5-.1-1.2-.2-1.9-.2-.4 0-.8 0-1.3.1s-.8.2-1 .2v12.8h-3.7v-15.2c.7-.3 1.6-.5 2.7-.7s2.3-.4 3.6-.4h.9c.3 0 .7.1 1 .1.3.1.6.1.9.2.3.1.6.1.7.2l-.6 3.2zm12.8 4.8c0-1.4.2-2.6.6-3.7.4-1.1 1-1.9 1.7-2.6s1.5-1.2 2.4-1.6 1.8-.5 2.8-.5c2.2 0 3.9.7 5.2 2 1.2 1.4 1.9 3.4 1.9 6.1v1.4h-10.6c.1 1.3.6 2.3 1.4 3s2 1.1 3.5 1.1c.9 0 1.7-.1 2.5-.2.7-.2 1.3-.3 1.8-.5l.5 3c-.2.1-.5.2-.8.3l-1.2.3c-.5.1-1 .2-1.5.2-.5.1-1.1.1-1.6.1-1.4 0-2.6-.2-3.7-.6-1-.4-1.9-1-2.6-1.7s-1.2-1.6-1.5-2.6c-.6-1.2-.8-2.3-.8-3.5zm10.7-1.7c0-.5-.1-1-.2-1.5s-.4-.9-.6-1.2c-.3-.3-.6-.6-1-.8s-.9-.3-1.4-.3c-.6 0-1.1.1-1.5.3s-.8.5-1.1.8-.5.7-.7 1.2c-.2.4-.3.9-.3 1.4l6.8.1zm30.5 8c0 2.5-.6 4.4-1.9 5.6-1.3 1.2-3.3 1.8-5.9 1.8-1 0-1.9-.1-2.9-.2-.9-.2-1.8-.4-2.5-.6l.7-3.2c.6.3 1.4.5 2.2.6.8.2 1.7.2 2.6.2 1.5 0 2.5-.3 3.2-.9.6-.6.9-1.5.9-2.7v-.6c-.4.2-.9.4-1.5.6s-1.3.3-2.1.3c-1 0-2-.2-2.8-.5s-1.6-.8-2.2-1.4c-.6-.6-1.1-1.4-1.4-2.4-.3-.9-.5-2-.5-3.3 0-1.2.2-2.2.5-3.2.4-1 .9-1.8 1.6-2.5s1.5-1.2 2.5-1.6 2.1-.6 3.3-.6 2.3.1 3.4.3 2 .4 2.8.6V143zm-10.3-6.8c0 1.6.3 2.7 1 3.4s1.6 1.1 2.6 1.1c.6 0 1.1-.1 1.7-.2.5-.2.9-.4 1.3-.6v-8.3c-.3-.1-.6-.1-1-.2s-.9-.1-1.5-.1c-1.3 0-2.4.4-3.1 1.3-.6 1-1 2.1-1 3.6zm149.2 8.4H410.8v-2.1h120.8v2.1z" id="Text_1_"/></svg>