<?xml version="1.0" encoding="utf-8"?>
<!-- Generator: Adobe Illustrator 23.1.0, SVG Export Plug-In . SVG Version: 6.00 Build 0)  -->
<svg version="1.1" id="Layer_1" xmlns="http://www.w3.org/2000/svg" xmlns:xlink="http://www.w3.org/1999/xlink" x="0px" y="0px"
	 viewBox="0 0 216.2 208" style="enable-background:new 0 0 216.2 208;" xml:space="preserve">
<style type="text/css">
	.st0{fill:#0691E0;}
	.st1{fill:#12282D;}
</style>
<path class="st0" d="M150.8,11c-2.1-1-4.3-1.9-6.4-2.8C131.6,2.8,118,0,104,0S76.4,2.7,63.6,8.2c-6.2,2.6-12.1,5.8-17.7,9.6
	c-5.5,3.7-10.7,8-15.4,12.7s-9,9.9-12.7,15.4c-3.8,5.6-7,11.5-9.6,17.7C2.8,76.4,0,90,0,104s2.7,27.6,8.2,40.4
	c2.6,6.2,5.8,12.1,9.6,17.7c3.7,5.5,8,10.7,12.7,15.4s9.9,9,15.4,12.7c5.6,3.8,11.5,7,17.7,9.6C76.4,205.2,90,208,104,208
	s27.6-2.7,40.4-8.2c6.2-2.6,12.1-5.8,17.7-9.6c5.5-3.7,10.7-8,15.4-12.7c4.2-4.2,8.1-8.8,11.5-13.7h16.9l-28.5-22.1h-26.6V66
	L130,82.1v81.8h27.4c-14.2,12.7-32.9,20.4-53.4,20.4c-44.2,0-80.2-36-80.2-80.2s36-80.2,80.2-80.2c8.8,0,17.1,1.4,25,4L85.6,61.5
	v102.3h23.5v-92l41.7-32.3L150.8,11L150.8,11z"/>
<polygon class="st1" points="216.2,116.7 216.2,145.2 150.8,94.5 150.8,94.5 150.8,66 150.8,66 "/>
<polygon class="st1" points="216.2,61.7 216.2,90.2 150.8,39.5 150.8,39.5 150.8,11 150.8,11 "/>
</svg>
