<?xml version="1.0" encoding="utf-8"?>
<!-- Generator: Adobe Illustrator 23.0.3, SVG Export Plug-In . SVG Version: 6.00 Build 0)  -->
<svg version="1.1" id="Layer_1" xmlns="http://www.w3.org/2000/svg" xmlns:xlink="http://www.w3.org/1999/xlink" x="0px" y="0px"
	 viewBox="0 0 443 424" style="enable-background:new 0 0 443 424;" xml:space="preserve">
<style type="text/css">
	.st0{clip-path:url(#SVGID_2_);}
	.st1{fill:none;stroke:#ffffff;stroke-width:1.8;stroke-miterlimit:10;}
	.st2{clip-path:url(#SVGID_4_);}
	.st3{clip-path:url(#SVGID_6_);}
	.st4{clip-path:url(#SVGID_8_);}
	.st5{clip-path:url(#SVGID_10_);}
	.st6{clip-path:url(#SVGID_12_);}
	.st7{clip-path:url(#SVGID_14_);}
	.st8{clip-path:url(#SVGID_16_);}
	.st9{clip-path:url(#SVGID_18_);}
</style>
<g>
	<g>
		<g>
			<g>
				<g>
					<defs>
						<rect id="SVGID_1_" x="295.2" y="-0.4" width="147.6" height="141.6"/>
					</defs>
					<clipPath id="SVGID_2_">
						<use xlink:href="#SVGID_1_"  style="overflow:visible;"/>
					</clipPath>
					<g class="st0">
						<polyline class="st1" points="590.7,233.5 578.4,226.4 578.4,169.2 516.7,133.5 516.6,133.5 455,169.1 455,226.5 442.6,233.6 
													"/>
					</g>
					<g class="st0">
						<polyline class="st1" points="443.1,233.5 430.8,226.4 430.8,169.2 369.1,133.5 369,133.5 307.4,169.1 307.4,226.5 295,233.6 
													"/>
					</g>
					<g class="st0">
						<polyline class="st1" points="295.5,233.5 283.2,226.4 283.2,169.2 221.5,133.5 221.4,133.5 159.8,169.1 159.8,226.5 
							147.4,233.6 						"/>
					</g>
					<g class="st0">
						<polyline class="st1" points="590.7,91.9 578.4,84.9 578.4,27.7 516.7,-8.1 516.6,-8.1 455,27.6 455,85 442.6,92 						"/>
						<polyline class="st1" points="442.6,120.4 479.7,99 479.7,41.8 516.6,20.6 516.7,20.6 553.7,42 553.7,99.2 590.6,120.4 						
							"/>
						<polyline class="st1" points="590.6,149.1 529.1,113.4 529.1,56 516.7,49 516.6,49.1 504.4,56.1 504.4,113.3 442.6,149.1 
													"/>
					</g>
					<g class="st0">
						<polyline class="st1" points="443.1,91.9 430.8,84.9 430.8,27.7 369.1,-8.1 369,-8.1 307.4,27.6 307.4,85 295,92 						"/>
						<polyline class="st1" points="295,120.4 332.1,99 332.1,41.8 369,20.6 369.1,20.6 406.1,42 406.1,99.2 443,120.4 						"/>
						<polyline class="st1" points="443,149.1 381.5,113.4 381.5,56 369.1,49 369,49.1 356.8,56.1 356.8,113.3 295,149.1 						"/>
					</g>
					<g class="st0">
						<polyline class="st1" points="295.5,91.9 283.2,84.9 283.2,27.7 221.5,-8.1 221.4,-8.1 159.8,27.6 159.8,85 147.4,92 						
							"/>
						<polyline class="st1" points="147.4,120.4 184.5,99 184.5,41.8 221.4,20.6 221.5,20.6 258.5,42 258.5,99.2 295.4,120.4 						
							"/>
						<polyline class="st1" points="295.4,149.1 233.9,113.4 233.9,56 221.5,49 221.4,49.1 209.2,56.1 209.2,113.3 147.4,149.1 
													"/>
					</g>
					<g class="st0">
						<polyline class="st1" points="590.6,7.5 529.1,-28.1 529.1,-85.5 516.7,-92.6 516.6,-92.5 504.4,-85.4 504.4,-28.2 442.6,7.5 
													"/>
					</g>
					<g class="st0">
						<polyline class="st1" points="443,7.5 381.5,-28.1 381.5,-85.5 369.1,-92.6 369,-92.5 356.8,-85.4 356.8,-28.2 295,7.5 						
							"/>
					</g>
					<g class="st0">
						<polyline class="st1" points="295.4,7.5 233.9,-28.1 233.9,-85.5 221.5,-92.6 221.4,-92.5 209.2,-85.4 209.2,-28.2 147.4,7.5 
													"/>
					</g>
				</g>
			</g>
			<g>
				<g>
					<defs>
						<rect id="SVGID_3_" x="295.2" y="141.2" width="147.6" height="141.6"/>
					</defs>
					<clipPath id="SVGID_4_">
						<use xlink:href="#SVGID_3_"  style="overflow:visible;"/>
					</clipPath>
					<g class="st2">
						<polyline class="st1" points="590.7,375.1 578.4,368 578.4,310.8 516.7,275.1 516.6,275.1 455,310.7 455,368.1 442.6,375.2 
													"/>
					</g>
					<g class="st2">
						<polyline class="st1" points="443.1,375.1 430.8,368 430.8,310.8 369.1,275.1 369,275.1 307.4,310.7 307.4,368.1 295,375.2 
													"/>
					</g>
					<g class="st2">
						<polyline class="st1" points="295.5,375.1 283.2,368 283.2,310.8 221.5,275.1 221.4,275.1 159.8,310.7 159.8,368.1 
							147.4,375.2 						"/>
					</g>
					<g class="st2">
						<polyline class="st1" points="590.7,233.5 578.4,226.4 578.4,169.2 516.7,133.5 516.6,133.5 455,169.1 455,226.5 442.6,233.6 
													"/>
						<polyline class="st1" points="442.6,262 479.7,240.6 479.7,183.4 516.6,162.2 516.7,162.1 553.7,183.6 553.7,240.8 590.6,262 
													"/>
						<polyline class="st1" points="590.6,290.7 529.1,255 529.1,197.6 516.7,190.5 516.6,190.6 504.4,197.7 504.4,254.9 
							442.6,290.7 						"/>
					</g>
					<g class="st2">
						<polyline class="st1" points="443.1,233.5 430.8,226.4 430.8,169.2 369.1,133.5 369,133.5 307.4,169.1 307.4,226.5 295,233.6 
													"/>
						<polyline class="st1" points="295,262 332.1,240.6 332.1,183.4 369,162.2 369.1,162.1 406.1,183.6 406.1,240.8 443,262 						
							"/>
						<polyline class="st1" points="443,290.7 381.5,255 381.5,197.6 369.1,190.5 369,190.6 356.8,197.7 356.8,254.9 295,290.7 
													"/>
					</g>
					<g class="st2">
						<polyline class="st1" points="295.5,233.5 283.2,226.4 283.2,169.2 221.5,133.5 221.4,133.5 159.8,169.1 159.8,226.5 
							147.4,233.6 						"/>
						<polyline class="st1" points="147.4,262 184.5,240.6 184.5,183.4 221.4,162.2 221.5,162.1 258.5,183.6 258.5,240.8 295.4,262 
													"/>
						<polyline class="st1" points="295.4,290.7 233.9,255 233.9,197.6 221.5,190.5 221.4,190.6 209.2,197.7 209.2,254.9 
							147.4,290.7 						"/>
					</g>
					<g class="st2">
						<polyline class="st1" points="590.6,149.1 529.1,113.4 529.1,56 516.7,49 516.6,49.1 504.4,56.1 504.4,113.3 442.6,149.1 
													"/>
					</g>
					<g class="st2">
						<polyline class="st1" points="443,149.1 381.5,113.4 381.5,56 369.1,49 369,49.1 356.8,56.1 356.8,113.3 295,149.1 						"/>
					</g>
					<g class="st2">
						<polyline class="st1" points="295.4,149.1 233.9,113.4 233.9,56 221.5,49 221.4,49.1 209.2,56.1 209.2,113.3 147.4,149.1 
													"/>
					</g>
				</g>
			</g>
			<g>
				<g>
					<defs>
						<rect id="SVGID_5_" x="295.2" y="282.8" width="147.6" height="141.6"/>
					</defs>
					<clipPath id="SVGID_6_">
						<use xlink:href="#SVGID_5_"  style="overflow:visible;"/>
					</clipPath>
					<g class="st3">
						<polyline class="st1" points="590.7,516.7 578.4,509.6 578.4,452.4 516.7,416.6 516.6,416.6 455,452.3 455,509.7 442.6,516.8 
													"/>
					</g>
					<g class="st3">
						<polyline class="st1" points="443.1,516.7 430.8,509.6 430.8,452.4 369.1,416.6 369,416.6 307.4,452.3 307.4,509.7 295,516.8 
													"/>
					</g>
					<g class="st3">
						<polyline class="st1" points="295.5,516.7 283.2,509.6 283.2,452.4 221.5,416.6 221.4,416.6 159.8,452.3 159.8,509.7 
							147.4,516.8 						"/>
					</g>
					<g class="st3">
						<polyline class="st1" points="590.7,375.1 578.4,368 578.4,310.8 516.7,275.1 516.6,275.1 455,310.7 455,368.1 442.6,375.2 
													"/>
						<polyline class="st1" points="442.6,403.6 479.7,382.2 479.7,324.9 516.6,303.8 516.7,303.7 553.7,325.2 553.7,382.4 
							590.6,403.6 						"/>
						<polyline class="st1" points="590.6,432.3 529.1,396.6 529.1,339.2 516.7,332.1 516.6,332.2 504.4,339.3 504.4,396.5 
							442.6,432.3 						"/>
					</g>
					<g class="st3">
						<polyline class="st1" points="443.1,375.1 430.8,368 430.8,310.8 369.1,275.1 369,275.1 307.4,310.7 307.4,368.1 295,375.2 
													"/>
						<polyline class="st1" points="295,403.6 332.1,382.2 332.1,324.9 369,303.8 369.1,303.7 406.1,325.2 406.1,382.4 443,403.6 
													"/>
						<polyline class="st1" points="443,432.3 381.5,396.6 381.5,339.2 369.1,332.1 369,332.2 356.8,339.3 356.8,396.5 295,432.3 
													"/>
					</g>
					<g class="st3">
						<polyline class="st1" points="295.5,375.1 283.2,368 283.2,310.8 221.5,275.1 221.4,275.1 159.8,310.7 159.8,368.1 
							147.4,375.2 						"/>
						<polyline class="st1" points="147.4,403.6 184.5,382.2 184.5,324.9 221.4,303.8 221.5,303.7 258.5,325.2 258.5,382.4 
							295.4,403.6 						"/>
						<polyline class="st1" points="295.4,432.3 233.9,396.6 233.9,339.2 221.5,332.1 221.4,332.2 209.2,339.3 209.2,396.5 
							147.4,432.3 						"/>
					</g>
					<g class="st3">
						<polyline class="st1" points="590.6,290.7 529.1,255 529.1,197.6 516.7,190.5 516.6,190.6 504.4,197.7 504.4,254.9 
							442.6,290.7 						"/>
					</g>
					<g class="st3">
						<polyline class="st1" points="443,290.7 381.5,255 381.5,197.6 369.1,190.5 369,190.6 356.8,197.7 356.8,254.9 295,290.7 
													"/>
					</g>
					<g class="st3">
						<polyline class="st1" points="295.4,290.7 233.9,255 233.9,197.6 221.5,190.5 221.4,190.6 209.2,197.7 209.2,254.9 
							147.4,290.7 						"/>
					</g>
				</g>
			</g>
			<g>
				<g>
					<defs>
						<rect id="SVGID_7_" x="147.6" y="-0.4" width="147.6" height="141.6"/>
					</defs>
					<clipPath id="SVGID_8_">
						<use xlink:href="#SVGID_7_"  style="overflow:visible;"/>
					</clipPath>
					<g class="st4">
						<polyline class="st1" points="443.1,233.5 430.8,226.4 430.8,169.2 369.1,133.5 369,133.5 307.4,169.1 307.4,226.5 295,233.6 
													"/>
					</g>
					<g class="st4">
						<polyline class="st1" points="295.5,233.5 283.2,226.4 283.2,169.2 221.5,133.5 221.4,133.5 159.8,169.1 159.8,226.5 
							147.4,233.6 						"/>
					</g>
					<g class="st4">
						<polyline class="st1" points="147.9,233.5 135.6,226.4 135.6,169.2 73.9,133.5 73.8,133.5 12.2,169.1 12.2,226.5 -0.2,233.6 
													"/>
					</g>
					<g class="st4">
						<polyline class="st1" points="443.1,91.9 430.8,84.9 430.8,27.7 369.1,-8.1 369,-8.1 307.4,27.6 307.4,85 295,92 						"/>
						<polyline class="st1" points="295,120.4 332.1,99 332.1,41.8 369,20.6 369.1,20.6 406.1,42 406.1,99.2 443,120.4 						"/>
						<polyline class="st1" points="443,149.1 381.5,113.4 381.5,56 369.1,49 369,49.1 356.8,56.1 356.8,113.3 295,149.1 						"/>
					</g>
					<g class="st4">
						<polyline class="st1" points="295.5,91.9 283.2,84.9 283.2,27.7 221.5,-8.1 221.4,-8.1 159.8,27.6 159.8,85 147.4,92 						
							"/>
						<polyline class="st1" points="147.4,120.4 184.5,99 184.5,41.8 221.4,20.6 221.5,20.6 258.5,42 258.5,99.2 295.4,120.4 						
							"/>
						<polyline class="st1" points="295.4,149.1 233.9,113.4 233.9,56 221.5,49 221.4,49.1 209.2,56.1 209.2,113.3 147.4,149.1 
													"/>
					</g>
					<g class="st4">
						<polyline class="st1" points="147.9,91.9 135.6,84.9 135.6,27.7 73.9,-8.1 73.8,-8.1 12.2,27.6 12.2,85 -0.2,92 						"/>
						<polyline class="st1" points="-0.2,120.4 36.9,99 36.9,41.8 73.8,20.6 73.9,20.6 110.9,42 110.9,99.2 147.8,120.4 						"/>
						<polyline class="st1" points="147.8,149.1 86.3,113.4 86.3,56 73.9,49 73.8,49.1 61.6,56.1 61.6,113.3 -0.2,149.1 						"/>
					</g>
					<g class="st4">
						<polyline class="st1" points="443,7.5 381.5,-28.1 381.5,-85.5 369.1,-92.6 369,-92.5 356.8,-85.4 356.8,-28.2 295,7.5 						
							"/>
					</g>
					<g class="st4">
						<polyline class="st1" points="295.4,7.5 233.9,-28.1 233.9,-85.5 221.5,-92.6 221.4,-92.5 209.2,-85.4 209.2,-28.2 147.4,7.5 
													"/>
					</g>
					<g class="st4">
						<polyline class="st1" points="147.8,7.5 86.3,-28.1 86.3,-85.5 73.9,-92.6 73.8,-92.5 61.6,-85.4 61.6,-28.2 -0.2,7.5 						
							"/>
					</g>
				</g>
			</g>
			<g>
				<g>
					<defs>
						<rect id="SVGID_9_" x="147.6" y="141.2" width="147.6" height="141.6"/>
					</defs>
					<clipPath id="SVGID_10_">
						<use xlink:href="#SVGID_9_"  style="overflow:visible;"/>
					</clipPath>
					<g class="st5">
						<polyline class="st1" points="443.1,375.1 430.8,368 430.8,310.8 369.1,275.1 369,275.1 307.4,310.7 307.4,368.1 295,375.2 
													"/>
					</g>
					<g class="st5">
						<polyline class="st1" points="295.5,375.1 283.2,368 283.2,310.8 221.5,275.1 221.4,275.1 159.8,310.7 159.8,368.1 
							147.4,375.2 						"/>
					</g>
					<g class="st5">
						<polyline class="st1" points="147.9,375.1 135.6,368 135.6,310.8 73.9,275.1 73.8,275.1 12.2,310.7 12.2,368.1 -0.2,375.2 
													"/>
					</g>
					<g class="st5">
						<polyline class="st1" points="443.1,233.5 430.8,226.4 430.8,169.2 369.1,133.5 369,133.5 307.4,169.1 307.4,226.5 295,233.6 
													"/>
						<polyline class="st1" points="295,262 332.1,240.6 332.1,183.4 369,162.2 369.1,162.1 406.1,183.6 406.1,240.8 443,262 						
							"/>
						<polyline class="st1" points="443,290.7 381.5,255 381.5,197.6 369.1,190.5 369,190.6 356.8,197.7 356.8,254.9 295,290.7 
													"/>
					</g>
					<g class="st5">
						<polyline class="st1" points="295.5,233.5 283.2,226.4 283.2,169.2 221.5,133.5 221.4,133.5 159.8,169.1 159.8,226.5 
							147.4,233.6 						"/>
						<polyline class="st1" points="147.4,262 184.5,240.6 184.5,183.4 221.4,162.2 221.5,162.1 258.5,183.6 258.5,240.8 295.4,262 
													"/>
						<polyline class="st1" points="295.4,290.7 233.9,255 233.9,197.6 221.5,190.5 221.4,190.6 209.2,197.7 209.2,254.9 
							147.4,290.7 						"/>
					</g>
					<g class="st5">
						<polyline class="st1" points="147.9,233.5 135.6,226.4 135.6,169.2 73.9,133.5 73.8,133.5 12.2,169.1 12.2,226.5 -0.2,233.6 
													"/>
						<polyline class="st1" points="-0.2,262 36.9,240.6 36.9,183.4 73.8,162.2 73.9,162.1 110.9,183.6 110.9,240.8 147.8,262 
													"/>
						<polyline class="st1" points="147.8,290.7 86.3,255 86.3,197.6 73.9,190.5 73.8,190.6 61.6,197.7 61.6,254.9 -0.2,290.7 
													"/>
					</g>
					<g class="st5">
						<polyline class="st1" points="443,149.1 381.5,113.4 381.5,56 369.1,49 369,49.1 356.8,56.1 356.8,113.3 295,149.1 						"/>
					</g>
					<g class="st5">
						<polyline class="st1" points="295.4,149.1 233.9,113.4 233.9,56 221.5,49 221.4,49.1 209.2,56.1 209.2,113.3 147.4,149.1 
													"/>
					</g>
					<g class="st5">
						<polyline class="st1" points="147.8,149.1 86.3,113.4 86.3,56 73.9,49 73.8,49.1 61.6,56.1 61.6,113.3 -0.2,149.1 						"/>
					</g>
				</g>
			</g>
			<g>
				<g>
					<defs>
						<rect id="SVGID_11_" x="147.6" y="282.8" width="147.6" height="141.6"/>
					</defs>
					<clipPath id="SVGID_12_">
						<use xlink:href="#SVGID_11_"  style="overflow:visible;"/>
					</clipPath>
					<g class="st6">
						<polyline class="st1" points="443.1,516.7 430.8,509.6 430.8,452.4 369.1,416.6 369,416.6 307.4,452.3 307.4,509.7 295,516.8 
													"/>
					</g>
					<g class="st6">
						<polyline class="st1" points="295.5,516.7 283.2,509.6 283.2,452.4 221.5,416.6 221.4,416.6 159.8,452.3 159.8,509.7 
							147.4,516.8 						"/>
					</g>
					<g class="st6">
						<polyline class="st1" points="147.9,516.7 135.6,509.6 135.6,452.4 73.9,416.6 73.8,416.6 12.2,452.3 12.2,509.7 -0.2,516.8 
													"/>
					</g>
					<g class="st6">
						<polyline class="st1" points="443.1,375.1 430.8,368 430.8,310.8 369.1,275.1 369,275.1 307.4,310.7 307.4,368.1 295,375.2 
													"/>
						<polyline class="st1" points="295,403.6 332.1,382.2 332.1,324.9 369,303.8 369.1,303.7 406.1,325.2 406.1,382.4 443,403.6 
													"/>
						<polyline class="st1" points="443,432.3 381.5,396.6 381.5,339.2 369.1,332.1 369,332.2 356.8,339.3 356.8,396.5 295,432.3 
													"/>
					</g>
					<g class="st6">
						<polyline class="st1" points="295.5,375.1 283.2,368 283.2,310.8 221.5,275.1 221.4,275.1 159.8,310.7 159.8,368.1 
							147.4,375.2 						"/>
						<polyline class="st1" points="147.4,403.6 184.5,382.2 184.5,324.9 221.4,303.8 221.5,303.7 258.5,325.2 258.5,382.4 
							295.4,403.6 						"/>
						<polyline class="st1" points="295.4,432.3 233.9,396.6 233.9,339.2 221.5,332.1 221.4,332.2 209.2,339.3 209.2,396.5 
							147.4,432.3 						"/>
					</g>
					<g class="st6">
						<polyline class="st1" points="147.9,375.1 135.6,368 135.6,310.8 73.9,275.1 73.8,275.1 12.2,310.7 12.2,368.1 -0.2,375.2 
													"/>
						<polyline class="st1" points="-0.2,403.6 36.9,382.2 36.9,324.9 73.8,303.8 73.9,303.7 110.9,325.2 110.9,382.4 147.8,403.6 
													"/>
						<polyline class="st1" points="147.8,432.3 86.3,396.6 86.3,339.2 73.9,332.1 73.8,332.2 61.6,339.3 61.6,396.5 -0.2,432.3 
													"/>
					</g>
					<g class="st6">
						<polyline class="st1" points="443,290.7 381.5,255 381.5,197.6 369.1,190.5 369,190.6 356.8,197.7 356.8,254.9 295,290.7 
													"/>
					</g>
					<g class="st6">
						<polyline class="st1" points="295.4,290.7 233.9,255 233.9,197.6 221.5,190.5 221.4,190.6 209.2,197.7 209.2,254.9 
							147.4,290.7 						"/>
					</g>
					<g class="st6">
						<polyline class="st1" points="147.8,290.7 86.3,255 86.3,197.6 73.9,190.5 73.8,190.6 61.6,197.7 61.6,254.9 -0.2,290.7 
													"/>
					</g>
				</g>
			</g>
			<g>
				<g>
					<defs>
						<rect id="SVGID_13_" x="0" y="-0.4" width="147.6" height="141.6"/>
					</defs>
					<clipPath id="SVGID_14_">
						<use xlink:href="#SVGID_13_"  style="overflow:visible;"/>
					</clipPath>
					<g class="st7">
						<polyline class="st1" points="295.5,233.5 283.2,226.4 283.2,169.2 221.5,133.5 221.4,133.5 159.8,169.1 159.8,226.5 
							147.4,233.6 						"/>
					</g>
					<g class="st7">
						<polyline class="st1" points="147.9,233.5 135.6,226.4 135.6,169.2 73.9,133.5 73.8,133.5 12.2,169.1 12.2,226.5 -0.2,233.6 
													"/>
					</g>
					<g class="st7">
						<polyline class="st1" points="0.3,233.5 -12,226.4 -12,169.2 -73.7,133.5 -73.8,133.5 -135.4,169.1 -135.4,226.5 
							-147.8,233.6 						"/>
					</g>
					<g class="st7">
						<polyline class="st1" points="295.5,91.9 283.2,84.9 283.2,27.7 221.5,-8.1 221.4,-8.1 159.8,27.6 159.8,85 147.4,92 						
							"/>
						<polyline class="st1" points="147.4,120.4 184.5,99 184.5,41.8 221.4,20.6 221.5,20.6 258.5,42 258.5,99.2 295.4,120.4 						
							"/>
						<polyline class="st1" points="295.4,149.1 233.9,113.4 233.9,56 221.5,49 221.4,49.1 209.2,56.1 209.2,113.3 147.4,149.1 
													"/>
					</g>
					<g class="st7">
						<polyline class="st1" points="147.9,91.9 135.6,84.9 135.6,27.7 73.9,-8.1 73.8,-8.1 12.2,27.6 12.2,85 -0.2,92 						"/>
						<polyline class="st1" points="-0.2,120.4 36.9,99 36.9,41.8 73.8,20.6 73.9,20.6 110.9,42 110.9,99.2 147.8,120.4 						"/>
						<polyline class="st1" points="147.8,149.1 86.3,113.4 86.3,56 73.9,49 73.8,49.1 61.6,56.1 61.6,113.3 -0.2,149.1 						"/>
					</g>
					<g class="st7">
						<polyline class="st1" points="0.3,91.9 -12,84.9 -12,27.7 -73.7,-8.1 -73.8,-8.1 -135.4,27.6 -135.4,85 -147.8,92 						"/>
						<polyline class="st1" points="-147.8,120.4 -110.7,99 -110.7,41.8 -73.8,20.6 -73.7,20.6 -36.7,42 -36.7,99.2 0.2,120.4 
													"/>
						<polyline class="st1" points="0.2,149.1 -61.3,113.4 -61.3,56 -73.7,49 -73.8,49.1 -86,56.1 -86,113.3 -147.8,149.1 						"/>
					</g>
					<g class="st7">
						<polyline class="st1" points="295.4,7.5 233.9,-28.1 233.9,-85.5 221.5,-92.6 221.4,-92.5 209.2,-85.4 209.2,-28.2 147.4,7.5 
													"/>
					</g>
					<g class="st7">
						<polyline class="st1" points="147.8,7.5 86.3,-28.1 86.3,-85.5 73.9,-92.6 73.8,-92.5 61.6,-85.4 61.6,-28.2 -0.2,7.5 						
							"/>
					</g>
					<g class="st7">
						<polyline class="st1" points="0.2,7.5 -61.3,-28.1 -61.3,-85.5 -73.7,-92.6 -73.8,-92.5 -86,-85.4 -86,-28.2 -147.8,7.5 
													"/>
					</g>
				</g>
			</g>
			<g>
				<g>
					<defs>
						<rect id="SVGID_15_" x="0" y="141.2" width="147.6" height="141.6"/>
					</defs>
					<clipPath id="SVGID_16_">
						<use xlink:href="#SVGID_15_"  style="overflow:visible;"/>
					</clipPath>
					<g class="st8">
						<polyline class="st1" points="295.5,375.1 283.2,368 283.2,310.8 221.5,275.1 221.4,275.1 159.8,310.7 159.8,368.1 
							147.4,375.2 						"/>
					</g>
					<g class="st8">
						<polyline class="st1" points="147.9,375.1 135.6,368 135.6,310.8 73.9,275.1 73.8,275.1 12.2,310.7 12.2,368.1 -0.2,375.2 
													"/>
					</g>
					<g class="st8">
						<polyline class="st1" points="0.3,375.1 -12,368 -12,310.8 -73.7,275.1 -73.8,275.1 -135.4,310.7 -135.4,368.1 -147.8,375.2 
													"/>
					</g>
					<g class="st8">
						<polyline class="st1" points="295.5,233.5 283.2,226.4 283.2,169.2 221.5,133.5 221.4,133.5 159.8,169.1 159.8,226.5 
							147.4,233.6 						"/>
						<polyline class="st1" points="147.4,262 184.5,240.6 184.5,183.4 221.4,162.2 221.5,162.1 258.5,183.6 258.5,240.8 295.4,262 
													"/>
						<polyline class="st1" points="295.4,290.7 233.9,255 233.9,197.6 221.5,190.5 221.4,190.6 209.2,197.7 209.2,254.9 
							147.4,290.7 						"/>
					</g>
					<g class="st8">
						<polyline class="st1" points="147.9,233.5 135.6,226.4 135.6,169.2 73.9,133.5 73.8,133.5 12.2,169.1 12.2,226.5 -0.2,233.6 
													"/>
						<polyline class="st1" points="-0.2,262 36.9,240.6 36.9,183.4 73.8,162.2 73.9,162.1 110.9,183.6 110.9,240.8 147.8,262 
													"/>
						<polyline class="st1" points="147.8,290.7 86.3,255 86.3,197.6 73.9,190.5 73.8,190.6 61.6,197.7 61.6,254.9 -0.2,290.7 
													"/>
					</g>
					<g class="st8">
						<polyline class="st1" points="0.3,233.5 -12,226.4 -12,169.2 -73.7,133.5 -73.8,133.5 -135.4,169.1 -135.4,226.5 
							-147.8,233.6 						"/>
						<polyline class="st1" points="-147.8,262 -110.7,240.6 -110.7,183.4 -73.8,162.2 -73.7,162.1 -36.7,183.6 -36.7,240.8 
							0.2,262 						"/>
						<polyline class="st1" points="0.2,290.7 -61.3,255 -61.3,197.6 -73.7,190.5 -73.8,190.6 -86,197.7 -86,254.9 -147.8,290.7 
													"/>
					</g>
					<g class="st8">
						<polyline class="st1" points="295.4,149.1 233.9,113.4 233.9,56 221.5,49 221.4,49.1 209.2,56.1 209.2,113.3 147.4,149.1 
													"/>
					</g>
					<g class="st8">
						<polyline class="st1" points="147.8,149.1 86.3,113.4 86.3,56 73.9,49 73.8,49.1 61.6,56.1 61.6,113.3 -0.2,149.1 						"/>
					</g>
					<g class="st8">
						<polyline class="st1" points="0.2,149.1 -61.3,113.4 -61.3,56 -73.7,49 -73.8,49.1 -86,56.1 -86,113.3 -147.8,149.1 						"/>
					</g>
				</g>
			</g>
			<g>
				<g>
					<defs>
						<rect id="SVGID_17_" x="0" y="282.8" width="147.6" height="141.6"/>
					</defs>
					<clipPath id="SVGID_18_">
						<use xlink:href="#SVGID_17_"  style="overflow:visible;"/>
					</clipPath>
					<g class="st9">
						<polyline class="st1" points="295.5,516.7 283.2,509.6 283.2,452.4 221.5,416.6 221.4,416.6 159.8,452.3 159.8,509.7 
							147.4,516.8 						"/>
					</g>
					<g class="st9">
						<polyline class="st1" points="147.9,516.7 135.6,509.6 135.6,452.4 73.9,416.6 73.8,416.6 12.2,452.3 12.2,509.7 -0.2,516.8 
													"/>
					</g>
					<g class="st9">
						<polyline class="st1" points="0.3,516.7 -12,509.6 -12,452.4 -73.7,416.6 -73.8,416.6 -135.4,452.3 -135.4,509.7 
							-147.8,516.8 						"/>
					</g>
					<g class="st9">
						<polyline class="st1" points="295.5,375.1 283.2,368 283.2,310.8 221.5,275.1 221.4,275.1 159.8,310.7 159.8,368.1 
							147.4,375.2 						"/>
						<polyline class="st1" points="147.4,403.6 184.5,382.2 184.5,324.9 221.4,303.8 221.5,303.7 258.5,325.2 258.5,382.4 
							295.4,403.6 						"/>
						<polyline class="st1" points="295.4,432.3 233.9,396.6 233.9,339.2 221.5,332.1 221.4,332.2 209.2,339.3 209.2,396.5 
							147.4,432.3 						"/>
					</g>
					<g class="st9">
						<polyline class="st1" points="147.9,375.1 135.6,368 135.6,310.8 73.9,275.1 73.8,275.1 12.2,310.7 12.2,368.1 -0.2,375.2 
													"/>
						<polyline class="st1" points="-0.2,403.6 36.9,382.2 36.9,324.9 73.8,303.8 73.9,303.7 110.9,325.2 110.9,382.4 147.8,403.6 
													"/>
						<polyline class="st1" points="147.8,432.3 86.3,396.6 86.3,339.2 73.9,332.1 73.8,332.2 61.6,339.3 61.6,396.5 -0.2,432.3 
													"/>
					</g>
					<g class="st9">
						<polyline class="st1" points="0.3,375.1 -12,368 -12,310.8 -73.7,275.1 -73.8,275.1 -135.4,310.7 -135.4,368.1 -147.8,375.2 
													"/>
						<polyline class="st1" points="-147.8,403.6 -110.7,382.2 -110.7,324.9 -73.8,303.8 -73.7,303.7 -36.7,325.2 -36.7,382.4 
							0.2,403.6 						"/>
						<polyline class="st1" points="0.2,432.3 -61.3,396.6 -61.3,339.2 -73.7,332.1 -73.8,332.2 -86,339.3 -86,396.5 -147.8,432.3 
													"/>
					</g>
					<g class="st9">
						<polyline class="st1" points="295.4,290.7 233.9,255 233.9,197.6 221.5,190.5 221.4,190.6 209.2,197.7 209.2,254.9 
							147.4,290.7 						"/>
					</g>
					<g class="st9">
						<polyline class="st1" points="147.8,290.7 86.3,255 86.3,197.6 73.9,190.5 73.8,190.6 61.6,197.7 61.6,254.9 -0.2,290.7 
													"/>
					</g>
					<g class="st9">
						<polyline class="st1" points="0.2,290.7 -61.3,255 -61.3,197.6 -73.7,190.5 -73.8,190.6 -86,197.7 -86,254.9 -147.8,290.7 
													"/>
					</g>
				</g>
			</g>
		</g>
	</g>
</g>
</svg>
