<svg version="1.1" id="Layer_1" xmlns="http://www.w3.org/2000/svg" xmlns:xlink="http://www.w3.org/1999/xlink" x="0" y="0" viewBox="0 0 443 424" xml:space="preserve"><style>.st0{clip-path:url(#SVGID_2_)}.st1{fill:none;stroke:#fff;stroke-width:1.8;stroke-miterlimit:10}.st2{clip-path:url(#SVGID_4_)}.st3{clip-path:url(#SVGID_6_)}.st4{clip-path:url(#SVGID_8_)}.st5{clip-path:url(#SVGID_10_)}.st6{clip-path:url(#SVGID_12_)}.st7{clip-path:url(#SVGID_14_)}.st8{clip-path:url(#SVGID_16_)}.st9{clip-path:url(#SVGID_18_)}</style><defs><path id="SVGID_1_" d="M295.2-.4h147.6v141.6H295.2z"/></defs><clipPath id="SVGID_2_"><use xlink:href="#SVGID_1_" overflow="visible"/></clipPath><g class="st0"><path class="st1" d="M590.7 233.5l-12.3-7.1v-57.2l-61.7-35.7h-.1L455 169.1v57.4l-12.4 7.1"/></g><g class="st0"><path class="st1" d="M443.1 233.5l-12.3-7.1v-57.2l-61.7-35.7h-.1l-61.6 35.6v57.4l-12.4 7.1"/></g><g class="st0"><path class="st1" d="M295.5 233.5l-12.3-7.1v-57.2l-61.7-35.7h-.1l-61.6 35.6v57.4l-12.4 7.1"/></g><g class="st0"><path class="st1" d="M590.7 91.9l-12.3-7V27.7L516.7-8.1h-.1L455 27.6V85l-12.4 7"/><path class="st1" d="M442.6 120.4L479.7 99V41.8l36.9-21.2h.1l37 21.4v57.2l36.9 21.2"/><path class="st1" d="M590.6 149.1l-61.5-35.7V56l-12.4-7-.1.1-12.2 7v57.2l-61.8 35.8"/></g><g class="st0"><path class="st1" d="M443.1 91.9l-12.3-7V27.7L369.1-8.1h-.1l-61.6 35.7V85L295 92"/><path class="st1" d="M295 120.4L332.1 99V41.8L369 20.6h.1l37 21.4v57.2l36.9 21.2"/><path class="st1" d="M443 149.1l-61.5-35.7V56l-12.4-7-.1.1-12.2 7v57.2L295 149.1"/></g><g class="st0"><path class="st1" d="M295.5 91.9l-12.3-7V27.7L221.5-8.1h-.1l-61.6 35.7V85l-12.4 7"/><path class="st1" d="M147.4 120.4L184.5 99V41.8l36.9-21.2h.1l37 21.4v57.2l36.9 21.2"/><path class="st1" d="M295.4 149.1l-61.5-35.7V56l-12.4-7-.1.1-12.2 7v57.2l-61.8 35.8"/></g><g class="st0"><path class="st1" d="M590.6 7.5l-61.5-35.6v-57.4l-12.4-7.1-.1.1-12.2 7.1v57.2L442.6 7.5"/></g><g class="st0"><path class="st1" d="M443 7.5l-61.5-35.6v-57.4l-12.4-7.1-.1.1-12.2 7.1v57.2L295 7.5"/></g><g class="st0"><path class="st1" d="M295.4 7.5l-61.5-35.6v-57.4l-12.4-7.1-.1.1-12.2 7.1v57.2L147.4 7.5"/></g><defs><path id="SVGID_3_" d="M295.2 141.2h147.6v141.6H295.2z"/></defs><clipPath id="SVGID_4_"><use xlink:href="#SVGID_3_" overflow="visible"/></clipPath><g class="st2"><path class="st1" d="M590.7 375.1l-12.3-7.1v-57.2l-61.7-35.7h-.1L455 310.7v57.4l-12.4 7.1"/></g><g class="st2"><path class="st1" d="M443.1 375.1l-12.3-7.1v-57.2l-61.7-35.7h-.1l-61.6 35.6v57.4l-12.4 7.1"/></g><g class="st2"><path class="st1" d="M295.5 375.1l-12.3-7.1v-57.2l-61.7-35.7h-.1l-61.6 35.6v57.4l-12.4 7.1"/></g><g class="st2"><path class="st1" d="M590.7 233.5l-12.3-7.1v-57.2l-61.7-35.7h-.1L455 169.1v57.4l-12.4 7.1"/><path class="st1" d="M442.6 262l37.1-21.4v-57.2l36.9-21.2.1-.1 37 21.5v57.2l36.9 21.2"/><path class="st1" d="M590.6 290.7L529.1 255v-57.4l-12.4-7.1-.1.1-12.2 7.1v57.2l-61.8 35.8"/></g><g class="st2"><path class="st1" d="M443.1 233.5l-12.3-7.1v-57.2l-61.7-35.7h-.1l-61.6 35.6v57.4l-12.4 7.1"/><path class="st1" d="M295 262l37.1-21.4v-57.2l36.9-21.2.1-.1 37 21.5v57.2L443 262"/><path class="st1" d="M443 290.7L381.5 255v-57.4l-12.4-7.1-.1.1-12.2 7.1v57.2L295 290.7"/></g><g class="st2"><path class="st1" d="M295.5 233.5l-12.3-7.1v-57.2l-61.7-35.7h-.1l-61.6 35.6v57.4l-12.4 7.1"/><path class="st1" d="M147.4 262l37.1-21.4v-57.2l36.9-21.2.1-.1 37 21.5v57.2l36.9 21.2"/><path class="st1" d="M295.4 290.7L233.9 255v-57.4l-12.4-7.1-.1.1-12.2 7.1v57.2l-61.8 35.8"/></g><g class="st2"><path class="st1" d="M590.6 149.1l-61.5-35.7V56l-12.4-7-.1.1-12.2 7v57.2l-61.8 35.8"/></g><g class="st2"><path class="st1" d="M443 149.1l-61.5-35.7V56l-12.4-7-.1.1-12.2 7v57.2L295 149.1"/></g><g class="st2"><path class="st1" d="M295.4 149.1l-61.5-35.7V56l-12.4-7-.1.1-12.2 7v57.2l-61.8 35.8"/></g><defs><path id="SVGID_5_" d="M295.2 282.8h147.6v141.6H295.2z"/></defs><clipPath id="SVGID_6_"><use xlink:href="#SVGID_5_" overflow="visible"/></clipPath><g class="st3"><path class="st1" d="M590.7 516.7l-12.3-7.1v-57.2l-61.7-35.8h-.1L455 452.3v57.4l-12.4 7.1"/></g><g class="st3"><path class="st1" d="M443.1 516.7l-12.3-7.1v-57.2l-61.7-35.8h-.1l-61.6 35.7v57.4l-12.4 7.1"/></g><g class="st3"><path class="st1" d="M295.5 516.7l-12.3-7.1v-57.2l-61.7-35.8h-.1l-61.6 35.7v57.4l-12.4 7.1"/></g><g class="st3"><path class="st1" d="M590.7 375.1l-12.3-7.1v-57.2l-61.7-35.7h-.1L455 310.7v57.4l-12.4 7.1"/><path class="st1" d="M442.6 403.6l37.1-21.4v-57.3l36.9-21.1.1-.1 37 21.5v57.2l36.9 21.2"/><path class="st1" d="M590.6 432.3l-61.5-35.7v-57.4l-12.4-7.1-.1.1-12.2 7.1v57.2l-61.8 35.8"/></g><g class="st3"><path class="st1" d="M443.1 375.1l-12.3-7.1v-57.2l-61.7-35.7h-.1l-61.6 35.6v57.4l-12.4 7.1"/><path class="st1" d="M295 403.6l37.1-21.4v-57.3l36.9-21.1.1-.1 37 21.5v57.2l36.9 21.2"/><path class="st1" d="M443 432.3l-61.5-35.7v-57.4l-12.4-7.1-.1.1-12.2 7.1v57.2L295 432.3"/></g><g class="st3"><path class="st1" d="M295.5 375.1l-12.3-7.1v-57.2l-61.7-35.7h-.1l-61.6 35.6v57.4l-12.4 7.1"/><path class="st1" d="M147.4 403.6l37.1-21.4v-57.3l36.9-21.1.1-.1 37 21.5v57.2l36.9 21.2"/><path class="st1" d="M295.4 432.3l-61.5-35.7v-57.4l-12.4-7.1-.1.1-12.2 7.1v57.2l-61.8 35.8"/></g><g class="st3"><path class="st1" d="M590.6 290.7L529.1 255v-57.4l-12.4-7.1-.1.1-12.2 7.1v57.2l-61.8 35.8"/></g><g class="st3"><path class="st1" d="M443 290.7L381.5 255v-57.4l-12.4-7.1-.1.1-12.2 7.1v57.2L295 290.7"/></g><g class="st3"><path class="st1" d="M295.4 290.7L233.9 255v-57.4l-12.4-7.1-.1.1-12.2 7.1v57.2l-61.8 35.8"/></g><defs><path id="SVGID_7_" d="M147.6-.4h147.6v141.6H147.6z"/></defs><clipPath id="SVGID_8_"><use xlink:href="#SVGID_7_" overflow="visible"/></clipPath><g class="st4"><path class="st1" d="M443.1 233.5l-12.3-7.1v-57.2l-61.7-35.7h-.1l-61.6 35.6v57.4l-12.4 7.1"/></g><g class="st4"><path class="st1" d="M295.5 233.5l-12.3-7.1v-57.2l-61.7-35.7h-.1l-61.6 35.6v57.4l-12.4 7.1"/></g><g class="st4"><path class="st1" d="M147.9 233.5l-12.3-7.1v-57.2l-61.7-35.7h-.1l-61.6 35.6v57.4l-12.4 7.1"/></g><g class="st4"><path class="st1" d="M443.1 91.9l-12.3-7V27.7L369.1-8.1h-.1l-61.6 35.7V85L295 92"/><path class="st1" d="M295 120.4L332.1 99V41.8L369 20.6h.1l37 21.4v57.2l36.9 21.2"/><path class="st1" d="M443 149.1l-61.5-35.7V56l-12.4-7-.1.1-12.2 7v57.2L295 149.1"/></g><g class="st4"><path class="st1" d="M295.5 91.9l-12.3-7V27.7L221.5-8.1h-.1l-61.6 35.7V85l-12.4 7"/><path class="st1" d="M147.4 120.4L184.5 99V41.8l36.9-21.2h.1l37 21.4v57.2l36.9 21.2"/><path class="st1" d="M295.4 149.1l-61.5-35.7V56l-12.4-7-.1.1-12.2 7v57.2l-61.8 35.8"/></g><g class="st4"><path class="st1" d="M147.9 91.9l-12.3-7V27.7L73.9-8.1h-.1L12.2 27.6V85L-.2 92"/><path class="st1" d="M-.2 120.4L36.9 99V41.8l36.9-21.2h.1l37 21.4v57.2l36.9 21.2"/><path class="st1" d="M147.8 149.1l-61.5-35.7V56l-12.4-7-.1.1-12.2 7v57.2L-.2 149.1"/></g><g class="st4"><path class="st1" d="M443 7.5l-61.5-35.6v-57.4l-12.4-7.1-.1.1-12.2 7.1v57.2L295 7.5"/></g><g class="st4"><path class="st1" d="M295.4 7.5l-61.5-35.6v-57.4l-12.4-7.1-.1.1-12.2 7.1v57.2L147.4 7.5"/></g><g class="st4"><path class="st1" d="M147.8 7.5L86.3-28.1v-57.4l-12.4-7.1-.1.1-12.2 7.1v57.2L-.2 7.5"/></g><defs><path id="SVGID_9_" d="M147.6 141.2h147.6v141.6H147.6z"/></defs><clipPath id="SVGID_10_"><use xlink:href="#SVGID_9_" overflow="visible"/></clipPath><g class="st5"><path class="st1" d="M443.1 375.1l-12.3-7.1v-57.2l-61.7-35.7h-.1l-61.6 35.6v57.4l-12.4 7.1"/></g><g class="st5"><path class="st1" d="M295.5 375.1l-12.3-7.1v-57.2l-61.7-35.7h-.1l-61.6 35.6v57.4l-12.4 7.1"/></g><g class="st5"><path class="st1" d="M147.9 375.1l-12.3-7.1v-57.2l-61.7-35.7h-.1l-61.6 35.6v57.4l-12.4 7.1"/></g><g class="st5"><path class="st1" d="M443.1 233.5l-12.3-7.1v-57.2l-61.7-35.7h-.1l-61.6 35.6v57.4l-12.4 7.1"/><path class="st1" d="M295 262l37.1-21.4v-57.2l36.9-21.2.1-.1 37 21.5v57.2L443 262"/><path class="st1" d="M443 290.7L381.5 255v-57.4l-12.4-7.1-.1.1-12.2 7.1v57.2L295 290.7"/></g><g class="st5"><path class="st1" d="M295.5 233.5l-12.3-7.1v-57.2l-61.7-35.7h-.1l-61.6 35.6v57.4l-12.4 7.1"/><path class="st1" d="M147.4 262l37.1-21.4v-57.2l36.9-21.2.1-.1 37 21.5v57.2l36.9 21.2"/><path class="st1" d="M295.4 290.7L233.9 255v-57.4l-12.4-7.1-.1.1-12.2 7.1v57.2l-61.8 35.8"/></g><g class="st5"><path class="st1" d="M147.9 233.5l-12.3-7.1v-57.2l-61.7-35.7h-.1l-61.6 35.6v57.4l-12.4 7.1"/><path class="st1" d="M-.2 262l37.1-21.4v-57.2l36.9-21.2.1-.1 37 21.5v57.2l36.9 21.2"/><path class="st1" d="M147.8 290.7L86.3 255v-57.4l-12.4-7.1-.1.1-12.2 7.1v57.2L-.2 290.7"/></g><g class="st5"><path class="st1" d="M443 149.1l-61.5-35.7V56l-12.4-7-.1.1-12.2 7v57.2L295 149.1"/></g><g class="st5"><path class="st1" d="M295.4 149.1l-61.5-35.7V56l-12.4-7-.1.1-12.2 7v57.2l-61.8 35.8"/></g><g class="st5"><path class="st1" d="M147.8 149.1l-61.5-35.7V56l-12.4-7-.1.1-12.2 7v57.2L-.2 149.1"/></g><defs><path id="SVGID_11_" d="M147.6 282.8h147.6v141.6H147.6z"/></defs><clipPath id="SVGID_12_"><use xlink:href="#SVGID_11_" overflow="visible"/></clipPath><g class="st6"><path class="st1" d="M443.1 516.7l-12.3-7.1v-57.2l-61.7-35.8h-.1l-61.6 35.7v57.4l-12.4 7.1"/></g><g class="st6"><path class="st1" d="M295.5 516.7l-12.3-7.1v-57.2l-61.7-35.8h-.1l-61.6 35.7v57.4l-12.4 7.1"/></g><g class="st6"><path class="st1" d="M147.9 516.7l-12.3-7.1v-57.2l-61.7-35.8h-.1l-61.6 35.7v57.4l-12.4 7.1"/></g><g class="st6"><path class="st1" d="M443.1 375.1l-12.3-7.1v-57.2l-61.7-35.7h-.1l-61.6 35.6v57.4l-12.4 7.1"/><path class="st1" d="M295 403.6l37.1-21.4v-57.3l36.9-21.1.1-.1 37 21.5v57.2l36.9 21.2"/><path class="st1" d="M443 432.3l-61.5-35.7v-57.4l-12.4-7.1-.1.1-12.2 7.1v57.2L295 432.3"/></g><g class="st6"><path class="st1" d="M295.5 375.1l-12.3-7.1v-57.2l-61.7-35.7h-.1l-61.6 35.6v57.4l-12.4 7.1"/><path class="st1" d="M147.4 403.6l37.1-21.4v-57.3l36.9-21.1.1-.1 37 21.5v57.2l36.9 21.2"/><path class="st1" d="M295.4 432.3l-61.5-35.7v-57.4l-12.4-7.1-.1.1-12.2 7.1v57.2l-61.8 35.8"/></g><g class="st6"><path class="st1" d="M147.9 375.1l-12.3-7.1v-57.2l-61.7-35.7h-.1l-61.6 35.6v57.4l-12.4 7.1"/><path class="st1" d="M-.2 403.6l37.1-21.4v-57.3l36.9-21.1.1-.1 37 21.5v57.2l36.9 21.2"/><path class="st1" d="M147.8 432.3l-61.5-35.7v-57.4l-12.4-7.1-.1.1-12.2 7.1v57.2L-.2 432.3"/></g><g class="st6"><path class="st1" d="M443 290.7L381.5 255v-57.4l-12.4-7.1-.1.1-12.2 7.1v57.2L295 290.7"/></g><g class="st6"><path class="st1" d="M295.4 290.7L233.9 255v-57.4l-12.4-7.1-.1.1-12.2 7.1v57.2l-61.8 35.8"/></g><g class="st6"><path class="st1" d="M147.8 290.7L86.3 255v-57.4l-12.4-7.1-.1.1-12.2 7.1v57.2L-.2 290.7"/></g><defs><path id="SVGID_13_" d="M0-.4h147.6v141.6H0z"/></defs><clipPath id="SVGID_14_"><use xlink:href="#SVGID_13_" overflow="visible"/></clipPath><g class="st7"><path class="st1" d="M295.5 233.5l-12.3-7.1v-57.2l-61.7-35.7h-.1l-61.6 35.6v57.4l-12.4 7.1"/></g><g class="st7"><path class="st1" d="M147.9 233.5l-12.3-7.1v-57.2l-61.7-35.7h-.1l-61.6 35.6v57.4l-12.4 7.1"/></g><g class="st7"><path class="st1" d="M.3 233.5l-12.3-7.1v-57.2l-61.7-35.7h-.1l-61.6 35.6v57.4l-12.4 7.1"/></g><g class="st7"><path class="st1" d="M295.5 91.9l-12.3-7V27.7L221.5-8.1h-.1l-61.6 35.7V85l-12.4 7"/><path class="st1" d="M147.4 120.4L184.5 99V41.8l36.9-21.2h.1l37 21.4v57.2l36.9 21.2"/><path class="st1" d="M295.4 149.1l-61.5-35.7V56l-12.4-7-.1.1-12.2 7v57.2l-61.8 35.8"/></g><g class="st7"><path class="st1" d="M147.9 91.9l-12.3-7V27.7L73.9-8.1h-.1L12.2 27.6V85L-.2 92"/><path class="st1" d="M-.2 120.4L36.9 99V41.8l36.9-21.2h.1l37 21.4v57.2l36.9 21.2"/><path class="st1" d="M147.8 149.1l-61.5-35.7V56l-12.4-7-.1.1-12.2 7v57.2L-.2 149.1"/></g><g class="st7"><path class="st1" d="M.3 91.9l-12.3-7V27.7L-73.7-8.1h-.1l-61.6 35.7V85l-12.4 7"/><path class="st1" d="M-147.8 120.4l37.1-21.4V41.8l36.9-21.2h.1l37 21.4v57.2L.2 120.4"/><path class="st1" d="M.2 149.1l-61.5-35.7V56l-12.4-7-.1.1-12.2 7v57.2l-61.8 35.8"/></g><g class="st7"><path class="st1" d="M295.4 7.5l-61.5-35.6v-57.4l-12.4-7.1-.1.1-12.2 7.1v57.2L147.4 7.5"/></g><g class="st7"><path class="st1" d="M147.8 7.5L86.3-28.1v-57.4l-12.4-7.1-.1.1-12.2 7.1v57.2L-.2 7.5"/></g><g class="st7"><path class="st1" d="M.2 7.5l-61.5-35.6v-57.4l-12.4-7.1-.1.1-12.2 7.1v57.2l-61.8 35.7"/></g><defs><path id="SVGID_15_" d="M0 141.2h147.6v141.6H0z"/></defs><clipPath id="SVGID_16_"><use xlink:href="#SVGID_15_" overflow="visible"/></clipPath><g class="st8"><path class="st1" d="M295.5 375.1l-12.3-7.1v-57.2l-61.7-35.7h-.1l-61.6 35.6v57.4l-12.4 7.1"/></g><g class="st8"><path class="st1" d="M147.9 375.1l-12.3-7.1v-57.2l-61.7-35.7h-.1l-61.6 35.6v57.4l-12.4 7.1"/></g><g class="st8"><path class="st1" d="M.3 375.1L-12 368v-57.2l-61.7-35.7h-.1l-61.6 35.6v57.4l-12.4 7.1"/></g><g class="st8"><path class="st1" d="M295.5 233.5l-12.3-7.1v-57.2l-61.7-35.7h-.1l-61.6 35.6v57.4l-12.4 7.1"/><path class="st1" d="M147.4 262l37.1-21.4v-57.2l36.9-21.2.1-.1 37 21.5v57.2l36.9 21.2"/><path class="st1" d="M295.4 290.7L233.9 255v-57.4l-12.4-7.1-.1.1-12.2 7.1v57.2l-61.8 35.8"/></g><g class="st8"><path class="st1" d="M147.9 233.5l-12.3-7.1v-57.2l-61.7-35.7h-.1l-61.6 35.6v57.4l-12.4 7.1"/><path class="st1" d="M-.2 262l37.1-21.4v-57.2l36.9-21.2.1-.1 37 21.5v57.2l36.9 21.2"/><path class="st1" d="M147.8 290.7L86.3 255v-57.4l-12.4-7.1-.1.1-12.2 7.1v57.2L-.2 290.7"/></g><g class="st8"><path class="st1" d="M.3 233.5l-12.3-7.1v-57.2l-61.7-35.7h-.1l-61.6 35.6v57.4l-12.4 7.1"/><path class="st1" d="M-147.8 262l37.1-21.4v-57.2l36.9-21.2.1-.1 37 21.5v57.2L.2 262"/><path class="st1" d="M.2 290.7L-61.3 255v-57.4l-12.4-7.1-.1.1-12.2 7.1v57.2l-61.8 35.8"/></g><g class="st8"><path class="st1" d="M295.4 149.1l-61.5-35.7V56l-12.4-7-.1.1-12.2 7v57.2l-61.8 35.8"/></g><g class="st8"><path class="st1" d="M147.8 149.1l-61.5-35.7V56l-12.4-7-.1.1-12.2 7v57.2L-.2 149.1"/></g><g class="st8"><path class="st1" d="M.2 149.1l-61.5-35.7V56l-12.4-7-.1.1-12.2 7v57.2l-61.8 35.8"/></g><defs><path id="SVGID_17_" d="M0 282.8h147.6v141.6H0z"/></defs><clipPath id="SVGID_18_"><use xlink:href="#SVGID_17_" overflow="visible"/></clipPath><g class="st9"><path class="st1" d="M295.5 516.7l-12.3-7.1v-57.2l-61.7-35.8h-.1l-61.6 35.7v57.4l-12.4 7.1"/></g><g class="st9"><path class="st1" d="M147.9 516.7l-12.3-7.1v-57.2l-61.7-35.8h-.1l-61.6 35.7v57.4l-12.4 7.1"/></g><g class="st9"><path class="st1" d="M.3 516.7l-12.3-7.1v-57.2l-61.7-35.8h-.1l-61.6 35.7v57.4l-12.4 7.1"/></g><g class="st9"><path class="st1" d="M295.5 375.1l-12.3-7.1v-57.2l-61.7-35.7h-.1l-61.6 35.6v57.4l-12.4 7.1"/><path class="st1" d="M147.4 403.6l37.1-21.4v-57.3l36.9-21.1.1-.1 37 21.5v57.2l36.9 21.2"/><path class="st1" d="M295.4 432.3l-61.5-35.7v-57.4l-12.4-7.1-.1.1-12.2 7.1v57.2l-61.8 35.8"/></g><g class="st9"><path class="st1" d="M147.9 375.1l-12.3-7.1v-57.2l-61.7-35.7h-.1l-61.6 35.6v57.4l-12.4 7.1"/><path class="st1" d="M-.2 403.6l37.1-21.4v-57.3l36.9-21.1.1-.1 37 21.5v57.2l36.9 21.2"/><path class="st1" d="M147.8 432.3l-61.5-35.7v-57.4l-12.4-7.1-.1.1-12.2 7.1v57.2L-.2 432.3"/></g><g class="st9"><path class="st1" d="M.3 375.1L-12 368v-57.2l-61.7-35.7h-.1l-61.6 35.6v57.4l-12.4 7.1"/><path class="st1" d="M-147.8 403.6l37.1-21.4v-57.3l36.9-21.1.1-.1 37 21.5v57.2L.2 403.6"/><path class="st1" d="M.2 432.3l-61.5-35.7v-57.4l-12.4-7.1-.1.1-12.2 7.1v57.2l-61.8 35.8"/></g><g class="st9"><path class="st1" d="M295.4 290.7L233.9 255v-57.4l-12.4-7.1-.1.1-12.2 7.1v57.2l-61.8 35.8"/></g><g class="st9"><path class="st1" d="M147.8 290.7L86.3 255v-57.4l-12.4-7.1-.1.1-12.2 7.1v57.2L-.2 290.7"/></g><g class="st9"><path class="st1" d="M.2 290.7L-61.3 255v-57.4l-12.4-7.1-.1.1-12.2 7.1v57.2l-61.8 35.8"/></g></svg>