<?xml version="1.0" encoding="utf-8"?>
<!-- Generator: Adobe Illustrator 23.0.3, SVG Export Plug-In . SVG Version: 6.00 Build 0)  -->
<svg version="1.1" id="Capa_1" xmlns="http://www.w3.org/2000/svg" xmlns:xlink="http://www.w3.org/1999/xlink" x="0px" y="0px"
	 viewBox="0 0 674.7 678.1" style="enable-background:new 0 0 674.7 678.1;" xml:space="preserve">
<style type="text/css">
	.st0{fill:#0691e0;}
</style>
<path class="st0" d="M633.1,238.2c-14-11.9-30.7-19.1-48.4-22.4c-9.2-71.6-69.8-127.3-143.8-127.3H232.7
	c-74,0-134.7,55.7-143.8,127.3c-17.7,3.3-34.5,10.5-48.4,22.4C17.1,258,3.8,286.9,3.8,317.4c0,26.4,10,51.5,28.2,70.8
	c8.7,9.2,13.4,23.2,13.4,39.4v97.9c0,11.5,9.3,20.8,20.8,20.8h62.4V588h41.6v-41.6h333V588h41.6v-41.6h62.4
	c11.5,0,20.8-9.3,20.8-20.8v-97.9c0-16.2,4.8-30.2,13.4-39.4c18.2-19.3,28.2-44.5,28.2-70.8C669.8,286.9,656.4,258,633.1,238.2z
	 M232.7,130.1h208.1c51.2,0,93.7,37.3,102.2,86.1c-46.7,10.4-81.4,54.7-81.4,105.7v58H211.9v-58c0-51-34.7-95.3-81.4-105.7
	C139.1,167.4,181.5,130.1,232.7,130.1L232.7,130.1z M611.3,359.7c-16,16.9-24.8,41.1-24.8,67.9v77.1H87v-77.1
	c0-26.9-8.8-51-24.8-67.9c-10.9-11.5-16.9-26.6-16.9-42.3c0-18.3,8-35.7,22-47.6c14.2-12.1,32.4-17,51.1-14
	c29.5,4.8,51.8,33.2,51.8,66v58v41.6h333v-41.6v-58c0-32.8,22.3-61.2,51.8-66c18.8-3.1,36.8,1.9,51.1,14c14,11.9,22,29.2,22,47.6
	C628.1,333.2,622.2,348.2,611.3,359.7L611.3,359.7z"/>
<path id="path-1_71_" class="st0" d="M599.6,313c8.1,8.1,8.1,21.3,0,29.4c-8.1,8.1-21.3,8.1-29.4,0c-8.1-8.1-8.1-21.3,0-29.4
	C578.3,304.9,591.4,304.9,599.6,313"/>
<path id="path-1_70_" class="st0" d="M125.4,313c8.1,8.1,8.1,21.3,0,29.4s-21.3,8.1-29.4,0s-8.1-21.3,0-29.4
	C104.1,304.9,117.3,304.9,125.4,313"/>
</svg>
