<?xml version="1.0" encoding="utf-8"?>
<!-- Generator: Adobe Illustrator 23.0.3, SVG Export Plug-In . SVG Version: 6.00 Build 0)  -->
<svg version="1.1" id="Capa_1" xmlns="http://www.w3.org/2000/svg" xmlns:xlink="http://www.w3.org/1999/xlink" x="0px" y="0px"
	 viewBox="0 0 512 512" style="enable-background:new 0 0 512 512;" xml:space="preserve">
<style type="text/css">
	.st0{fill:#0C1937;}
</style>
<g>
	<g>
		<path class="st0" d="M184.5,121.8h-53.7v51.9h53.7c14.3,0,25.9-11.6,25.9-25.9S198.8,121.8,184.5,121.8z M184.5,158.7h-38.8v-22
			h38.8c6.1,0,11,4.9,11,11C195.5,153.8,190.5,158.7,184.5,158.7z"/>
	</g>
</g>
<g>
	<g>
		<path class="st0" d="M183,158.7h-52.2v48.4h15v-33.4H183c6.9,0,12.5,5.6,12.5,12.5v21h15l0,0v-21C210.4,171,198.1,158.7,183,158.7
			z"/>
	</g>
</g>
<g>
	<g>
		<rect x="229.9" y="157.7" class="st0" width="63.9" height="15"/>
	</g>
</g>
<g>
	<g>
		<polygon class="st0" points="293.8,136.7 293.8,121.8 222.4,121.8 222.4,207.6 293.8,207.6 293.8,192.6 237.4,192.6 237.4,136.7 
					"/>
	</g>
</g>
<g>
	<g>
		<polygon class="st0" points="370.1,122.3 370.1,181.5 321.7,121.8 304.2,121.8 304.2,208.1 319.2,208.1 319.2,142.5 372,207.6 
			385.1,207.6 385.1,122.3 		"/>
	</g>
</g>
<g>
	<g>
		<rect x="395.6" y="122.8" class="st0" width="82.8" height="15"/>
	</g>
</g>
<g>
	<g>
		<rect x="429.5" y="130.2" class="st0" width="15" height="76.9"/>
	</g>
</g>
<g>
	<g>
		<g>
			<path class="st0" d="M512,70.9V26H80.8V0H35.9v26H0v44.9h35.9V512H512V324l-101.3-71.1l-60.9,42.8l-60.9-42.8L228,295.6
				l-60.9-42.8l-86.3,60.6V70.9h46.9v23H94.8v145.7H512V93.8h-32.9v-23H512z M479.1,40.9h18v15h-18V40.9z M35.9,55.9H15v-15h21V55.9
				z M65.9,497h-15V15h15V497z M187.6,497h-54.9V384.3h54.9V497z M316.4,497h-54.9V378.3h54.9V497z M445.1,497h-54.9V384.3h54.9V497
				z M410.7,271.1l86.3,60.6V497h-36.9V369.3h-69.9v-27l19.2,13.5l8.6-12.3l-55.1-38.7L410.7,271.1z M288.9,271.1l86.3,60.6V497
				h-43.9V363.3h-84.8V497h-43.9V331.8L288.9,271.1z M167.2,271.1l47.9,33.6l-55.2,38.7l8.6,12.3l19.2-13.5v27h-69.9V497H80.8V331.8
				L167.2,271.1z M142.7,40.9h321.4v52.9H142.7V40.9z M80.8,55.9v-15h46.9v15H80.8z M497,108.8v115.8H109.8V108.8H497z"/>
		</g>
	</g>
</g>
</svg>
