<?xml version="1.0" encoding="utf-8"?>
<!-- Generator: Adobe Illustrator 23.0.3, SVG Export Plug-In . SVG Version: 6.00 Build 0)  -->
<svg version="1.1" id="Capa_1" xmlns="http://www.w3.org/2000/svg" xmlns:xlink="http://www.w3.org/1999/xlink" x="0px" y="0px"
	 viewBox="0 0 674.7 678.1" style="enable-background:new 0 0 674.7 678.1;" xml:space="preserve">
<style type="text/css">
	.st0{fill:#0691e0;}
</style>
<path class="st0" d="M50.1,476.8c46.2-46.2,121.4-46.2,167.6,0c0,0,0,0,0,0c66.6,66.6,174.4,66.6,241.1,0c0,0,0,0,0,0
	c46.2-46.2,121.4-46.2,167.6,0c10.1,10.1,26.6,10.1,36.7,0c10.1-10.1,10.1-26.6,0-36.7c-53.1-53.1-132.9-63.8-196.7-32V83.3
	c0-13.8,11.3-25.1,25.1-25.1c13.8,0,25.1,11.3,25.1,25.1c0,14.3,11.6,26,26,26c14.3,0,26-11.6,26-26c0-42.5-34.6-77.1-77.1-77.1
	s-77.1,34.6-77.1,77.1v76.2H262V83.3c0-13.8,11.3-25.1,25.1-25.1c13.9,0,25.1,11.3,25.1,25.1c0,14.3,11.6,26,26,26
	c14.3,0,26-11.6,26-26c0-42.5-34.6-77.1-77.1-77.1c-42.5,0-77.1,34.6-77.1,77.1v324.8c-63.8-31.8-143.6-21.2-196.7,32
	c-10.1,10.1-10.1,26.6,0,36.7C23.5,486.9,39.9,486.9,50.1,476.8z M262,447v-82.3h152.4V447C371.1,483.5,306.6,484.6,262,447z
	 M414.4,211.5v101.3H262V211.5H414.4z M663.1,584.6c10.1,10.1,10.1,26.6,0,36.7c-10.1,10.1-26.6,10.1-36.7,0
	c-46.2-46.2-121.4-46.2-167.6,0c-66.6,66.6-174.5,66.6-241.1,0c-46.2-46.2-121.4-46.2-167.6,0c-10.1,10.1-26.6,10.1-36.7,0
	c-10.1-10.1-10.1-26.6,0-36.7c66.5-66.5,174.6-66.5,241.1,0c46.3,46.3,121.3,46.3,167.6,0C488.5,518.1,596.6,518.1,663.1,584.6z"/>
</svg>
