<?xml version="1.0" encoding="utf-8"?>
<!-- Generator: Adobe Illustrator 23.0.3, SVG Export Plug-In . SVG Version: 6.00 Build 0)  -->
<svg version="1.1" id="Capa_1" xmlns="http://www.w3.org/2000/svg" xmlns:xlink="http://www.w3.org/1999/xlink" x="0px" y="0px"
	 viewBox="0 0 674.7 678.1" style="enable-background:new 0 0 674.7 678.1;" xml:space="preserve">
<style type="text/css">
	.st0{fill:#40B5F8;}
</style>
<g>
	<path class="st0" d="M596.7,678.1c-3.9,0-7.5-1.5-10.2-4.2l-63.5-63.5c-2-2-3.4-4.6-4-7.4c-0.6-2.8-0.3-5.7,0.8-8.4
		c1.1-2.7,2.9-4.9,5.3-6.5c2.4-1.6,5.2-2.4,8-2.4h39.8l-0.8-316.8l-39.9,0c-2.9,0-5.7-0.9-8.1-2.4c-2.4-1.6-4.2-3.8-5.3-6.5
		c-1.1-2.6-1.4-5.5-0.8-8.4c0.6-2.8,1.9-5.4,4-7.4l63.6-63.5c2.7-2.7,6.4-4.2,10.2-4.2c3.9,0,7.5,1.5,10.2,4.2l63.5,63.5
		c2,2,3.4,4.6,4,7.4c0.6,2.8,0.3,5.7-0.8,8.4c-1.1,2.7-2.9,4.9-5.3,6.5c-2.4,1.6-5.2,2.4-8,2.4h-39.8l0,71l0.9,245.8l39.8,0
		c2.9,0,5.7,0.9,8.1,2.4c2.4,1.6,4.2,3.9,5.3,6.5c1.1,2.6,1.4,5.5,0.8,8.4c-0.6,2.8-1.9,5.4-4,7.4l-63.6,63.5
		C604.2,676.6,600.5,678.1,596.7,678.1z"/>
	<path class="st0" d="M78,157c-0.9,0-1.9-0.1-2.8-0.3c-2.8-0.6-5.4-1.9-7.4-4L4.2,89.2C1.5,86.4,0,82.8,0,78.9
		c0-3.9,1.5-7.5,4.2-10.2L67.8,5.2c2-2,4.6-3.4,7.4-4C76.1,1,77.1,0.9,78,0.9c1.9,0,3.8,0.4,5.5,1.1c2.7,1.1,4.9,3,6.5,5.3
		c1.6,2.4,2.4,5.2,2.4,8v39.8l316.8-0.8l0-39.9c0-2.9,0.9-5.7,2.5-8.1c1.6-2.4,3.8-4.2,6.5-5.3c1.7-0.7,3.6-1.1,5.5-1.1
		c0.9,0,1.9,0.1,2.8,0.3c2.8,0.6,5.4,1.9,7.4,4l63.5,63.6c2.7,2.7,4.2,6.4,4.2,10.2c0,3.9-1.5,7.5-4.2,10.2l-63.5,63.5
		c-2,2-4.6,3.4-7.4,4c-0.9,0.2-1.9,0.3-2.8,0.3c-1.9,0-3.8-0.4-5.5-1.1c-2.7-1.1-4.9-3-6.5-5.3c-1.6-2.4-2.4-5.2-2.4-8v-39.8l-71,0
		l-245.8,0.9l0,39.8c0,2.9-0.9,5.7-2.4,8.1c-1.6,2.4-3.9,4.2-6.5,5.3C81.8,156.6,79.9,157,78,157z"/>
	<path class="st0" d="M51.8,664.6c-12,0-23.3-4.7-31.8-13.2S6.8,631.6,6.8,619.5V221.3c0-12,4.7-23.3,13.2-31.8
		c8.5-8.5,19.8-13.2,31.8-13.2h398.3c12,0,23.3,4.7,31.8,13.2c8.5,8.5,13.2,19.8,13.2,31.8v398.3c0,12-4.7,23.3-13.2,31.8
		c-8.5,8.5-19.8,13.2-31.8,13.2H51.8z M447.6,617.1l0-393.3H54.3v393.3H447.6z"/>
</g>
</svg>
