<?xml version="1.0" encoding="utf-8"?>
<!-- Generator: Adobe Illustrator 23.0.3, SVG Export Plug-In . SVG Version: 6.00 Build 0)  -->
<svg version="1.1" id="Режим_изоляции"
	 xmlns="http://www.w3.org/2000/svg" xmlns:xlink="http://www.w3.org/1999/xlink" x="0px" y="0px" viewBox="0 0 226 259.9"
	 style="enable-background:new 0 0 226 259.9;" xml:space="preserve">
<style type="text/css">
	.st0{fill:none;stroke:#F2F2F2;stroke-width:3.7752;stroke-miterlimit:10;}
</style>
<g>
	<g>
		<polygon class="st0" points="197.3,100 205.9,114.5 222.8,114.7 214.5,129.4 222.8,144.1 205.9,144.2 197.3,158.8 188.8,144.2 
			171.9,144.1 180.2,129.4 171.9,114.7 188.8,114.5 		"/>
		<polygon class="st0" points="140.7,132.1 149.3,146.6 166.2,146.8 157.9,161.5 166.2,176.2 149.3,176.3 140.7,190.9 132.1,176.3 
			115.2,176.2 123.6,161.5 115.2,146.8 132.1,146.6 		"/>
		<polygon class="st0" points="84.1,100 92.7,114.5 109.5,114.7 101.2,129.4 109.5,144.1 92.7,144.2 84.1,158.8 75.5,144.2 
			58.6,144.1 66.9,129.4 58.6,114.7 75.5,114.5 		"/>
		<polygon class="st0" points="197.3,35.8 205.9,50.4 222.8,50.5 214.5,65.2 222.8,79.9 205.9,80.1 197.3,94.6 188.8,80.1 
			171.9,79.9 180.2,65.2 171.9,50.5 188.8,50.4 		"/>
		<polygon class="st0" points="140.7,67.9 149.3,82.4 166.2,82.6 157.9,97.3 166.2,112 149.3,112.2 140.7,126.7 132.1,112.2 
			115.2,112 123.6,97.3 115.2,82.6 132.1,82.4 		"/>
		<polygon class="st0" points="84.1,35.8 92.7,50.4 109.5,50.5 101.2,65.2 109.5,79.9 92.7,80.1 84.1,94.6 75.5,80.1 58.6,79.9 
			66.9,65.2 58.6,50.5 75.5,50.4 		"/>
		<polygon class="st0" points="140.7,3.7 149.3,18.3 166.2,18.4 157.9,33.1 166.2,47.8 149.3,48 140.7,62.5 132.1,48 115.2,47.8 
			123.6,33.1 115.2,18.4 132.1,18.3 		"/>
	</g>
</g>
<polygon class="st0" points="84.1,165.2 92.7,179.8 109.5,179.9 101.2,194.6 109.5,209.3 92.7,209.5 84.1,224 75.5,209.5 
	58.6,209.3 66.9,194.6 58.6,179.9 75.5,179.8 "/>
<polygon class="st0" points="28.7,197.3 37.3,211.9 54.1,212.1 45.8,226.8 54.1,241.5 37.3,241.6 28.7,256.2 20.1,241.6 3.2,241.5 
	11.5,226.8 3.2,212.1 20.1,211.9 "/>
<polygon class="st0" points="28.7,67.9 37.3,82.4 54.1,82.6 45.8,97.3 54.1,112 37.3,112.2 28.7,126.7 20.1,112.2 3.2,112 
	11.5,97.3 3.2,82.6 20.1,82.4 "/>
</svg>
