<?xml version="1.0" encoding="utf-8"?>
<svg version="1.1" id="Layer_1" xmlns="http://www.w3.org/2000/svg" xmlns:xlink="http://www.w3.org/1999/xlink" x="0px" y="0px"
	 viewBox="0 0 296.7 334" style="enable-background:new 0 0 296.7 334;" xml:space="preserve">
<style type="text/css">
	.st0{fill:#0691E0;}
	.st1{fill:#12282D;}
	.st2{display:block;fill:#12282D;}
</style>
	<path class="st0" d="M192.1,11c-2.1-1-4.3-1.9-6.4-2.8C172.9,2.8,159.3,0,145.3,0s-27.6,2.7-40.4,8.2c-6.2,2.6-12.1,5.8-17.7,9.6
		c-5.5,3.7-10.7,8-15.4,12.7s-9,9.9-12.7,15.4c-3.8,5.6-7,11.5-9.6,17.7C44.1,76.4,41.3,90,41.3,104s2.7,27.6,8.2,40.4
		c2.6,6.2,5.8,12.1,9.6,17.7c3.7,5.5,8,10.7,12.7,15.4s9.9,9,15.4,12.7c5.6,3.8,11.5,7,17.7,9.6c12.8,5.4,26.4,8.2,40.4,8.2
		s27.6-2.7,40.4-8.2c6.2-2.6,12.1-5.8,17.7-9.6c5.5-3.7,10.7-8,15.4-12.7c4.2-4.2,8.1-8.8,11.5-13.7h16.9l-28.5-22.1h-26.6V66
		l-20.8,16.1v81.8h27.4c-14.2,12.7-32.9,20.4-53.4,20.4c-44.2,0-80.2-36-80.2-80.2s36-80.2,80.2-80.2c8.8,0,17.1,1.4,25,4
		l-43.4,33.6v102.3h23.5v-92l41.7-32.3L192.1,11L192.1,11z"/>
	<polygon class="st1" points="257.5,116.7 257.5,145.2 192.1,94.5 192.1,94.5 192.1,66 192.1,66 	"/>
	
	<polygon class="st1" points="257.5,61.7 257.5,90.2 192.1,39.5 192.1,39.5 192.1,11 192.1,11 	"/>
	<path class="st1" d="M25.8,245.3v4.9h-9.5v26.3h-5.7v-26.3H1v-4.9H25.8z M52.1,275.8c-1.1,0.3-2.4,0.5-4.1,0.8s-3.5,0.4-5.5,0.4
		c-1.9,0-3.5-0.3-4.7-0.8c-1.3-0.5-2.3-1.3-3.1-2.3s-1.3-2.1-1.6-3.4c-0.3-1.3-0.5-2.8-0.5-4.4v-13.2H38v12.3c0,2.5,0.4,4.3,1.1,5.4
		c0.7,1.1,2,1.6,3.8,1.6c0.7,0,1.4,0,2.1-0.1s1.3-0.1,1.6-0.2v-19H52L52.1,275.8L52.1,275.8z M76.3,257.9c-0.5-0.1-1.1-0.3-1.9-0.5
		s-1.7-0.2-2.8-0.2c-0.6,0-1.2,0.1-1.9,0.2c-0.7,0.1-1.1,0.2-1.4,0.3v18.9h-5.4v-22.4c1.1-0.4,2.4-0.8,3.9-1.1
		c1.6-0.3,3.3-0.5,5.2-0.5c0.4,0,0.8,0,1.3,0.1c0.5,0,1,0.1,1.4,0.2c0.5,0.1,0.9,0.2,1.4,0.3s0.8,0.2,1.1,0.3L76.3,257.9z
		 M91.4,262.2c0.7-0.7,1.4-1.5,2.2-2.3c0.8-0.8,1.5-1.7,2.3-2.5c0.7-0.8,1.5-1.6,2.1-2.4s1.3-1.4,1.7-2h6.4
		c-1.5,1.7-3.1,3.4-4.7,5.2s-3.3,3.6-5,5.3c0.9,0.8,1.8,1.7,2.8,2.7c1,1.1,1.9,2.2,2.9,3.4c0.9,1.2,1.8,2.4,2.6,3.6
		c0.8,1.2,1.5,2.3,2,3.3h-6.3c-0.5-0.9-1.2-1.9-1.9-2.9c-0.7-1-1.5-2-2.3-3s-1.6-1.9-2.5-2.7c-0.8-0.9-1.7-1.6-2.5-2.2v10.8h-5.4
		v-34l5.4-0.9v20.6L91.4,262.2L91.4,262.2z M112.8,264.9c0-2.1,0.3-3.9,0.9-5.4c0.6-1.6,1.4-2.9,2.5-3.9c1-1,2.2-1.8,3.5-2.3
		s2.7-0.8,4.1-0.8c3.2,0,5.8,1,7.6,3c1.8,2,2.7,5,2.7,9c0,0.3,0,0.6,0,1s0,0.7-0.1,1h-15.5c0.1,1.9,0.8,3.4,2,4.4s2.9,1.6,5.2,1.6
		c1.3,0,2.5-0.1,3.6-0.4c1.1-0.2,2-0.5,2.6-0.8l0.7,4.5c-0.3,0.2-0.7,0.3-1.2,0.5s-1.1,0.3-1.8,0.5c-0.7,0.1-1.4,0.2-2.2,0.3
		c-0.8,0.1-1.6,0.1-2.4,0.1c-2.1,0-3.9-0.3-5.4-0.9c-1.5-0.6-2.8-1.5-3.8-2.6s-1.7-2.4-2.2-3.9C113,268.3,112.8,266.7,112.8,264.9z
		 M128.6,262.5c0-0.7-0.1-1.5-0.3-2.1c-0.2-0.7-0.5-1.3-0.9-1.8s-0.9-0.9-1.5-1.2s-1.3-0.4-2.1-0.4c-0.8,0-1.6,0.2-2.2,0.5
		s-1.2,0.7-1.6,1.2s-0.8,1.1-1,1.8s-0.4,1.3-0.5,2H128.6z M163.4,253c-2.4,8.9-5.2,17-8.4,24.3c-0.6,1.4-1.2,2.5-1.8,3.5
		c-0.6,1-1.3,1.8-2.1,2.4c-0.8,0.6-1.7,1.1-2.6,1.4c-1,0.3-2.1,0.4-3.3,0.4c-0.8,0-1.7-0.1-2.5-0.3s-1.4-0.4-1.9-0.6l1-4.4
		c1.1,0.4,2.2,0.6,3.2,0.6c1.4,0,2.5-0.3,3.3-1s1.5-1.7,2.1-3.1c-1.7-3.3-3.4-6.9-5-10.8c-1.6-3.9-3-8-4.2-12.4h5.8
		c0.3,1.3,0.7,2.6,1.1,4.1c0.4,1.5,0.9,3,1.4,4.5s1.1,3,1.6,4.5c0.6,1.5,1.1,2.9,1.7,4.2c1-2.7,1.9-5.5,2.7-8.5
		c0.8-3,1.6-5.9,2.3-8.8L163.4,253L163.4,253z M181.5,272.3c2,0,3.5-0.3,4.5-1c0.9-0.7,1.4-1.7,1.4-2.9c0-0.7-0.2-1.4-0.5-1.9
		s-0.8-1-1.4-1.5c-0.6-0.4-1.3-0.8-2.1-1.2c-0.8-0.4-1.8-0.7-2.9-1.1c-1.1-0.4-2.1-0.8-3.1-1.3s-1.9-1-2.7-1.7
		c-0.8-0.7-1.4-1.5-1.8-2.5c-0.5-1-0.7-2.1-0.7-3.5c0-2.8,1-5,2.9-6.6c2-1.6,4.6-2.4,8-2.4c2,0,3.7,0.2,5.2,0.7
		c1.5,0.4,2.7,0.9,3.6,1.4l-1.8,4.6c-1-0.6-2.1-1-3.4-1.3c-1.2-0.3-2.5-0.5-3.8-0.5c-1.5,0-2.7,0.3-3.6,0.9
		c-0.9,0.6-1.3,1.5-1.3,2.7c0,0.7,0.1,1.3,0.4,1.8s0.7,0.9,1.2,1.3c0.5,0.4,1.1,0.8,1.8,1.1c0.7,0.3,1.5,0.6,2.3,0.9
		c1.5,0.5,2.8,1.1,3.9,1.6c1.2,0.6,2.1,1.2,2.9,2s1.4,1.7,1.8,2.7s0.6,2.3,0.6,3.8c0,2.8-1,5-3,6.6c-2,1.5-4.9,2.3-8.8,2.3
		c-1.3,0-2.5-0.1-3.5-0.2c-1.1-0.2-2-0.4-2.8-0.6c-0.8-0.2-1.5-0.5-2.1-0.7c-0.6-0.3-1.1-0.5-1.4-0.7l1.7-4.6
		c0.8,0.5,1.9,0.9,3.3,1.4C177.9,272.1,179.5,272.3,181.5,272.3z M202.1,246.8l5.4-0.9v7.1h8.4v4.5h-8.4v9.6c0,1.9,0.3,3.2,0.9,4.1
		c0.6,0.8,1.6,1.2,3.1,1.2c1,0,1.9-0.1,2.6-0.3c0.8-0.2,1.4-0.4,1.8-0.6l0.9,4.3c-0.6,0.3-1.5,0.5-2.5,0.8s-2.2,0.4-3.6,0.4
		c-1.7,0-3.1-0.2-4.2-0.7s-2-1.1-2.7-2s-1.1-1.9-1.4-3.1c-0.3-1.2-0.4-2.6-0.4-4.2L202.1,246.8L202.1,246.8z M233.4,252.4
		c1.8,0,3.3,0.2,4.5,0.7s2.2,1.1,2.9,1.9c0.7,0.8,1.3,1.8,1.6,2.9c0.3,1.2,0.5,2.4,0.5,3.8V276c-0.8,0.2-2.1,0.4-3.8,0.7
		s-3.6,0.4-5.7,0.4c-1.4,0-2.7-0.1-3.9-0.4c-1.2-0.3-2.2-0.7-3-1.3s-1.5-1.4-1.9-2.3c-0.5-1-0.7-2.1-0.7-3.6c0-1.4,0.3-2.5,0.8-3.4
		s1.2-1.7,2.1-2.3s1.9-1,3.1-1.3s2.4-0.4,3.7-0.4c0.6,0,1.2,0,1.9,0.1s1.4,0.2,2.1,0.4v-0.9c0-0.6-0.1-1.2-0.2-1.8
		c-0.2-0.6-0.4-1.1-0.8-1.5s-0.9-0.8-1.5-1s-1.4-0.4-2.3-0.4c-1.3,0-2.4,0.1-3.5,0.3s-1.9,0.4-2.6,0.6l-0.7-4.4
		c0.7-0.2,1.7-0.5,3-0.7C230.5,252.5,231.9,252.4,233.4,252.4z M233.8,272.7c1.7,0,3-0.1,3.8-0.3v-6c-0.3-0.1-0.7-0.2-1.3-0.3
		s-1.2-0.1-1.9-0.1c-0.6,0-1.2,0-1.8,0.1s-1.2,0.3-1.7,0.5s-0.9,0.6-1.2,1s-0.5,1-0.5,1.6c0,1.3,0.4,2.2,1.2,2.7
		C231.3,272.5,232.4,272.7,233.8,272.7z M253.7,246.8l5.4-0.9v7.1h8.4v4.5h-8.4v9.6c0,1.9,0.3,3.2,0.9,4.1c0.6,0.8,1.6,1.2,3.1,1.2
		c1,0,1.9-0.1,2.6-0.3c0.8-0.2,1.4-0.4,1.8-0.6l0.9,4.3c-0.6,0.3-1.5,0.5-2.5,0.8s-2.2,0.4-3.6,0.4c-1.7,0-3.1-0.2-4.2-0.7
		s-2-1.1-2.7-2s-1.1-1.9-1.4-3.1c-0.3-1.2-0.4-2.6-0.4-4.2L253.7,246.8L253.7,246.8z M275.4,264.9c0-2.1,0.3-3.9,0.9-5.4
		c0.6-1.6,1.4-2.9,2.5-3.9c1-1,2.2-1.8,3.5-2.3s2.7-0.8,4.1-0.8c3.2,0,5.8,1,7.6,3c1.8,2,2.7,5,2.7,9c0,0.3,0,0.6,0,1s0,0.7-0.1,1
		h-15.5c0.1,1.9,0.8,3.4,2,4.4s2.9,1.6,5.2,1.6c1.3,0,2.5-0.1,3.6-0.4c1.1-0.2,2-0.5,2.6-0.8l0.7,4.5c-0.3,0.2-0.7,0.3-1.2,0.5
		s-1.1,0.3-1.8,0.5c-0.7,0.1-1.4,0.2-2.2,0.3s-1.6,0.1-2.4,0.1c-2.1,0-3.9-0.3-5.4-0.9c-1.5-0.6-2.8-1.5-3.8-2.6s-1.7-2.4-2.2-3.9
		C275.7,268.3,275.4,266.7,275.4,264.9z M291.2,262.5c0-0.7-0.1-1.5-0.3-2.1c-0.2-0.7-0.5-1.3-0.9-1.8s-0.9-0.9-1.5-1.2
		s-1.3-0.4-2.1-0.4s-1.6,0.2-2.2,0.5s-1.2,0.7-1.6,1.2s-0.8,1.1-1,1.8s-0.4,1.3-0.5,2H291.2z M21.6,320.2c0,1.3-0.2,2.4-0.6,3.5
		s-0.9,1.9-1.6,2.7c-0.7,0.7-1.5,1.3-2.4,1.7s-2,0.6-3.1,0.6s-2.2-0.2-3.1-0.6c-0.9-0.4-1.7-1-2.4-1.7s-1.2-1.6-1.6-2.7
		c-0.4-1-0.6-2.2-0.6-3.5s0.2-2.4,0.6-3.4s0.9-1.9,1.6-2.6c0.7-0.7,1.5-1.3,2.4-1.7s2-0.6,3.1-0.6s2.2,0.2,3.1,0.6
		c0.9,0.4,1.8,1,2.4,1.7c0.7,0.7,1.2,1.6,1.6,2.6C21.5,317.8,21.6,318.9,21.6,320.2z M17.9,320.2c0-1.6-0.3-2.8-1-3.8
		c-0.7-0.9-1.6-1.4-2.9-1.4c-1.2,0-2.2,0.5-2.9,1.4s-1,2.2-1,3.8s0.3,2.9,1,3.8c0.7,0.9,1.6,1.4,2.9,1.4c1.2,0,2.2-0.5,2.9-1.4
		C17.5,323.1,17.9,321.8,17.9,320.2z M50.4,320.2c0,1.3-0.2,2.4-0.6,3.5c-0.4,1-0.9,1.9-1.6,2.6c-0.7,0.7-1.6,1.3-2.6,1.7
		s-2.1,0.6-3.4,0.6c-1.2,0-2.4-0.1-3.5-0.3s-2-0.4-2.8-0.6v-22.6l3.7-0.6v8.3c0.4-0.2,1-0.4,1.6-0.6c0.6-0.2,1.3-0.3,2.1-0.3
		c1.1,0,2.1,0.2,3,0.6c0.9,0.4,1.6,1,2.2,1.7s1,1.6,1.4,2.6C50.2,317.8,50.4,319,50.4,320.2z M46.6,320.1c0-1.6-0.3-2.8-0.9-3.7
		s-1.6-1.4-3-1.4c-0.6,0-1.2,0.1-1.7,0.3s-1,0.4-1.3,0.6v9.2c0.3,0.1,0.6,0.1,1,0.2c0.4,0.1,0.9,0.1,1.5,0.1c1.4,0,2.4-0.5,3.2-1.4
		C46.2,323.1,46.6,321.8,46.6,320.1z M63.8,320.3c0-1.4,0.2-2.6,0.6-3.7c0.4-1.1,1-1.9,1.7-2.6c0.7-0.7,1.5-1.2,2.4-1.6
		c0.9-0.4,1.8-0.5,2.8-0.5c2.2,0,3.9,0.7,5.2,2c1.2,1.4,1.9,3.4,1.9,6.1c0,0.2,0,0.4,0,0.7s0,0.5,0,0.7H67.8c0.1,1.3,0.6,2.3,1.4,3
		s2,1.1,3.5,1.1c0.9,0,1.7-0.1,2.5-0.2c0.7-0.2,1.3-0.3,1.8-0.5l0.5,3c-0.2,0.1-0.5,0.2-0.8,0.3c-0.4,0.1-0.8,0.2-1.2,0.3
		c-0.5,0.1-1,0.2-1.5,0.2c-0.5,0.1-1.1,0.1-1.6,0.1c-1.4,0-2.6-0.2-3.7-0.6c-1-0.4-1.9-1-2.6-1.7s-1.2-1.6-1.5-2.6
		C64,322.6,63.8,321.5,63.8,320.3z M74.5,318.6c0-0.5-0.1-1-0.2-1.5s-0.4-0.9-0.6-1.2c-0.3-0.3-0.6-0.6-1-0.8s-0.9-0.3-1.4-0.3
		c-0.6,0-1.1,0.1-1.5,0.3s-0.8,0.5-1.1,0.8s-0.5,0.7-0.7,1.2c-0.2,0.4-0.3,0.9-0.3,1.4L74.5,318.6L74.5,318.6z M101.8,315.5
		c-0.3-0.1-0.7-0.2-1.3-0.3c-0.5-0.1-1.2-0.2-1.9-0.2c-0.4,0-0.8,0-1.3,0.1s-0.8,0.2-1,0.2v12.8h-3.7v-15.2c0.7-0.3,1.6-0.5,2.7-0.7
		s2.3-0.4,3.6-0.4c0.2,0,0.5,0,0.9,0c0.3,0,0.7,0.1,1,0.1c0.3,0.1,0.6,0.1,0.9,0.2c0.3,0.1,0.6,0.1,0.7,0.2L101.8,315.5z
		 M114.6,320.3c0-1.4,0.2-2.6,0.6-3.7c0.4-1.1,1-1.9,1.7-2.6c0.7-0.7,1.5-1.2,2.4-1.6c0.9-0.4,1.8-0.5,2.8-0.5c2.2,0,3.9,0.7,5.2,2
		c1.2,1.4,1.9,3.4,1.9,6.1c0,0.2,0,0.4,0,0.7s0,0.5,0,0.7h-10.6c0.1,1.3,0.6,2.3,1.4,3s2,1.1,3.5,1.1c0.9,0,1.7-0.1,2.5-0.2
		c0.7-0.2,1.3-0.3,1.8-0.5l0.5,3c-0.2,0.1-0.5,0.2-0.8,0.3c-0.4,0.1-0.8,0.2-1.2,0.3c-0.5,0.1-1,0.2-1.5,0.2
		c-0.5,0.1-1.1,0.1-1.6,0.1c-1.4,0-2.6-0.2-3.7-0.6c-1-0.4-1.9-1-2.6-1.7s-1.2-1.6-1.5-2.6C114.8,322.6,114.6,321.5,114.6,320.3z
		 M125.3,318.6c0-0.5-0.1-1-0.2-1.5s-0.4-0.9-0.6-1.2c-0.3-0.3-0.6-0.6-1-0.8s-0.9-0.3-1.4-0.3c-0.6,0-1.1,0.1-1.5,0.3
		s-0.8,0.5-1.1,0.8c-0.3,0.3-0.5,0.7-0.7,1.2c-0.2,0.4-0.3,0.9-0.3,1.4L125.3,318.6L125.3,318.6z M155.8,326.6
		c0,2.5-0.6,4.4-1.9,5.6c-1.3,1.2-3.3,1.8-5.9,1.8c-1,0-1.9-0.1-2.9-0.2c-0.9-0.2-1.8-0.4-2.5-0.6l0.7-3.2c0.6,0.3,1.4,0.5,2.2,0.6
		c0.8,0.2,1.7,0.2,2.6,0.2c1.5,0,2.5-0.3,3.2-0.9c0.6-0.6,0.9-1.5,0.9-2.7v-0.6c-0.4,0.2-0.9,0.4-1.5,0.6c-0.6,0.2-1.3,0.3-2.1,0.3
		c-1,0-2-0.2-2.8-0.5s-1.6-0.8-2.2-1.4c-0.6-0.6-1.1-1.4-1.4-2.4c-0.3-0.9-0.5-2-0.5-3.3c0-1.2,0.2-2.2,0.5-3.2
		c0.4-1,0.9-1.8,1.6-2.5s1.5-1.2,2.5-1.6c1-0.4,2.1-0.6,3.3-0.6c1.2,0,2.3,0.1,3.4,0.3s2,0.4,2.8,0.6L155.8,326.6L155.8,326.6z
		 M145.5,319.8c0,1.6,0.3,2.7,1,3.4s1.6,1.1,2.6,1.1c0.6,0,1.1-0.1,1.7-0.2c0.5-0.2,0.9-0.4,1.3-0.6v-8.3c-0.3-0.1-0.6-0.1-1-0.2
		c-0.4-0.1-0.9-0.1-1.5-0.1c-1.3,0-2.4,0.4-3.1,1.3C145.9,317.2,145.5,318.3,145.5,319.8z"/>
	<path class="st1" d="M294.7,328.2H173.9v-2.1h120.8V328.2z"/>
</svg>
